<svg width="243" height="102" viewBox="0 0 243 102" fill="none" xmlns="http://www.w3.org/2000/svg">
<path fill-rule="evenodd" clip-rule="evenodd" d="M147.037 75.382H157.578C158.091 75.382 157.898 74.3785 157.898 73.8915L157.897 61.2213L162.764 67.5339C163.106 67.9916 163.399 68.3445 163.738 68.7962L164.727 70.0435C165.124 70.5361 165.409 70.8088 165.856 71.2563C168.463 73.8627 170.97 75.1941 174.87 75.7642L179.085 76.1274L179.999 70.0135C180.112 69.2821 180.257 68.5673 180.257 67.8226C178.355 67.7802 175.41 65.86 173.913 64.6904C173.185 64.1216 169.84 60.4501 169.29 59.7307L167.054 57.1754C166.802 56.8453 166.526 56.6481 166.309 56.3235L174.319 46.2333C174.823 45.6171 178.962 40.561 179.085 40.0334L168.435 40.0302C167.357 40.0169 167.499 40.1418 167.039 40.7634L159.768 50.5287C159.416 50.9986 158.221 52.6997 157.897 52.9166L157.898 28.0021C157.9 27.468 158.071 26.6181 157.578 26.6181H147.037V75.382Z" fill="white"/>
<path fill-rule="evenodd" clip-rule="evenodd" d="M0 52.7036C0 54.5757 0.171418 56.649 0.470692 58.3018C1.16915 62.1586 2.23994 64.8593 4.50189 67.899C4.80218 68.3024 4.93159 68.4052 5.24271 68.7552C6.34957 70.0008 5.95948 69.4734 6.7881 70.2975C11.1207 74.6065 19.4194 76.0209 25.4468 76.0209C28.055 76.0209 30.6918 75.7968 33.0015 75.4837C36.3419 75.0308 37.4565 74.2614 39.5011 73.785L37.1586 65.4802L32.8851 66.3173C32.0815 66.4544 31.4475 66.47 30.5744 66.5618C29.7671 66.6468 26.4467 66.822 25.6148 66.6964C24.7847 66.571 23.9971 66.6171 23.163 66.4864C15.2406 65.2435 11.286 59.8581 11.286 51.9583C11.286 47.5609 12.5994 44.0897 14.8261 41.87C17.6186 39.0865 20.9071 38.1169 25.1274 38.1169C28.1689 38.1169 30.9971 38.4085 33.8161 39.1172L36.4133 39.8205L37.863 35.84C38.1184 35.1034 39.2762 32.2593 39.288 31.7286C38.9662 31.6537 38.9148 31.5865 38.604 31.4546C34.3232 29.6377 29.9278 28.9604 25.1274 28.9604C20.029 28.9604 14.9245 29.7785 10.7016 31.8895C7.90982 33.285 6.89195 34.3365 5.08384 36.28C3.69075 37.7774 2.3965 40.1836 1.68988 42.1492C0.64739 45.0494 0 48.7457 0 52.7036Z" fill="white"/>
<path fill-rule="evenodd" clip-rule="evenodd" d="M220.608 5.27336H229.078L229.078 12.4519L236.155 12.4567C236.157 13.8762 236.247 20.008 236.108 20.9258H229.128L229.154 28.0026H220.609V20.9755C219.33 20.9773 214.416 21.0717 213.528 20.9237L213.476 12.407H220.605L220.608 5.27336ZM207.62 4.79122V28.641C207.62 31.2242 209.735 33.4322 212.305 33.4322H218.906V46.2088C219.268 46.1119 219.311 45.8725 219.523 45.5481L222.39 41.494C222.81 40.9327 223.113 40.4378 223.529 39.8654L228.063 33.4322C231.08 33.4322 234.099 33.4205 237.115 33.4348C239.917 33.4479 242.01 31.1948 242.01 29.2799V4.36529C242.01 3.72358 241.751 2.96137 241.502 2.53194C240.604 0.988943 239.088 0 237.006 0H212.731C209.772 0 207.62 2.0836 207.62 4.79122Z" fill="#E75204"/>
<path fill-rule="evenodd" clip-rule="evenodd" d="M194.098 64.7683C194.098 63.5125 194.093 62.7048 195.373 61.7837C197.115 60.53 200.786 60.7155 203.044 60.7248C203.768 60.7275 204.016 60.6157 204.745 60.6157V66.1523C204.296 66.1624 203.675 66.3939 203.191 66.5145C200.929 67.0782 197.513 67.9139 195.378 66.6822C194.782 66.3381 194.098 65.7026 194.098 64.7683ZM185.687 41.8768C185.831 42.4927 186.058 43.1754 186.22 43.7927C186.397 44.4682 186.564 45.1264 186.764 45.8035C186.946 46.4146 187.116 47.0935 187.283 47.7333C187.377 48.0887 187.458 48.3256 187.56 48.734C187.664 49.1439 187.785 49.377 187.816 49.7556C190.366 49.1616 192.243 48.7779 194.888 48.4157C195.777 48.294 196.699 48.3515 197.567 48.2202C198.659 48.0549 201.48 48.2916 202.573 48.7338C205.073 49.7447 204.745 51.749 204.745 54.334C199.122 54.334 192.77 53.7234 187.821 56.6808C185.153 58.2747 183.8 60.9109 183.549 64.1213C183.407 65.9486 183.605 67.6733 184.129 69.2014C184.683 70.82 185.327 71.6992 186.404 72.7818C188.574 74.9624 192.133 75.7348 196.015 75.7348C199.202 75.7348 202.209 74.189 204.724 72.5195C205.116 72.2593 205.416 72.0038 205.81 71.7954C206.647 75.3876 214.371 75.7057 217.331 75.4372C218.468 75.334 218.095 75.6968 218.157 73.6019C218.174 73.0566 218.27 72.9473 218.271 72.3314C218.272 70.5777 218.48 68.9547 218.48 67.2171C217.91 67.2171 216.396 67.0215 215.994 66.8285C215.245 66.469 215.283 65.7182 215.286 64.6619C215.293 61.7866 215.424 49.4342 215.149 47.5506C214.66 44.1984 213.06 42.0886 210.424 40.776C205.603 38.3748 197.499 38.7355 192.101 39.8796C190.985 40.1161 188.369 40.8626 187.239 41.2994C186.682 41.515 186.176 41.6422 185.687 41.8768Z" fill="white"/>
<path fill-rule="evenodd" clip-rule="evenodd" d="M131.706 53.3424V53.9812H120.313C120.313 50.7495 122.174 47.1693 125.743 46.9526C126.689 46.8952 127.485 46.8607 128.363 47.2086C130.673 48.1235 131.706 50.6685 131.706 53.3424ZM109.24 56.5366C109.24 60.6891 109.146 63.2328 110.639 67.1689C113.478 74.6553 121.135 76.1274 128.405 76.1274C130.97 76.1274 139.182 75.4812 141.607 74.3173C141.3 72.9986 141.076 71.6089 140.8 70.227L140.01 66.119C139.24 66.119 138.202 66.3994 137.532 66.5159C136.659 66.6677 135.948 66.7772 135.067 66.9252C131.405 67.5405 126.076 68.0608 122.796 66.2976C120.916 65.2869 119.994 63.6351 119.994 61.0084H142.566C143.048 61.0084 142.885 60.4622 142.885 59.3048C142.885 51.9452 142.112 44.2875 135.113 40.7787C129.962 38.1967 121.247 38.8422 116.446 41.7025C113.729 43.3211 111.631 46.0323 110.583 49.0423C109.873 51.0794 109.24 53.8573 109.24 56.5366Z" fill="white"/>
<path fill-rule="evenodd" clip-rule="evenodd" d="M43.4402 64.309C43.4402 69.286 44.7407 73.9352 49.8875 75.4296C55.5169 77.0639 60.7556 75.71 65.4173 72.6577L66.6511 71.8685C66.6511 72.5073 66.6515 73.1462 66.6511 73.785C66.6507 74.2825 66.4508 75.3821 66.9705 75.3821H77.5112V40.0334H66.9705C66.4369 40.0334 66.6511 41.7917 66.6511 42.8017V64.9479C64.6571 66.0028 56.5718 68.0592 54.914 65.2924C54.3642 64.3748 54.1939 62.6708 54.1939 61.2213V40.0334H43.4402V64.309Z" fill="white"/>
<path fill-rule="evenodd" clip-rule="evenodd" d="M95.8247 44.6118V40.0334H84.9646V75.3821H95.5053C96.0133 75.3821 95.8248 74.5191 95.8247 73.5721V53.8748C95.8247 53.2 95.7826 52.3934 95.8164 51.737C95.8485 51.1142 96.0272 51.1565 96.8571 50.5419C99.7104 48.429 103.897 48.1032 107.509 48.6893C108.67 48.8777 108.192 49.4283 109.027 44.3989C109.149 43.6663 109.247 42.967 109.377 42.193C109.434 41.8556 109.665 40.1501 109.773 39.927C105.966 39.0401 103.137 38.7161 99.5508 41.0978C97.8422 42.2325 97.0522 43.1995 95.8247 44.6118Z" fill="white"/>
<path fill-rule="evenodd" clip-rule="evenodd" d="M220.605 12.407H213.476L213.528 20.9237C214.416 21.0717 219.33 20.9774 220.609 20.9755V28.0026H229.154L229.128 20.9259H236.108C236.247 20.008 236.157 13.8762 236.155 12.4567L229.078 12.4519L229.078 5.27338H220.608L220.605 12.407Z" fill="white"/>
<path fill-rule="evenodd" clip-rule="evenodd" d="M208.578 96.0377C208.578 94.8081 208.579 93.4824 210.282 93.4824C212.097 93.4824 211.971 97.6348 210.388 97.6348C209.469 97.6348 208.578 97.3592 208.578 96.0377ZM210.332 102H209.141C208.436 101.923 207.779 101.721 207.301 101.468C207.347 100.915 207.578 100.589 207.62 100.084C208.031 100.179 210.09 101.332 211.217 99.9534C211.607 99.4761 211.56 98.9852 211.56 98.1671C210.773 99.0715 210.242 99.0188 209.324 99.0188C207.731 99.0188 206.662 97.3473 206.662 95.6118C206.662 93.8264 207.863 92.0982 209.643 92.0982C211.23 92.0982 210.752 92.2665 211.773 92.9499C211.773 92.067 211.599 92.2047 213.37 92.2047V98.2736C213.37 100.835 211.905 101.816 210.332 102Z" fill="white"/>
<path fill-rule="evenodd" clip-rule="evenodd" d="M74.7431 96.0377C74.7431 94.8081 74.7436 93.4824 76.4467 93.4824C78.2615 93.4824 78.1357 97.6348 76.5531 97.6348C75.6334 97.6348 74.7431 97.3592 74.7431 96.0377ZM76.4748 102H75.3099C74.6083 101.925 73.952 101.725 73.4655 101.468C73.5115 100.915 73.7428 100.589 73.7849 100.084C74.2051 100.181 74.3118 100.342 74.7867 100.466C75.1885 100.571 75.4635 100.616 75.9143 100.616C77.6685 100.616 77.7244 99.2118 77.7244 98.1671C76.5729 99.4918 74.52 99.2434 73.5067 97.9128C73.1072 97.3882 72.8267 96.495 72.8267 95.6118C72.8267 93.8264 74.0273 92.0982 75.8079 92.0982C77.3947 92.0982 76.9165 92.2665 77.9373 92.9499C77.9373 92.5573 77.8431 92.2047 78.2567 92.2047C80.0115 92.2047 79.5309 91.9546 79.5337 93.4815L79.5351 98.5938C79.4201 100.911 77.998 101.826 76.4748 102Z" fill="white"/>
<path fill-rule="evenodd" clip-rule="evenodd" d="M94.2273 95.7182C94.2273 92.5855 97.315 93.1891 97.315 94.76C97.315 96.4329 97.6194 97.7411 95.6115 97.7411C94.7373 97.7411 94.2273 96.6439 94.2273 95.7182ZM97.315 92.737C96.3287 92.0765 96.5146 92.0981 95.1856 92.0981C93.6877 92.0981 92.4174 93.7509 92.4174 95.2923V96.144C92.4174 97.6335 93.645 99.2318 95.0791 99.2318C96.2409 99.2318 96.7029 99.1162 97.528 98.167C97.5387 98.6485 97.6344 98.5901 97.6344 99.1253H99.2315V89.1169H97.315V92.737Z" fill="white"/>
<path fill-rule="evenodd" clip-rule="evenodd" d="M142.885 96.357C142.885 95.4407 142.721 93.4823 144.376 93.4823C146.56 93.4823 146.685 97.3334 144.72 97.7749C143.763 97.99 142.885 97.1842 142.885 96.357ZM141.075 99.1253H142.566L142.69 98.2766C143.522 98.8444 143.298 99.2318 144.908 99.2318C145.957 99.2318 146.55 98.7715 147.064 98.1939C148.732 96.3222 147.947 92.0981 145.334 92.0981C144.249 92.0981 143.7 92.1182 142.885 93.0564V89.1169H141.075V99.1253Z" fill="white"/>
<path fill-rule="evenodd" clip-rule="evenodd" d="M116.8 95.8247C116.8 92.249 119.994 93.0625 119.994 95.1858C119.994 96.1686 119.925 98.0798 118.311 97.929C117.36 97.8403 116.8 96.9227 116.8 95.8247ZM114.883 95.7183C114.883 100.361 121.911 100.631 121.911 95.3989C121.911 93.6941 120.52 92.0982 118.929 92.0982C117.775 92.0982 116.685 92.0925 115.764 93.1915C115.272 93.7789 114.883 94.6789 114.883 95.7183Z" fill="white"/>
<path fill-rule="evenodd" clip-rule="evenodd" d="M52.7038 97.9542C50.4629 97.9542 50.4561 93.3759 52.5973 93.3759C54.3822 93.3759 54.634 95.848 53.9145 97.1419C53.7066 97.5162 53.204 97.9542 52.7038 97.9542ZM49.1902 95.2924C49.1902 96.4194 49.1683 97.4119 50.171 98.3575C52.0371 100.117 56.1108 99.2158 56.1108 95.9312V95.2924C56.1108 93.5788 54.7307 92.0982 53.0232 92.0982C51.9646 92.0982 50.9336 92.1333 50.0703 93.0848C49.6528 93.545 49.1902 94.4445 49.1902 95.2924Z" fill="white"/>
<path fill-rule="evenodd" clip-rule="evenodd" d="M81.2379 96.2505C81.2379 99.4548 83.8303 99.6211 85.0534 98.8949C85.47 98.6474 85.4988 98.3867 85.9226 98.2735V99.1252H87.5197V92.524C87.5197 92.0509 87.0227 92.2046 85.9226 92.2046C85.4299 92.2046 85.6013 93.0544 85.6031 93.5885C85.6053 94.2234 85.6785 96.5773 85.5059 97.0049C85.1508 97.8844 83.6612 98.0881 83.2541 97.1089C82.9189 96.3022 83.0479 93.2704 83.0479 92.2046H81.2379V96.2505Z" fill="white"/>
<path fill-rule="evenodd" clip-rule="evenodd" d="M200.699 93.1629C200.699 92.0551 200.972 92.2046 199.102 92.2046V99.1252H200.912V95.0794C200.912 93.1899 203.574 92.9442 203.574 95.0794V99.1252H205.384V94.9729C205.384 93.4804 204.593 92.0981 203.148 92.0981C202.402 92.0981 202.156 92.0578 201.485 92.458C200.952 92.7758 201.033 92.9187 200.699 93.1629Z" fill="white"/>
<path fill-rule="evenodd" clip-rule="evenodd" d="M57.3882 92.524C57.3882 95.624 56.8154 99.2318 59.9435 99.2318C61.3252 99.2318 61.3376 98.6594 62.0729 98.167C62.0729 99.2746 61.8002 99.1252 63.67 99.1252V92.2046H61.86V96.2505C61.86 97.2003 61.3012 97.7411 60.3695 97.7411C58.7681 97.7411 59.1982 94.1299 59.1982 92.2046C57.9867 92.2046 57.3882 92.0329 57.3882 92.524Z" fill="white"/>
<path fill-rule="evenodd" clip-rule="evenodd" d="M133.409 97.9541C131.998 97.9541 132.066 95.8245 133.941 95.8245H134.687C134.687 96.4168 134.827 97.9541 133.409 97.9541ZM131.173 92.6304C131.184 93.1246 131.348 93.3423 131.386 93.8017C131.832 93.7644 134.514 92.4698 134.687 94.5469C129.039 94.5469 130.234 99.2317 132.557 99.2317C133.773 99.2317 133.78 99.1645 134.793 98.4864C134.939 98.7463 134.9 98.6833 134.9 99.1252H136.603C136.174 97.283 137.099 94.4675 135.818 92.8833C134.851 91.6877 132.344 92.0109 131.173 92.6304Z" fill="white"/>
<path fill-rule="evenodd" clip-rule="evenodd" d="M103.491 93.3759C104.468 93.3759 105.088 93.5044 105.088 94.8664H102.213C102.396 94.4848 102.323 94.2818 102.617 93.886C102.81 93.6255 103.069 93.3759 103.491 93.3759ZM100.509 95.5053V96.0377C100.509 97.8717 101.976 99.2319 103.81 99.2319C105.728 99.2319 105.044 99.1386 106.472 98.8059C106.434 98.3514 106.27 98.0147 106.259 97.5283C105.268 97.7591 103.85 98.1755 102.844 97.4293C102.406 97.1046 102.351 96.7382 102.213 96.1441H106.791C106.827 95.7212 106.898 95.8877 106.898 95.6118C106.898 93.7862 105.945 92.0982 104.129 92.0982H103.597C101.864 92.0982 100.509 93.7703 100.509 95.5053Z" fill="white"/>
<path fill-rule="evenodd" clip-rule="evenodd" d="M168.758 93.3758C169.735 93.3758 170.355 93.5043 170.355 94.8664H167.48C167.663 94.4847 167.59 94.2817 167.884 93.886C168.077 93.6254 168.336 93.3758 168.758 93.3758ZM165.777 95.5052V96.0376C165.777 98.7869 168.447 99.6001 170.757 99.1014C171.122 99.0225 171.412 98.8821 171.739 98.8058C171.715 98.5119 171.52 97.7376 171.42 97.5282C170.523 97.9582 167.664 98.352 167.48 96.144H172.058C172.076 95.3607 172.246 94.4623 171.614 93.3943C170.196 90.9958 165.777 91.9826 165.777 95.5052Z" fill="white"/>
<path fill-rule="evenodd" clip-rule="evenodd" d="M151.829 93.3759H152.361C152.95 93.3759 153.426 93.9898 153.426 94.547V94.8664H150.551C150.701 94.2219 151.06 93.3759 151.829 93.3759ZM148.848 95.5053V96.0377C148.848 98.3352 150.588 99.2319 152.787 99.2319C153.715 99.2319 154.101 98.9712 154.81 98.8059C154.721 98.423 154.639 97.8381 154.491 97.5283C153.633 97.9396 150.738 98.3863 150.551 96.1441H155.129L155.172 95.24C155.067 93.6682 154.248 92.0982 152.574 92.0982H151.722C150.176 92.0982 148.848 93.9011 148.848 95.5053Z" fill="white"/>
<path fill-rule="evenodd" clip-rule="evenodd" d="M45.0376 95.2923V99.1252H46.8477V95.3988C46.8477 94.6651 49.866 90.376 49.9353 89.5428H48.0188L46.173 93.5528C46.0509 93.7711 46.0962 93.6863 45.996 93.8017L44.6133 90.6059C44.4401 90.2542 44.2619 89.8876 44.0793 89.5428H42.1628C42.2086 90.0914 42.5956 90.5699 42.8359 90.9993C43.1133 91.4951 43.3064 91.892 43.5811 92.3834C43.7278 92.6458 43.7923 92.8281 43.9389 93.0904C44.1947 93.5482 45.0376 94.9013 45.0376 95.2923Z" fill="white"/>
<path fill-rule="evenodd" clip-rule="evenodd" d="M111.263 91.6722V92.2046H110.305V93.5886H111.263V99.1252H113.073V93.5886C114.8 93.5886 114.563 93.8033 114.563 92.524C114.563 92.0602 114.112 92.2046 113.073 92.2046C113.073 90.0121 113.721 90.4043 114.883 90.501C114.98 89.3331 115.388 88.9039 113.925 88.9039C112.404 88.9039 111.263 90.047 111.263 91.6722Z" fill="white"/>
<path fill-rule="evenodd" clip-rule="evenodd" d="M190.265 99.1253H191.969L193.258 95.7306C193.499 95.0653 194.48 92.7306 194.524 92.2047H192.714L191.529 95.9172C191.471 96.1056 191.4 96.4103 191.354 96.5948L191.117 97.2088C191.038 96.2649 189.907 93.4089 189.626 92.2047H187.71C187.746 92.6451 188.148 93.4699 188.309 93.9474L190.265 99.1253Z" fill="white"/>
<path fill-rule="evenodd" clip-rule="evenodd" d="M156.727 90.927V92.2047H155.768V93.5887H156.727C156.727 95.963 156.216 99.2318 158.643 99.2318C160.356 99.2318 160.134 99.2585 160.134 97.7411C158.263 97.7411 158.537 97.9099 158.537 93.5887H160.134V92.2047H158.537V90.5011C157.873 90.5158 157.354 90.8748 156.727 90.927Z" fill="white"/>
<path fill-rule="evenodd" clip-rule="evenodd" d="M161.624 90.927V92.2047H160.666V93.5887H161.624C161.624 95.9396 161.126 99.2318 163.541 99.2318C165.254 99.2318 165.031 99.2585 165.031 97.7411C163.161 97.7411 163.434 97.9099 163.434 93.5887H165.031V92.2047H163.434V90.5011C162.771 90.5158 162.251 90.8748 161.624 90.927Z" fill="white"/>
<path fill-rule="evenodd" clip-rule="evenodd" d="M181.215 98.8058C181.215 99.2789 181.712 99.1253 182.812 99.1253C183.057 99.1253 183.131 99.0512 183.131 98.8058V89.1169H181.215V98.8058Z" fill="white"/>
<path fill-rule="evenodd" clip-rule="evenodd" d="M66.9705 93.3758C66.9705 92.0332 67.2682 92.2047 65.3734 92.2047V98.8059C65.3734 99.2969 65.9719 99.1253 67.1834 99.1253C67.1834 97.4515 66.7639 93.8017 68.461 93.8017H69.3129V92.0981C68.3085 92.0981 67.8827 92.0375 67.1454 93.1248C67.1279 93.1506 67.0754 93.2303 67.0601 93.2524C67.0491 93.2684 67.0244 93.3016 67.0155 93.3143C67.0066 93.3271 66.9871 93.3567 66.9705 93.3758Z" fill="white"/>
<path fill-rule="evenodd" clip-rule="evenodd" d="M124.785 93.3758C124.785 92.0333 125.083 92.2047 123.188 92.2047V98.8059C123.188 99.297 123.787 99.1253 124.998 99.1253C124.998 97.3666 124.571 93.8018 126.276 93.8018H127.127V92.0982C126.332 92.0982 126.026 92.0048 125.446 92.5464L124.785 93.3758Z" fill="white"/>
<path fill-rule="evenodd" clip-rule="evenodd" d="M174.933 93.2693V92.2047H173.336C173.336 93.0857 173.443 93.5391 173.443 94.4406V99.1253C175.684 99.1253 175.267 99.6732 175.252 96.0373C175.25 95.4345 175.216 94.9377 175.428 94.509C175.825 93.7036 176.606 93.8018 177.276 93.8018V92.0982C175.222 92.0982 175.784 92.6994 174.933 93.2693Z" fill="white"/>
<path fill-rule="evenodd" clip-rule="evenodd" d="M195.589 99.1252C196.8 99.1252 197.399 99.2969 197.399 98.8058V92.524C197.399 92.0329 196.8 92.2046 195.589 92.2046V99.1252Z" fill="white"/>
<path fill-rule="evenodd" clip-rule="evenodd" d="M184.835 99.1253H186.645V92.2047H184.835V99.1253Z" fill="white"/>
<path fill-rule="evenodd" clip-rule="evenodd" d="M89.2231 99.1253H91.0331V92.2047H89.2231V99.1253Z" fill="white"/>
<path fill-rule="evenodd" clip-rule="evenodd" d="M215.605 96.2505H216.67C216.67 95.6218 216.781 95.2892 216.777 94.5476C216.774 93.9349 216.752 93.3663 216.838 92.7984C216.97 91.9258 216.804 91.0864 216.94 90.1081C217.04 89.3866 217.023 89.5428 215.073 89.5428C215.073 90.1447 215.061 90.7565 215.069 91.357L215.27 94.7755C215.333 95.3439 215.074 96.2505 215.605 96.2505Z" fill="white"/>
<path fill-rule="evenodd" clip-rule="evenodd" d="M214.86 98.0605C214.86 99.5288 217.096 99.7415 217.096 98.0605C217.096 96.5678 214.86 96.731 214.86 98.0605Z" fill="white"/>
<path fill-rule="evenodd" clip-rule="evenodd" d="M89.1171 90.2882C89.1171 91.5676 91.1401 91.8058 91.1401 90.2882C91.1401 88.8827 89.1171 89.2349 89.1171 90.2882Z" fill="white"/>
<path fill-rule="evenodd" clip-rule="evenodd" d="M185.793 91.3528C187.064 91.3528 187.064 89.33 185.793 89.33C184.458 89.33 184.453 91.3528 185.793 91.3528Z" fill="white"/>
<path fill-rule="evenodd" clip-rule="evenodd" d="M195.482 90.2881C195.482 91.821 197.42 91.5113 197.477 90.3823C197.54 89.15 195.482 88.9169 195.482 90.2881Z" fill="white"/>
</svg>
