<svg width="20" height="20" viewBox="0 0 20 20" fill="none" xmlns="http://www.w3.org/2000/svg">
<g clip-path="url(#clip0_1682_10166)">
<path d="M20 2.49996C20 2.95829 19.625 3.33329 19.1667 3.33329H0.833333C0.375 3.33329 0 2.95829 0 2.49996C0 2.04163 0.375 1.66663 0.833333 1.66663H19.1667C19.625 1.66663 20 2.04163 20 2.49996ZM12.5 16.6666H7.5C7.04167 16.6666 6.66667 17.0416 6.66667 17.5C6.66667 17.9583 7.04167 18.3333 7.5 18.3333H12.5C12.9583 18.3333 13.3333 17.9583 13.3333 17.5C13.3333 17.0416 12.9583 16.6666 12.5 16.6666ZM15.8333 9.16663H4.16667C3.70833 9.16663 3.33333 9.54163 3.33333 9.99996C3.33333 10.4583 3.70833 10.8333 4.16667 10.8333H15.8333C16.2917 10.8333 16.6667 10.4583 16.6667 9.99996C16.6667 9.54163 16.2917 9.16663 15.8333 9.16663Z" fill="#231F20"/>
</g>
<defs>
<clipPath id="clip0_1682_10166">
<rect width="20" height="20" fill="white"/>
</clipPath>
</defs>
</svg>
