<svg width="20" height="20" viewBox="0 0 20 20" fill="none" xmlns="http://www.w3.org/2000/svg">
<g id="cash-on-delivery (1)">
<path id="Vector" d="M1.64209 12.9851V18.6564C1.64209 18.7356 1.67353 18.8115 1.7295 18.8675C1.78548 18.9235 1.86139 18.9549 1.94055 18.9549H3.72986C3.94319 18.9544 4.14932 18.8777 4.31118 18.7387C4.47305 18.5998 4.58003 18.4076 4.6129 18.1969L7.4629 19.5109C8.14669 19.8161 8.90451 19.9156 9.6439 19.7973C10.3833 19.679 11.0723 19.3481 11.6267 18.8449L15.4245 15.4055C16.0615 14.8663 15.5868 13.7699 14.7755 13.8396V10.5973C14.7752 10.3599 14.6808 10.1322 14.5129 9.96437C14.345 9.79649 14.1174 9.70207 13.88 9.70181C12.8012 9.70343 10.4613 9.70066 9.40267 9.70181H6.7164C6.47898 9.70207 6.25136 9.79649 6.08348 9.96437C5.9156 10.1322 5.82116 10.3599 5.8209 10.5973V13.2934C5.81344 13.2753 4.62613 13.2865 4.57159 13.2836C4.51 13.1094 4.39606 12.9585 4.24537 12.8517C4.09468 12.7448 3.91461 12.6871 3.72986 12.6865H1.94051C1.90131 12.6865 1.8625 12.6942 1.82628 12.7092C1.79007 12.7243 1.75716 12.7463 1.72945 12.774C1.70174 12.8017 1.67976 12.8346 1.66477 12.8708C1.64978 12.9071 1.64207 12.9459 1.64209 12.9851ZM10.8953 10.2987V11.5242L10.4667 11.2313C10.2182 11.052 9.93974 11.3909 9.70128 11.5242V10.2987H10.8953ZM6.71644 10.2987H9.10436V12.0896C9.11528 12.1774 9.14428 12.2659 9.21917 12.3191C9.26891 12.3579 9.32945 12.3804 9.39248 12.3835C9.4555 12.3865 9.51793 12.3699 9.57117 12.3361L10.2983 11.8392L11.0252 12.3361C11.0847 12.3758 11.1564 12.3929 11.2274 12.3844C11.2984 12.3758 11.364 12.3421 11.4122 12.2894C11.465 12.2381 11.4807 12.1597 11.4921 12.0896V10.2987H13.8802C13.9593 10.2988 14.0352 10.3303 14.0911 10.3862C14.1471 10.4422 14.1786 10.518 14.1787 10.5972V14.051L9.78636 16.1933C10.3167 15.3465 9.64171 14.1507 8.63917 14.1791H6.64001C6.58544 14.0211 6.52394 13.7767 6.4179 13.6473V10.5973C6.41797 10.5181 6.44944 10.4422 6.5054 10.3862C6.56136 10.3303 6.63728 10.2988 6.71644 10.2987ZM5.98055 14.0852C6.0924 14.3452 6.10205 14.7785 6.42436 14.776H8.63974C8.83764 14.776 9.02742 14.8547 9.16735 14.9946C9.30729 15.1345 9.3859 15.3243 9.3859 15.5222C9.3859 15.7201 9.30729 15.9099 9.16735 16.0498C9.02742 16.1897 8.83764 16.2684 8.63974 16.2684H7.31336C7.27388 16.2679 7.2347 16.2753 7.19809 16.2901C7.16149 16.3049 7.12818 16.3268 7.1001 16.3546C7.07202 16.3823 7.04973 16.4154 7.03452 16.4518C7.0193 16.4883 7.01147 16.5273 7.01147 16.5668C7.01147 16.6063 7.0193 16.6454 7.03452 16.6818C7.04973 16.7183 7.07202 16.7513 7.1001 16.7791C7.12818 16.8069 7.16149 16.8288 7.19809 16.8436C7.2347 16.8584 7.27388 16.8658 7.31336 16.8653H9.70128C9.74659 16.8653 9.7913 16.855 9.83205 16.8352C9.89321 16.8055 14.7177 14.4522 14.6859 14.4678C14.7503 14.4318 14.826 14.4222 14.8974 14.4408C14.9687 14.4595 15.0301 14.5049 15.0686 14.5678C15.1125 14.6274 15.1321 14.7014 15.1236 14.7749C15.115 14.8484 15.079 14.9159 15.0227 14.9639L11.2258 18.4024C10.7578 18.8276 10.1761 19.1074 9.55184 19.2077C8.92753 19.308 8.28752 19.2246 7.70982 18.9675L4.62667 17.5459V13.8808H5.69747C5.76019 13.8806 5.82134 13.9003 5.87218 13.9371C5.92302 13.9738 5.96095 14.0256 5.98055 14.0852ZM2.23901 13.2836H3.72986C3.80939 13.2837 3.88564 13.3153 3.94188 13.3716C3.99812 13.4278 4.02976 13.504 4.02986 13.5836V18.0577C4.02973 18.1372 3.99808 18.2135 3.94185 18.2697C3.88561 18.3259 3.80938 18.3576 3.72986 18.3577H2.23901V13.2836Z" fill="#004A98"/>
<path id="Vector_2" d="M11.4923 14.179H12.3878C12.7779 14.1774 12.7783 13.5838 12.3878 13.5821H11.4923C11.1024 13.5838 11.1019 14.1773 11.4923 14.179Z" fill="#004A98"/>
<path id="Vector_3" d="M18.3578 6.71677V2.23942C18.3578 2.16026 18.3263 2.08434 18.2703 2.02836C18.2144 1.97238 18.1385 1.94093 18.0593 1.94092C17.8483 1.959 16.1317 1.89092 15.9735 1.99477L13.3901 0.544767C12.8284 0.225807 12.1787 0.0970465 11.5378 0.177705C10.8969 0.258363 10.2993 0.544115 9.83422 0.992305L8.45907 2.32454L6.24853 0.956844L5.23207 0.327921C5.19841 0.307349 5.16103 0.293615 5.12206 0.287507C5.08309 0.2814 5.0433 0.283037 5.00496 0.292325C4.96663 0.301613 4.9305 0.318371 4.89865 0.341638C4.86679 0.364905 4.83984 0.394225 4.81934 0.427921C4.4668 1.01292 3.7096 2.27054 3.35241 2.86331L2.72987 3.89669C2.68956 3.96356 2.67706 4.04357 2.69503 4.11955C2.713 4.19554 2.76003 4.26146 2.82603 4.30319L8.97934 8.18981C10.5057 9.12442 10.0608 9.20934 11.0502 7.72977C11.0502 7.72977 11.0505 7.72954 11.0506 7.72934C11.0507 7.72915 11.6137 6.85669 11.6138 6.85646L12.188 7.20465C12.5176 7.40614 12.8972 7.51108 13.2835 7.50754C13.6697 7.50399 14.0473 7.39211 14.3731 7.18461L15.4598 6.49819C15.5315 6.65232 15.6457 6.78282 15.7889 6.87442C15.9321 6.96602 16.0984 7.01491 16.2684 7.01538H18.0593C18.0985 7.01537 18.1374 7.00764 18.1736 6.99263C18.2098 6.97761 18.2427 6.95562 18.2704 6.92789C18.2981 6.90016 18.3201 6.86724 18.3351 6.83102C18.3501 6.79479 18.3578 6.75597 18.3578 6.71677ZM5.1748 0.994575L5.63768 1.28096C5.53598 1.36794 5.41546 1.43013 5.28564 1.46261C5.15581 1.49509 5.02021 1.49699 4.88953 1.46815L5.1748 0.994575ZM3.67641 3.48223C3.76305 3.58766 3.82442 3.71152 3.8558 3.84433C3.88719 3.97713 3.88777 4.11536 3.85749 4.24842L3.3921 3.95442L3.67641 3.48223ZM10.0588 8.16538L9.59311 7.87127C9.69817 7.78311 9.82268 7.72119 9.95638 7.69062C10.0901 7.66006 10.2291 7.66171 10.3621 7.69546L10.0588 8.16538ZM10.6955 7.17869C10.144 6.94596 9.46776 7.1025 9.0693 7.54023L4.3798 4.57834C4.48487 4.2994 4.50467 3.99553 4.4367 3.70531C4.36872 3.41509 4.21604 3.15162 3.99803 2.94834L4.57203 1.99534C5.12099 2.20627 5.77734 2.03988 6.16434 1.60688L9.37868 3.59573C8.6716 3.98338 8.66826 5.10304 9.37337 5.498L11.1031 6.54684L10.6955 7.17869ZM14.0542 6.67992C13.8221 6.82776 13.5532 6.90749 13.278 6.91005C13.0029 6.9126 12.7325 6.83788 12.4978 6.69438L9.68307 4.98765C9.62405 4.95194 9.57291 4.9046 9.53277 4.8485C9.49263 4.79241 9.46432 4.72873 9.44957 4.66134C9.33984 4.24096 9.83553 3.86492 10.2034 4.10823L12.0731 5.26296C12.2014 5.3525 12.3878 5.46073 12.5388 5.36C12.7323 5.25857 12.7303 4.96481 12.545 4.85265L8.98264 2.6485L10.2496 1.42104C10.6219 1.06223 11.1003 0.833548 11.6133 0.769185C12.1263 0.704822 12.6464 0.808233 13.0958 1.06396L15.4877 2.40627C15.4135 2.53724 15.3741 2.68499 15.3731 2.8355V5.84704L14.0542 6.67992ZM17.7608 6.41838H16.2685C16.1894 6.41828 16.1135 6.3868 16.0576 6.33085C16.0016 6.27491 15.9701 6.19905 15.97 6.11992V2.83565C15.9701 2.7567 16.0015 2.681 16.0573 2.62518C16.1131 2.56935 16.1888 2.53795 16.2678 2.53788H17.7608V6.41838Z" fill="#004A98"/>
<path id="Vector_4" d="M7.61198 3.43338C6.0341 3.48338 6.03448 5.77138 7.61198 5.8213C9.18986 5.77115 9.18948 3.4833 7.61198 3.43338ZM7.61198 5.2243C6.82736 5.21038 6.82736 4.04419 7.61198 4.03034C8.39652 4.0443 8.3964 5.2105 7.61198 5.2243Z" fill="#004A98"/>
<path id="Vector_5" d="M17.0773 5.73461C17.2061 5.57281 17.1768 5.41581 17.0773 5.31077C16.9199 5.18546 16.7627 5.20596 16.6535 5.31077C16.5983 5.3675 16.5674 5.44353 16.5674 5.52269C16.5674 5.60185 16.5983 5.67789 16.6535 5.73461C16.7598 5.83531 16.9189 5.86081 17.0773 5.73461Z" fill="#004A98"/>
<path id="Vector_6" d="M2.9229 17.2505C2.82156 17.3568 2.79567 17.5146 2.9229 17.6744C2.96482 17.7163 3.01822 17.7448 3.07635 17.7564C3.13449 17.768 3.19474 17.762 3.2495 17.7393C3.30426 17.7167 3.35107 17.6782 3.384 17.629C3.41693 17.5797 3.4345 17.5217 3.4345 17.4625C3.4345 17.4032 3.41693 17.3452 3.384 17.296C3.35107 17.2467 3.30426 17.2083 3.2495 17.1856C3.19474 17.1629 3.13449 17.157 3.07635 17.1685C3.01822 17.1801 2.96482 17.2086 2.9229 17.2505Z" fill="#004A98"/>
</g>
</svg>
