<svg width="20" height="20" viewBox="0 0 20 20" fill="none" xmlns="http://www.w3.org/2000/svg">
<g id="Group">
<g id="Group_2">
<path id="Vector" d="M18.6703 10.259C18.5898 10.0944 18.5898 9.90556 18.6703 9.74096L19.4162 8.21499C19.8315 7.36534 19.5024 6.35266 18.6671 5.90942L17.1667 5.11333C17.0048 5.02747 16.8938 4.87466 16.8622 4.69423L16.5687 3.02123C16.4053 2.08975 15.5437 1.46382 14.6075 1.59628L12.9257 1.83417C12.7442 1.85979 12.5647 1.80143 12.433 1.67405L11.2123 0.493119C10.5326 -0.164455 9.46774 -0.164494 8.78806 0.493119L7.56728 1.67417C7.43556 1.80159 7.25607 1.85983 7.07459 1.83428L5.39284 1.59639C4.45632 1.46386 3.595 2.08987 3.4316 3.02135L3.13817 4.69427C3.10649 4.87473 2.99551 5.02751 2.83368 5.11341L1.3333 5.90949C0.49791 6.35269 0.168849 7.36546 0.584159 8.21511L1.33005 9.74103C1.41052 9.90568 1.41052 10.0945 1.33005 10.2591L0.58412 11.785C0.16881 12.6347 0.497871 13.6474 1.33326 14.0906L2.83364 14.8867C2.99551 14.9726 3.10649 15.1254 3.13817 15.3058L3.4316 16.9788C3.58035 17.8268 4.30746 18.4215 5.14312 18.4214C5.22542 18.4214 5.30894 18.4156 5.39288 18.4037L7.07463 18.1658C7.256 18.1401 7.4356 18.1986 7.56732 18.3259L8.78806 19.5069C9.12798 19.8357 9.56399 20.0001 10.0002 20C10.4362 20 10.8725 19.8356 11.2123 19.5069L12.433 18.3259C12.5648 18.1986 12.7443 18.1404 12.9257 18.1658L14.6075 18.4037C15.5441 18.5362 16.4053 17.9102 16.5687 16.9788L16.8622 15.3058C16.8939 15.1254 17.0048 14.9726 17.1667 14.8867L18.6671 14.0906C19.5024 13.6474 19.8315 12.6346 19.4162 11.785L18.6703 10.259ZM7.6931 4.80919C8.85919 4.80919 9.80789 5.75789 9.80789 6.92398C9.80789 8.09007 8.85919 9.03877 7.6931 9.03877C6.52702 9.03877 5.57831 8.09007 5.57831 6.92398C5.57831 5.75789 6.52702 4.80919 7.6931 4.80919ZM6.60155 14.2142C6.48893 14.3268 6.34131 14.3832 6.19374 14.3832C6.04616 14.3832 5.8985 14.3269 5.78593 14.2142C5.56069 13.989 5.56069 13.6238 5.78593 13.3986L13.3987 5.78574C13.6239 5.56051 13.9892 5.56051 14.2144 5.78574C14.4396 6.01098 14.4396 6.37617 14.2144 6.6014L6.60155 14.2142ZM12.3071 15.1908C11.1411 15.1908 10.1923 14.2421 10.1923 13.0761C10.1923 11.91 11.1411 10.9613 12.3071 10.9613C13.4732 10.9613 14.4219 11.91 14.4219 13.0761C14.4219 14.2421 13.4732 15.1908 12.3071 15.1908Z" fill="#E75204"/>
</g>
</g>
</svg>
