<svg width="10" height="8" viewBox="0 0 10 8" fill="none" xmlns="http://www.w3.org/2000/svg">
<g id="01 align center">
<path id="Vector" d="M9.92542 3.65875C9.55959 2.85875 8.12501 0.25 5.00001 0.25C1.87501 0.25 0.440424 2.85875 0.0745907 3.65875C0.0254817 3.76596 6.10352e-05 3.8825 6.10352e-05 4.00042C6.10352e-05 4.11834 0.0254817 4.23487 0.0745907 4.34208C0.440424 5.14125 1.87501 7.75 5.00001 7.75C8.12501 7.75 9.55959 5.14125 9.92542 4.34125C9.97444 4.23416 9.9998 4.11777 9.9998 4C9.9998 3.88223 9.97444 3.76584 9.92542 3.65875ZM5.00001 6.91667C2.37209 6.91667 1.14584 4.68083 0.833341 4.00458C1.14584 3.31917 2.37209 1.08333 5.00001 1.08333C7.62167 1.08333 8.84834 3.30958 9.16667 4C8.84834 4.69042 7.62167 6.91667 5.00001 6.91667Z" fill="#627284"/>
<path id="Vector_2" d="M5.00002 1.91667C4.58798 1.91667 4.18519 2.03886 3.84258 2.26778C3.49998 2.4967 3.23295 2.82207 3.07527 3.20275C2.91759 3.58343 2.87633 4.00232 2.95672 4.40644C3.0371 4.81057 3.23552 5.18178 3.52688 5.47314C3.81824 5.7645 4.18946 5.96292 4.59358 6.04331C4.99771 6.12369 5.4166 6.08244 5.79728 5.92475C6.17796 5.76707 6.50333 5.50005 6.73225 5.15744C6.96117 4.81484 7.08335 4.41205 7.08335 4.00001C7.08269 3.44767 6.86299 2.91815 6.47243 2.5276C6.08187 2.13704 5.55235 1.91733 5.00002 1.91667ZM5.00002 5.25001C4.75279 5.25001 4.51112 5.17669 4.30556 5.03934C4.1 4.90199 3.93978 4.70677 3.84517 4.47836C3.75056 4.24995 3.72581 3.99862 3.77404 3.75614C3.82227 3.51367 3.94132 3.29094 4.11614 3.11612C4.29095 2.94131 4.51368 2.82225 4.75616 2.77402C4.99864 2.72579 5.24997 2.75055 5.47838 2.84516C5.70678 2.93977 5.90201 3.09998 6.03936 3.30554C6.17671 3.5111 6.25002 3.75278 6.25002 4.00001C6.25002 4.33153 6.11833 4.64947 5.88391 4.88389C5.64948 5.11831 5.33154 5.25001 5.00002 5.25001Z" fill="#627284"/>
</g>
</svg>
