<svg width="113" height="48" viewBox="0 0 113 48" fill="none" xmlns="http://www.w3.org/2000/svg">
<path fill-rule="evenodd" clip-rule="evenodd" d="M68.6551 35.1977H73.5768C73.8161 35.1977 73.7263 34.7291 73.726 34.5017L73.7259 28.5857L75.9984 31.5332C76.1579 31.7469 76.2949 31.9117 76.453 32.1226L76.9146 32.705C77.1003 32.935 77.2332 33.0624 77.4421 33.2713C78.6591 34.4883 79.8298 35.1099 81.6509 35.3761L83.619 35.5457L84.0455 32.691C84.0982 32.3495 84.1659 32.0157 84.1659 31.668C83.2781 31.6482 81.9028 30.7516 81.2038 30.2055C80.864 29.9399 79.3019 28.2256 79.0454 27.8897L78.0014 26.6966C77.8836 26.5424 77.7548 26.4504 77.6533 26.2988L81.3933 21.5875C81.6287 21.2998 83.5616 18.939 83.619 18.6926L78.6461 18.6911C78.1429 18.6849 78.2092 18.7432 77.9941 19.0335L74.5995 23.5931C74.435 23.8125 73.8772 24.6068 73.7259 24.7081L73.726 13.075C73.7269 12.8255 73.8069 12.4287 73.5768 12.4287H68.6551V35.1977Z" fill="#004A98"/>
<path fill-rule="evenodd" clip-rule="evenodd" d="M0 24.6087C0 25.4828 0.0800389 26.4509 0.219777 27.2226C0.5459 29.0235 1.04588 30.2845 2.10203 31.7037C2.24224 31.8921 2.30267 31.9401 2.44794 32.1036C2.96475 32.6851 2.78262 32.4389 3.16951 32.8237C5.1925 34.8357 9.06737 35.4961 11.8817 35.4961C13.0995 35.4961 14.3307 35.3914 15.4091 35.2452C16.9688 35.0338 17.4893 34.6745 18.4439 34.4521L17.3502 30.5744L15.3548 30.9652C14.9795 31.0293 14.6836 31.0365 14.2759 31.0794C13.8989 31.1191 12.3485 31.2009 11.9601 31.1422C11.5725 31.0837 11.2048 31.1052 10.8153 31.0442C7.11618 30.4639 5.2697 27.9493 5.2697 24.2607C5.2697 22.2074 5.88294 20.5867 6.92265 19.5503C8.22652 18.2505 9.76198 17.7978 11.7325 17.7978C13.1527 17.7978 14.4732 17.934 15.7895 18.2649L17.0022 18.5933L17.6791 16.7347C17.7983 16.3908 18.3389 15.0628 18.3445 14.815C18.1942 14.78 18.1702 14.7487 18.025 14.6871C16.0263 13.8387 13.974 13.5225 11.7325 13.5225C9.35196 13.5225 6.96857 13.9045 4.99679 14.8901C3.69327 15.5417 3.21801 16.0327 2.37376 16.9402C1.72329 17.6393 1.11898 18.7628 0.789043 19.6806C0.302281 21.0348 0 22.7607 0 24.6087Z" fill="#004A98"/>
<path fill-rule="evenodd" clip-rule="evenodd" d="M103.007 2.46225H106.961L106.961 5.81407L110.266 5.81631C110.267 6.4791 110.309 9.34217 110.244 9.77074H106.985L106.997 13.075H103.007V9.79392C102.41 9.79475 100.116 9.83885 99.701 9.76973L99.6766 5.79311H103.005L103.007 2.46225ZM96.9423 2.23713V13.3731C96.9423 14.5793 97.9297 15.6102 99.1298 15.6102H102.212V21.5759C102.381 21.5307 102.401 21.4189 102.5 21.2674L103.839 19.3745C104.035 19.1124 104.176 18.8813 104.371 18.614L106.487 15.6102C107.896 15.6102 109.306 15.6048 110.714 15.6115C112.022 15.6176 113 14.5655 113 13.6714V2.03825C113 1.73862 112.879 1.38273 112.762 1.18222C112.343 0.46176 111.635 0 110.663 0H99.3286C97.9472 0 96.9423 0.972881 96.9423 2.23713Z" fill="#E75204"/>
<path fill-rule="evenodd" clip-rule="evenodd" d="M90.6287 30.2417C90.6287 29.6554 90.626 29.2782 91.2238 28.8482C92.0375 28.2628 93.7513 28.3494 94.8058 28.3537C95.1437 28.355 95.2595 28.3028 95.6001 28.3028V30.888C95.3905 30.8927 95.1002 31.0008 94.8744 31.0571C93.818 31.3203 92.223 31.7105 91.2264 31.1354C90.948 30.9747 90.6287 30.678 90.6287 30.2417ZM86.7013 19.5532C86.7683 19.8408 86.8745 20.1596 86.9502 20.4478C87.0329 20.7632 87.1106 21.0705 87.2044 21.3866C87.289 21.672 87.3683 21.989 87.4467 22.2877C87.4902 22.4536 87.5281 22.5643 87.576 22.755C87.6242 22.9464 87.6808 23.0552 87.6956 23.232C88.8862 22.9546 89.7625 22.7755 90.9974 22.6064C91.4125 22.5495 91.8431 22.5764 92.2483 22.5151C92.758 22.4379 94.0753 22.5484 94.5858 22.7549C95.7529 23.2269 95.6001 24.1627 95.6001 25.3697C92.9742 25.3697 90.0083 25.0847 87.6976 26.4655C86.4522 27.2097 85.82 28.4406 85.7033 29.9396C85.6368 30.7929 85.729 31.5982 85.9736 32.3116C86.2327 33.0674 86.5331 33.4779 87.0361 33.9834C88.0494 35.0016 89.7112 35.3622 91.5235 35.3622C93.0116 35.3622 94.4157 34.6405 95.5902 33.861C95.7733 33.7395 95.9134 33.6202 96.0973 33.5229C96.488 35.2001 100.095 35.3487 101.477 35.2233C102.008 35.1751 101.833 35.3445 101.862 34.3663C101.87 34.1117 101.915 34.0607 101.915 33.7731C101.916 32.9543 102.013 32.1965 102.013 31.3851C101.747 31.3851 101.04 31.2938 100.852 31.2037C100.503 31.0358 100.521 30.6853 100.522 30.1921C100.525 28.8495 100.586 23.0819 100.458 22.2024C100.229 20.6372 99.4822 19.6521 98.2518 19.0392C96.0004 17.918 92.2166 18.0864 89.6962 18.6206C89.1751 18.7311 87.9537 19.0796 87.426 19.2836C87.1658 19.3843 86.9295 19.4437 86.7013 19.5532Z" fill="#004A98"/>
<path fill-rule="evenodd" clip-rule="evenodd" d="M61.4963 24.9068V25.2051H56.1769C56.1769 23.6961 57.046 22.0245 58.7123 21.9233C59.1538 21.8965 59.5254 21.8804 59.9357 22.0428C61.0143 22.47 61.4963 23.6583 61.4963 24.9068ZM51.0066 26.3983C51.0066 28.3372 50.9627 29.5249 51.6598 31.3627C52.9855 34.8583 56.5607 35.5457 59.9551 35.5457C61.1528 35.5457 64.987 35.244 66.1197 34.7005C65.9762 34.0848 65.8717 33.4359 65.7427 32.7906L65.374 30.8725C65.0142 30.8725 64.5297 31.0035 64.217 31.0578C63.8092 31.1287 63.477 31.1798 63.0658 31.249C61.3562 31.5363 58.8677 31.7792 57.3363 30.9559C56.4585 30.484 56.0277 29.7127 56.0277 28.4862H66.5671C66.7923 28.4862 66.7162 28.2312 66.7162 27.6908C66.7162 24.2544 66.3555 20.6789 63.0871 19.0406C60.6821 17.835 56.6129 18.1364 54.3711 19.4719C53.1026 20.2277 52.1232 21.4936 51.6336 22.899C51.3023 23.8502 51.0066 25.1472 51.0066 26.3983Z" fill="#004A98"/>
<path fill-rule="evenodd" clip-rule="evenodd" d="M20.2832 30.0272C20.2832 32.3511 20.8905 34.5219 23.2936 35.2196C25.9221 35.9827 28.3682 35.3506 30.5448 33.9254L31.1209 33.5569C31.1209 33.8552 31.1211 34.1535 31.1209 34.4518C31.1207 34.684 31.0274 35.1975 31.27 35.1975H36.1917V18.6924H31.27C31.0209 18.6924 31.1209 19.5134 31.1209 19.985V30.3255C30.1899 30.8181 26.4146 31.7782 25.6406 30.4864C25.3839 30.0579 25.3044 29.2623 25.3044 28.5855V18.6924H20.2832V30.0272Z" fill="#004A98"/>
<path fill-rule="evenodd" clip-rule="evenodd" d="M44.7427 20.8303V18.6925H39.6719V35.1976H44.5936C44.8308 35.1976 44.7428 34.7947 44.7427 34.3525V25.1554C44.7427 24.8403 44.723 24.4637 44.7388 24.1572C44.7538 23.8664 44.8372 23.8861 45.2248 23.5992C46.557 22.6126 48.5117 22.4605 50.1984 22.7342C50.7404 22.8221 50.5171 23.0792 50.9073 20.7309C50.9641 20.3888 51.0097 20.0623 51.0704 19.7009C51.097 19.5434 51.2053 18.747 51.2553 18.6429C49.4778 18.2287 48.1568 18.0775 46.4825 19.1895C45.6847 19.7193 45.3158 20.1709 44.7427 20.8303Z" fill="#004A98"/>
<path fill-rule="evenodd" clip-rule="evenodd" d="M103.005 5.79326H99.6766L99.701 9.76988C100.116 9.839 102.41 9.79496 103.007 9.79407V13.0752H106.997L106.985 9.77089H110.244C110.309 9.34232 110.267 6.47925 110.266 5.81646L106.961 5.81422L106.961 2.4624H103.007L103.005 5.79326Z" fill="#FEFEFE"/>
<path fill-rule="evenodd" clip-rule="evenodd" d="M97.3898 44.8419C97.3898 44.2677 97.39 43.6487 98.1852 43.6487C99.0326 43.6487 98.9739 45.5876 98.235 45.5876C97.8054 45.5876 97.3898 45.4589 97.3898 44.8419ZM98.2085 47.6258H97.6525C97.3232 47.5899 97.0165 47.4954 96.7932 47.3773C96.8147 47.119 96.9227 46.967 96.9424 46.731C97.1344 46.7757 98.0954 47.314 98.6216 46.6702C98.8038 46.4473 98.7818 46.2181 98.7818 45.8361C98.4147 46.2584 98.1664 46.2338 97.7378 46.2338C96.9943 46.2338 96.4949 45.4534 96.4949 44.643C96.4949 43.8094 97.0556 43.0024 97.8869 43.0024C98.6279 43.0024 98.4046 43.081 98.8812 43.4001C98.8812 42.9879 98.8002 43.0522 99.6269 43.0522V45.8859C99.6269 47.0816 98.9431 47.5398 98.2085 47.6258Z" fill="#231F20"/>
<path fill-rule="evenodd" clip-rule="evenodd" d="M34.8992 44.8419C34.8992 44.2677 34.8995 43.6487 35.6947 43.6487C36.542 43.6487 36.4833 45.5876 35.7444 45.5876C35.3149 45.5876 34.8992 45.4589 34.8992 44.8419ZM35.7078 47.6258H35.1639C34.8363 47.5908 34.5299 47.4975 34.3027 47.3773C34.3242 47.119 34.4321 46.967 34.4518 46.731C34.648 46.7767 34.6978 46.8514 34.9196 46.9095C35.1072 46.9587 35.2356 46.9795 35.4461 46.9795C36.2651 46.9795 36.2913 46.324 36.2913 45.8361C35.7536 46.4547 34.795 46.3387 34.3219 45.7174C34.1354 45.4724 34.0044 45.0554 34.0044 44.643C34.0044 43.8094 34.565 43.0024 35.3964 43.0024C36.1373 43.0024 35.9141 43.081 36.3907 43.4001C36.3907 43.2168 36.3467 43.0522 36.5398 43.0522C37.3592 43.0522 37.1347 42.9354 37.1361 43.6483L37.1367 46.0354C37.083 47.1175 36.419 47.5443 35.7078 47.6258Z" fill="#231F20"/>
<path fill-rule="evenodd" clip-rule="evenodd" d="M43.9968 44.6931C43.9968 43.2304 45.4385 43.5123 45.4385 44.2457C45.4385 45.0268 45.5807 45.6377 44.6432 45.6377C44.235 45.6377 43.9968 45.1254 43.9968 44.6931ZM45.4385 43.3011C44.978 42.9927 45.0648 43.0029 44.4443 43.0029C43.7449 43.0029 43.1517 43.7746 43.1517 44.4943V44.892C43.1517 45.5875 43.7249 46.3337 44.3945 46.3337C44.937 46.3337 45.1528 46.2797 45.538 45.8365C45.543 46.0614 45.5877 46.0341 45.5877 46.284H46.3334V41.6108H45.4385V43.3011Z" fill="#231F20"/>
<path fill-rule="evenodd" clip-rule="evenodd" d="M66.7163 44.9914C66.7163 44.5636 66.6395 43.6492 67.4123 43.6492C68.4321 43.6492 68.4904 45.4473 67.5733 45.6535C67.1264 45.7539 66.7163 45.3777 66.7163 44.9914ZM65.8712 46.284H66.5671L66.6254 45.8877C67.0135 46.1529 66.909 46.3337 67.6609 46.3337C68.1508 46.3337 68.4274 46.1188 68.6677 45.8491C69.4463 44.9752 69.0798 43.0029 67.8597 43.0029C67.3532 43.0029 67.097 43.0122 66.7163 43.4503V41.6108H65.8712V46.284Z" fill="#231F20"/>
<path fill-rule="evenodd" clip-rule="evenodd" d="M54.5365 44.7424C54.5365 43.0728 56.0279 43.4527 56.0279 44.4441C56.0279 44.903 55.9955 45.7954 55.2419 45.725C54.798 45.6835 54.5365 45.2551 54.5365 44.7424ZM53.6416 44.6927C53.6416 46.8603 56.9227 46.9867 56.9227 44.5436C56.9227 43.7476 56.2733 43.0024 55.5307 43.0024C54.9917 43.0024 54.4828 42.9998 54.0527 43.5129C53.8228 43.7872 53.6416 44.2074 53.6416 44.6927Z" fill="#231F20"/>
<path fill-rule="evenodd" clip-rule="evenodd" d="M24.6086 45.7367C23.5623 45.7367 23.5591 43.599 24.5589 43.599C25.3923 43.599 25.5098 44.7533 25.1739 45.3575C25.0768 45.5322 24.8422 45.7367 24.6086 45.7367ZM22.968 44.4939C22.968 45.0201 22.9578 45.4835 23.426 45.925C24.2973 46.7467 26.1994 46.3258 26.1994 44.7921V44.4939C26.1994 43.6938 25.555 43.0024 24.7577 43.0024C24.2635 43.0024 23.782 43.0188 23.3789 43.4631C23.184 43.678 22.968 44.098 22.968 44.4939Z" fill="#231F20"/>
<path fill-rule="evenodd" clip-rule="evenodd" d="M37.9318 44.9417C37.9318 46.4379 39.1423 46.5155 39.7134 46.1765C39.9079 46.0609 39.9213 45.9392 40.1192 45.8863V46.284H40.8649V43.2018C40.8649 42.9809 40.6329 43.0526 40.1192 43.0526C39.8892 43.0526 39.9692 43.4494 39.97 43.6988C39.971 43.9953 40.0053 45.0943 39.9246 45.294C39.7588 45.7046 39.0633 45.7998 38.8732 45.3425C38.7167 44.9659 38.7769 43.5502 38.7769 43.0526H37.9318V44.9417Z" fill="#231F20"/>
<path fill-rule="evenodd" clip-rule="evenodd" d="M93.7109 43.4996C93.7109 42.9824 93.8383 43.0522 92.9652 43.0522V46.2836H93.8103V44.3945C93.8103 43.5123 95.0532 43.3975 95.0532 44.3945V46.2836H95.8983V44.3448C95.8983 43.6479 95.5288 43.0025 94.8543 43.0025C94.5062 43.0025 94.3912 42.9836 94.0778 43.1705C93.8289 43.3189 93.8665 43.3856 93.7109 43.4996Z" fill="#231F20"/>
<path fill-rule="evenodd" clip-rule="evenodd" d="M26.7956 43.2018C26.7956 44.6492 26.5281 46.3338 27.9887 46.3338C28.6338 46.3338 28.6397 46.0665 28.983 45.8366C28.983 46.3538 28.8556 46.284 29.7287 46.284V43.0526H28.8836V44.9418C28.8836 45.3852 28.6226 45.6377 28.1876 45.6377C27.4399 45.6377 27.6407 43.9516 27.6407 43.0526C27.075 43.0526 26.7956 42.9724 26.7956 43.2018Z" fill="#231F20"/>
<path fill-rule="evenodd" clip-rule="evenodd" d="M62.2916 45.7368C61.6325 45.7368 61.6643 44.7425 62.5402 44.7425H62.8882C62.8882 45.0191 62.9538 45.7368 62.2916 45.7368ZM61.2476 43.2511C61.2528 43.4818 61.3292 43.5835 61.347 43.798C61.5554 43.7806 62.8075 43.1761 62.8882 44.1459C60.2511 44.1459 60.8092 46.3334 61.8939 46.3334C62.4615 46.3334 62.465 46.302 62.9379 45.9854C63.0061 46.1067 62.9876 46.0773 62.9876 46.2836H63.7831C63.5826 45.4235 64.0145 44.1089 63.4164 43.3691C62.9651 42.8109 61.7942 42.9618 61.2476 43.2511Z" fill="#231F20"/>
<path fill-rule="evenodd" clip-rule="evenodd" d="M48.3221 43.599C48.7785 43.599 49.0678 43.659 49.0678 44.295H47.7255C47.811 44.1168 47.7771 44.022 47.914 43.8372C48.0043 43.7156 48.1252 43.599 48.3221 43.599ZM46.9301 44.5933V44.8419C46.9301 45.6982 47.6147 46.3333 48.4712 46.3333C49.3667 46.3333 49.0472 46.2898 49.7141 46.1344C49.6964 45.9222 49.6197 45.765 49.6147 45.5379C49.1519 45.6456 48.4899 45.8401 48.0203 45.4916C47.8158 45.34 47.7901 45.1689 47.7255 44.8916H49.8632C49.8797 44.6941 49.913 44.7718 49.913 44.643C49.913 43.7906 49.4682 43.0024 48.6203 43.0024H48.3718C47.5627 43.0024 46.9301 43.7832 46.9301 44.5933Z" fill="#231F20"/>
<path fill-rule="evenodd" clip-rule="evenodd" d="M78.7967 43.5991C79.2532 43.5991 79.5424 43.6591 79.5424 44.295H78.2002C78.2857 44.1168 78.2517 44.0221 78.3886 43.8373C78.4789 43.7156 78.5998 43.5991 78.7967 43.5991ZM77.4047 44.5933V44.8419C77.4047 46.1256 78.6514 46.5053 79.7301 46.2724C79.9006 46.2356 80.0359 46.17 80.1887 46.1345C80.1773 45.9972 80.0865 45.6357 80.0395 45.5379C79.6211 45.7387 78.2859 45.9226 78.2002 44.8916H80.3378C80.346 44.5258 80.4252 44.1064 80.1303 43.6077C79.4681 42.4878 77.4047 42.9485 77.4047 44.5933Z" fill="#231F20"/>
<path fill-rule="evenodd" clip-rule="evenodd" d="M70.8921 43.599H71.1407C71.4158 43.599 71.6378 43.8857 71.6378 44.1458V44.295H70.2956C70.3657 43.994 70.5333 43.599 70.8921 43.599ZM69.5002 44.5933V44.8419C69.5002 45.9146 70.3126 46.3333 71.3396 46.3333C71.7727 46.3333 71.9531 46.2116 72.2841 46.1344C72.2425 45.9556 72.2045 45.6825 72.135 45.5379C71.7347 45.7299 70.3827 45.9385 70.2956 44.8916H72.4333L72.4531 44.4694C72.4043 43.7355 72.0216 43.0024 71.2402 43.0024H70.8425C70.1205 43.0024 69.5002 43.8443 69.5002 44.5933Z" fill="#231F20"/>
<path fill-rule="evenodd" clip-rule="evenodd" d="M21.029 44.4941V46.2838H21.8742V44.5439C21.8742 44.2013 23.2835 42.1986 23.3158 41.8096H22.421L21.5591 43.6819C21.5021 43.7839 21.5233 43.7443 21.4765 43.7981L20.8309 42.306C20.75 42.1417 20.6668 41.9706 20.5816 41.8096H19.6867C19.7081 42.0657 19.8888 42.2892 20.001 42.4896C20.1305 42.7212 20.2207 42.9065 20.3489 43.1359C20.4174 43.2584 20.4475 43.3436 20.516 43.466C20.6354 43.6798 21.029 44.3116 21.029 44.4941Z" fill="#231F20"/>
<path fill-rule="evenodd" clip-rule="evenodd" d="M51.9511 42.8038V43.0524H51.5037V43.6986H51.9511V46.2838H52.7962V43.6986C53.6025 43.6986 53.4922 43.7989 53.4922 43.2015C53.4922 42.985 53.2816 43.0524 52.7962 43.0524C52.7962 42.0287 53.0988 42.2118 53.6414 42.2569C53.6867 41.7116 53.8774 41.5112 53.194 41.5112C52.4841 41.5112 51.9511 42.045 51.9511 42.8038Z" fill="#231F20"/>
<path fill-rule="evenodd" clip-rule="evenodd" d="M88.839 46.2836H89.6344L90.2367 44.6986C90.3492 44.3879 90.8071 43.2978 90.8275 43.0522H89.9824L89.429 44.7857C89.4019 44.8737 89.369 45.0159 89.3477 45.1021L89.2367 45.3888C89.2 44.948 88.6717 43.6145 88.5407 43.0522H87.6458C87.663 43.2579 87.8506 43.643 87.9258 43.8659L88.839 46.2836Z" fill="#231F20"/>
<path fill-rule="evenodd" clip-rule="evenodd" d="M73.1791 42.4557V43.0523H72.7316V43.6985H73.1791C73.1791 44.8071 72.9408 46.3334 74.0739 46.3334C74.8739 46.3334 74.7699 46.3459 74.7699 45.6374C73.8966 45.6374 74.0242 45.7162 74.0242 43.6985H74.7699V43.0523H74.0242V42.2568C73.7146 42.2637 73.4718 42.4313 73.1791 42.4557Z" fill="#231F20"/>
<path fill-rule="evenodd" clip-rule="evenodd" d="M75.466 42.4557V43.0523H75.0186V43.6985H75.466C75.466 44.7962 75.2333 46.3334 76.3608 46.3334C77.1609 46.3334 77.0568 46.3459 77.0568 45.6374C76.1835 45.6374 76.3111 45.7162 76.3111 43.6985H77.0568V43.0523H76.3111V42.2568C76.0014 42.2637 75.7587 42.4313 75.466 42.4557Z" fill="#231F20"/>
<path fill-rule="evenodd" clip-rule="evenodd" d="M84.6133 46.1348C84.6133 46.3557 84.8453 46.284 85.359 46.284C85.4735 46.284 85.5081 46.2494 85.5081 46.1348V41.6108H84.6133V46.1348Z" fill="#231F20"/>
<path fill-rule="evenodd" clip-rule="evenodd" d="M31.27 43.5993C31.27 42.9724 31.409 43.0525 30.5243 43.0525V46.1347C30.5243 46.364 30.8037 46.2838 31.3694 46.2838C31.3694 45.5023 31.1735 43.7982 31.966 43.7982H32.3637V43.0027C31.8948 43.0027 31.6959 42.9744 31.3517 43.4821C31.3435 43.4941 31.319 43.5314 31.3119 43.5417C31.3067 43.5491 31.2952 43.5646 31.291 43.5706C31.2869 43.5766 31.2777 43.5904 31.27 43.5993Z" fill="#231F20"/>
<path fill-rule="evenodd" clip-rule="evenodd" d="M58.2649 43.5994C58.2649 42.9726 58.4039 43.0526 57.5192 43.0526V46.1348C57.5192 46.3641 57.7987 46.284 58.3643 46.284C58.3643 45.4628 58.1649 43.7983 58.9609 43.7983H59.3586V43.0029C58.9872 43.0029 58.8444 42.9592 58.5736 43.2121L58.2649 43.5994Z" fill="#231F20"/>
<path fill-rule="evenodd" clip-rule="evenodd" d="M81.6802 43.5493V43.0522H80.9344C80.9344 43.4635 80.9842 43.6752 80.9842 44.0962V46.2836C82.0309 46.2836 81.8359 46.5394 81.8292 44.8417C81.8281 44.5602 81.8123 44.3283 81.911 44.1281C82.0964 43.752 82.4612 43.7979 82.7739 43.7979V43.0024C81.8153 43.0024 82.0776 43.2832 81.6802 43.5493Z" fill="#231F20"/>
<path fill-rule="evenodd" clip-rule="evenodd" d="M91.3247 46.284C91.8904 46.284 92.1698 46.3642 92.1698 46.1349V43.2018C92.1698 42.9724 91.8904 43.0526 91.3247 43.0526V46.284Z" fill="#231F20"/>
<path fill-rule="evenodd" clip-rule="evenodd" d="M86.3035 46.2836H87.1487V43.0522H86.3035V46.2836Z" fill="#231F20"/>
<path fill-rule="evenodd" clip-rule="evenodd" d="M41.6603 46.2836H42.5055V43.0522H41.6603V46.2836Z" fill="#231F20"/>
<path fill-rule="evenodd" clip-rule="evenodd" d="M100.671 44.9414H101.168C101.168 44.6478 101.22 44.4925 101.218 44.1463C101.217 43.8602 101.206 43.5947 101.247 43.3295C101.308 42.9221 101.231 42.5301 101.294 42.0734C101.341 41.7365 101.333 41.8094 100.422 41.8094C100.422 42.0905 100.417 42.3761 100.42 42.6565L100.514 44.2527C100.544 44.5181 100.423 44.9414 100.671 44.9414Z" fill="#231F20"/>
<path fill-rule="evenodd" clip-rule="evenodd" d="M100.323 45.7866C100.323 46.4721 101.367 46.5715 101.367 45.7866C101.367 45.0896 100.323 45.1658 100.323 45.7866Z" fill="#231F20"/>
<path fill-rule="evenodd" clip-rule="evenodd" d="M41.6107 42.1573C41.6107 42.7547 42.5552 42.8659 42.5552 42.1573C42.5552 41.501 41.6107 41.6655 41.6107 42.1573Z" fill="#231F20"/>
<path fill-rule="evenodd" clip-rule="evenodd" d="M86.751 42.6545C87.3444 42.6545 87.3444 41.71 86.751 41.71C86.1274 41.71 86.1254 42.6545 86.751 42.6545Z" fill="#231F20"/>
<path fill-rule="evenodd" clip-rule="evenodd" d="M91.275 42.1573C91.275 42.8731 92.1796 42.7285 92.2065 42.2013C92.2358 41.6259 91.275 41.5171 91.275 42.1573Z" fill="#231F20"/>
</svg>
