<svg width="10" height="10" viewBox="0 0 10 10" fill="none" xmlns="http://www.w3.org/2000/svg">
<g id="eye (2) 2" clip-path="url(#clip0_820_296)">
<path id="Vector" d="M7.29167 0.798752C6.82248 0.80605 6.36353 0.937024 5.96115 1.17845C5.55878 1.41987 5.22724 1.7632 5 2.17375C4.77277 1.7632 4.44123 1.41987 4.03885 1.17845C3.63648 0.937024 3.17752 0.80605 2.70834 0.798752C1.96039 0.831248 1.25571 1.15844 0.748246 1.70885C0.240778 2.25926 -0.0282264 2.98814 2.96603e-06 3.73625C2.96603e-06 5.63084 1.99417 7.7 3.66667 9.10292C4.04009 9.41672 4.51223 9.58876 5 9.58876C5.48777 9.58876 5.95991 9.41672 6.33334 9.10292C8.00584 7.7 10 5.63084 10 3.73625C10.0282 2.98814 9.75923 2.25926 9.25176 1.70885C8.74429 1.15844 8.03961 0.831248 7.29167 0.798752ZM5.79792 8.46542C5.57458 8.65349 5.29198 8.75663 5 8.75663C4.70802 8.75663 4.42543 8.65349 4.20209 8.46542C2.06125 6.66917 0.833336 4.94584 0.833336 3.73625C0.804853 3.20905 0.985989 2.69197 1.33724 2.29779C1.68849 1.90361 2.18135 1.66431 2.70834 1.63209C3.23532 1.66431 3.72819 1.90361 4.07943 2.29779C4.43068 2.69197 4.61182 3.20905 4.58334 3.73625C4.58334 3.84676 4.62723 3.95274 4.70538 4.03088C4.78351 4.10902 4.8895 4.15292 5 4.15292C5.11051 4.15292 5.21649 4.10902 5.29463 4.03088C5.37277 3.95274 5.41667 3.84676 5.41667 3.73625C5.38819 3.20905 5.56932 2.69197 5.92057 2.29779C6.27182 1.90361 6.76468 1.66431 7.29167 1.63209C7.81866 1.66431 8.31152 1.90361 8.66277 2.29779C9.01402 2.69197 9.19515 3.20905 9.16667 3.73625C9.16667 4.94584 7.93875 6.66917 5.79792 8.46375V8.46542Z" fill="#627284"/>
</g>
<defs>
<clipPath id="clip0_820_296">
<rect width="10" height="10" fill="white"/>
</clipPath>
</defs>
</svg>
