<svg width="14" height="14" viewBox="0 0 14 14" fill="none" xmlns="http://www.w3.org/2000/svg">
<path d="M12.6001 12.5999V8.49789C12.6001 6.48189 12.1661 4.94189 9.81406 4.94189C8.68006 4.94189 7.92406 5.55789 7.61606 6.14589H7.58806V5.12389H5.36206V12.5999H7.68606V8.88989C7.68606 7.90989 7.86806 6.97189 9.07206 6.97189C10.2621 6.97189 10.2761 8.07789 10.2761 8.94589V12.5859H12.6001V12.5999Z" fill="white"/>
<path d="M1.58203 5.12402H3.90603V12.6H1.58203V5.12402Z" fill="white"/>
<path d="M2.74402 1.3999C2.00202 1.3999 1.40002 2.0019 1.40002 2.7439C1.40002 3.4859 2.00202 4.1019 2.74402 4.1019C3.48602 4.1019 4.08802 3.4859 4.08802 2.7439C4.08802 2.0019 3.48602 1.3999 2.74402 1.3999Z" fill="white"/>
</svg>
