<svg width="300" height="144" viewBox="0 0 300 144" fill="none" xmlns="http://www.w3.org/2000/svg">
<path fill-rule="evenodd" clip-rule="evenodd" d="M149.648 125.335C162.256 136.953 179.191 143.999 197.608 143.999C237.16 143.999 269.175 111.739 269.175 72.0599C269.175 32.2606 237.16 0 197.608 0C179.191 0 162.257 7.04486 149.648 18.6642C135.187 31.8887 126.04 50.9253 126.04 72.0599C126.04 93.1967 135.188 112.234 149.648 125.335Z" fill="#FAB31E"/>
<path fill-rule="evenodd" clip-rule="evenodd" d="M172.764 64.3974C172.517 61.8017 172.023 59.3296 171.526 56.734H127.772C128.266 54.1383 129.006 51.6657 129.748 49.1936H169.427C168.559 46.5996 167.571 44.0028 166.458 41.5307H132.839C134.075 38.9367 135.434 36.3399 136.918 33.8678H162.257C160.649 31.2722 158.796 28.6759 156.817 26.328H142.355C144.58 23.6093 147.053 21.0136 149.647 18.6651C136.918 7.16944 120.107 0.000976562 101.567 0.000976562C62.1375 0.000976562 30 32.2616 30 72.0608C30 111.74 62.1375 144 101.567 144C120.107 144 136.918 136.954 149.647 125.336C152.245 122.986 154.593 120.514 156.817 117.795H142.355C140.378 115.323 138.647 112.851 136.917 110.132H162.256C163.862 107.66 165.222 105.188 166.457 102.468H132.838C131.724 99.9969 130.613 97.5243 129.747 94.9275H169.426C170.291 92.456 170.908 89.8609 171.526 87.2646C172.022 84.7931 172.516 82.1958 172.763 79.6012C173.01 77.1292 173.134 74.6576 173.134 72.0603C173.135 69.4657 173.011 66.8695 172.764 64.3974Z" fill="#E40520"/>
<path fill-rule="evenodd" clip-rule="evenodd" d="M259.656 88.7472C259.656 87.3892 260.644 86.4004 261.881 86.4004C263.24 86.4004 264.229 87.3887 264.229 88.7472C264.229 89.9832 263.24 91.0973 261.881 91.0973C260.645 91.0973 259.656 89.9832 259.656 88.7472ZM261.881 90.4771C262.869 90.4771 263.735 89.736 263.735 88.7472C263.735 87.7578 262.869 87.0162 261.881 87.0162C261.016 87.0162 260.151 87.7578 260.151 88.7472C260.151 89.736 261.016 90.4771 261.881 90.4771ZM261.634 89.736H261.139V87.7573H262.005H262.499C262.746 87.8831 262.746 88.1303 262.746 88.3769C262.746 88.5 262.623 88.7466 262.376 88.8719L262.87 89.736H262.252L262.005 88.9944H261.634V89.736V88.6247H261.882C262.005 88.6247 262.13 88.6247 262.13 88.5C262.252 88.5 262.252 88.3769 262.252 88.2533C262.252 88.2533 262.252 88.1303 262.13 88.1303C262.13 88.0045 262.005 88.1303 261.882 88.1303H261.634V88.6247V89.736H261.634Z" fill="white"/>
<path fill-rule="evenodd" clip-rule="evenodd" d="M125.299 92.827C122.951 93.4439 121.221 93.8152 119.49 93.8152C115.781 93.8152 113.556 91.4657 113.556 87.2637C113.556 86.4001 113.68 85.5332 113.803 84.5444L114.298 81.7004L114.669 79.3536L118.006 59.082H125.423L124.556 63.5318H129.254L128.142 70.9485H123.446L121.468 83.0612C121.343 83.6808 121.343 84.0494 121.343 84.2972C121.343 85.9063 122.084 86.5221 123.94 86.5221C124.804 86.5221 125.545 86.4001 126.287 86.2749L125.299 92.827Z" fill="#06326E"/>
<path fill-rule="evenodd" clip-rule="evenodd" d="M149.279 92.5806C146.56 93.3222 144.089 93.6919 141.367 93.6919C132.963 93.6919 128.143 89.2422 128.143 80.4652C128.143 70.2078 133.828 62.791 141.738 62.791C148.043 62.791 152.121 66.9947 152.121 73.544C152.121 75.7683 151.874 77.8712 151.256 80.8372H135.805C135.681 81.3321 135.681 81.5793 135.681 81.826C135.681 85.2869 138.03 87.0162 142.479 87.0162C145.323 87.0162 147.795 86.401 150.514 85.1644L149.279 92.5806ZM144.704 74.9047C144.704 74.2862 144.704 73.7912 144.704 73.4215C144.704 70.95 143.347 69.5892 140.997 69.5892C138.525 69.5892 136.794 71.4444 136.053 74.9047H144.704Z" fill="#06326E"/>
<path fill-rule="evenodd" clip-rule="evenodd" d="M65.9693 93.1969H58.3059L62.7556 65.1389L52.7437 93.1969H47.4288L46.8102 65.2636L42.1138 93.1969H34.574L40.6306 56.7344H51.8791L52.1257 79.2291L59.665 56.7344H72.0253L65.9693 93.1969Z" fill="#06326E"/>
<path fill-rule="evenodd" clip-rule="evenodd" d="M84.6339 79.9703C83.8917 79.8483 83.6451 79.8483 83.1506 79.8483C78.6998 79.8483 76.4755 81.5788 76.4755 84.2975C76.4755 86.1532 77.5879 87.3893 79.3184 87.3893C83.0265 87.3898 84.5103 84.2981 84.6339 79.9703ZM90.8135 93.197H84.1395L84.2631 90.108C82.5321 92.4554 80.1836 93.6919 76.1052 93.6919C72.3966 93.6919 69.1829 90.3563 69.1829 85.5341C69.1829 84.1767 69.4312 82.9407 69.8003 81.7013C71.0364 77.129 75.6103 74.2862 82.6562 74.1637C83.5203 74.1637 84.88 74.1637 86.1166 74.2862C86.3638 73.2973 86.3638 72.9276 86.3638 72.3079C86.3638 70.3303 84.7569 69.7145 81.1719 69.7145C78.947 69.7145 76.4749 70.0831 74.7445 70.7028L73.6332 70.9494L73.1387 71.0719L74.2506 64.3979C77.8351 63.2871 80.4314 62.791 83.2742 62.791C89.9483 62.791 93.5328 65.8811 93.5328 71.5663C93.5328 73.0496 93.6564 74.1637 93.162 77.3768L91.4315 88.0062L91.1843 89.8613L91.0607 91.3451L90.9371 92.3334L90.8135 93.197Z" fill="#06326E"/>
<path fill-rule="evenodd" clip-rule="evenodd" d="M186.606 63.7804C188.831 63.7804 190.809 64.3973 193.527 65.7581L194.888 57.8463C194.147 57.4755 193.899 57.4755 192.91 57.1053L189.819 56.2395C188.831 55.9923 187.595 55.8687 186.234 55.8687C182.403 55.8687 180.179 55.9923 177.831 57.3525C176.595 58.2177 174.988 59.3296 173.257 61.3078L172.268 61.0606L164.357 66.6222L164.728 63.5326H156.571L151.751 93.197H159.537L162.38 77.2515C162.38 77.2515 163.492 75.0267 163.986 74.2856C165.469 72.4327 166.705 72.4327 168.313 72.4327H168.932C168.683 74.1631 168.559 76.0155 168.559 78.1184C168.559 87.7579 173.999 93.8156 182.403 93.8156C184.505 93.8156 186.359 93.5689 189.202 92.8273L190.561 84.4228C188.089 85.7807 185.863 86.401 184.01 86.401C179.437 86.401 176.718 82.9401 176.718 77.4988C176.719 69.4656 180.798 63.7804 186.606 63.7804Z" fill="#06326E"/>
<path fill-rule="evenodd" clip-rule="evenodd" d="M252.241 56.7344L250.511 67.1166C248.656 64.2754 246.432 62.9141 243.466 62.9141C239.385 62.9141 235.554 65.2637 233.206 69.7139V69.5887L228.261 66.6216L228.756 63.5321H220.475L215.778 93.1964H223.442L226.037 77.251C226.037 77.251 228.014 75.0261 228.509 74.2851C229.745 72.8024 230.981 72.554 231.97 72.4321C231.104 74.9036 230.611 77.8712 230.611 81.2063C230.611 88.6248 234.442 93.5684 240.129 93.5684C242.971 93.5684 245.196 92.5801 247.297 90.2299L246.927 93.1964H254.219L260.151 56.7339L252.241 56.7344ZM242.724 86.1538C240.128 86.1538 238.768 84.1761 238.768 80.3428C238.768 74.5323 241.239 70.3303 244.824 70.3303C247.545 70.3303 248.904 72.4327 248.904 76.1413C248.904 82.0738 246.432 86.1538 242.724 86.1538Z" fill="#06326E"/>
<path fill-rule="evenodd" clip-rule="evenodd" d="M207.002 79.9703C206.26 79.8483 206.012 79.8483 205.518 79.8483C201.069 79.8483 198.844 81.5788 198.844 84.2975C198.844 86.1532 199.957 87.3893 201.687 87.3893C205.394 87.3898 206.878 84.2981 207.002 79.9703ZM213.181 93.197H206.383L206.631 90.108C204.9 92.4554 202.552 93.6919 198.474 93.6919C194.642 93.6919 191.303 90.4783 191.303 85.5341C191.303 78.4881 196.62 74.1637 205.024 74.1637C205.889 74.1637 207.249 74.1637 208.361 74.2862C208.608 73.2973 208.732 72.9276 208.732 72.3079C208.732 70.3303 207.126 69.7145 203.417 69.7145C201.316 69.7145 198.72 70.0831 196.991 70.7028L196.002 70.9494L195.507 71.0719L196.62 64.3979C200.204 63.2871 202.799 62.791 205.642 62.791C212.316 62.791 215.778 65.8811 215.778 71.5663C215.778 73.0496 216.024 74.1637 215.406 77.3768L213.799 88.0062L213.552 89.8613L213.305 91.3451L213.181 92.3334V93.197Z" fill="#06326E"/>
<path fill-rule="evenodd" clip-rule="evenodd" d="M107.006 69.8359C108.489 69.8359 110.59 69.9611 112.815 70.3303L113.927 63.409C111.703 63.1624 108.736 62.791 107.006 62.791C98.3534 62.791 95.5099 67.4891 95.5099 72.9271C95.5099 76.511 97.1179 79.1073 101.32 81.0849C104.409 82.5676 104.904 82.8148 104.904 84.1761C104.904 86.0291 103.298 87.1426 100.331 87.1426C97.9826 87.1426 95.7583 86.7701 93.2856 85.9066L92.4204 92.7026L92.544 92.8273L94.0273 93.0745C94.5211 93.197 95.1408 93.3217 96.0055 93.4442C97.8595 93.5689 99.4664 93.6914 100.455 93.6914C109.107 93.6914 112.692 90.3558 112.692 83.8031C112.692 79.7225 110.714 77.251 106.882 75.5205C103.545 74.0378 103.174 73.7906 103.174 72.4321C103.174 71.0719 104.657 69.8359 107.006 69.8359Z" fill="#06326E"/>
<path fill-rule="evenodd" clip-rule="evenodd" d="M196.991 55.499L195.631 63.4091C192.91 62.05 190.933 61.4314 188.708 61.4314C182.899 61.4314 178.82 67.1172 178.82 75.1526C178.82 80.713 181.539 84.0509 186.112 84.0509C187.966 84.0509 190.191 83.4351 192.663 82.1957L191.304 90.4783C188.461 91.2199 186.607 91.5918 184.506 91.5918C176.101 91.5918 170.909 85.5342 170.909 75.7689C170.909 62.7911 178.079 53.6455 188.338 53.6455C189.697 53.6455 190.933 53.7691 191.923 54.0163L195.013 54.7579C196.002 55.1282 196.248 55.2518 196.991 55.499Z" fill="white"/>
<path fill-rule="evenodd" clip-rule="evenodd" d="M172.023 60.937C171.776 60.937 171.526 60.937 171.281 60.937C168.683 60.937 167.201 62.1731 164.852 65.7587L165.593 61.1842H158.55L153.729 90.8502H161.515C164.358 72.6799 165.099 69.5887 168.808 69.5887H169.302C170.044 66.0053 171.032 63.4085 172.27 61.0601L172.023 60.937Z" fill="white"/>
<path fill-rule="evenodd" clip-rule="evenodd" d="M127.276 90.4777C125.177 91.2193 123.447 91.466 121.716 91.466C117.76 91.466 115.534 89.2417 115.534 84.9172C115.534 84.1756 115.658 83.184 115.782 82.3204L116.277 79.3539L116.647 77.0038L119.986 56.7339H127.649L126.782 61.1836H130.737L129.749 68.4774H125.794L123.694 80.8366C123.569 81.3316 123.569 81.7007 123.569 82.0732C123.569 83.5565 124.311 84.1756 126.166 84.1756C127.03 84.1756 127.773 84.1756 128.267 83.9284L127.276 90.4777Z" fill="white"/>
<path fill-rule="evenodd" clip-rule="evenodd" d="M97.4888 70.5774C97.4888 74.2855 99.2187 76.8818 103.298 78.86C106.512 80.3427 107.006 80.8371 107.006 82.0731C107.006 83.9283 105.647 84.7924 102.557 84.7924C100.208 84.7924 98.1069 84.4227 95.6348 83.6816L94.5212 90.4776L94.8926 90.6029L96.2528 90.8501C96.7467 90.972 97.3652 91.0973 98.3541 91.0973C100.085 91.3439 101.567 91.3439 102.557 91.3439C110.714 91.3439 114.546 88.2533 114.546 81.4556C114.546 77.3756 112.939 75.026 109.108 73.1736C105.77 71.6909 105.399 71.3179 105.399 69.9605C105.399 68.3525 106.759 67.6103 109.231 67.6103C110.714 67.6103 112.816 67.7356 114.793 67.9828L115.905 61.1835C113.928 60.8127 110.838 60.5649 109.108 60.5649C100.455 60.5655 97.3652 65.1388 97.4888 70.5774Z" fill="white"/>
<path fill-rule="evenodd" clip-rule="evenodd" d="M256.196 90.8501H248.904L249.274 88.0055C247.173 90.2304 244.948 91.2192 242.106 91.2192C236.418 91.2192 232.711 86.4009 232.711 78.9819C232.711 69.0947 238.521 60.6897 245.319 60.6897C248.409 60.6897 250.634 62.0493 252.735 64.7697L254.466 54.3848H262.13L256.196 90.8501ZM244.824 83.9288C248.409 83.9288 250.882 79.723 250.882 73.9169C250.882 70.083 249.521 68.1059 246.803 68.1059C243.342 68.1059 240.745 72.1854 240.745 77.9936C240.745 81.9506 242.106 83.9288 244.824 83.9288Z" fill="white"/>
<path fill-rule="evenodd" clip-rule="evenodd" d="M151.009 90.2304C148.291 91.0979 145.819 91.4664 142.974 91.4664C134.323 91.4664 129.873 86.8948 129.873 78.1183C129.873 67.9834 135.558 60.4419 143.347 60.4419C149.773 60.4419 153.852 64.6444 153.852 71.196C153.852 73.4208 153.604 75.521 152.863 78.6128H137.536C137.412 78.9813 137.412 79.2285 137.412 79.4758C137.412 82.94 139.761 84.6699 144.211 84.6699C147.054 84.6699 149.526 84.1755 152.246 82.8147L151.009 90.2304ZM146.682 72.5545C146.682 71.9382 146.682 71.4443 146.682 71.0718C146.682 68.5997 145.324 67.2407 142.974 67.2407C140.502 67.2407 138.772 69.0953 138.03 72.5545H146.682Z" fill="white"/>
<path fill-rule="evenodd" clip-rule="evenodd" d="M67.9469 90.8501H60.284L64.7332 62.7909L54.7213 90.8501H49.4058L48.7883 63.0376L44.0908 90.8501H36.9224L42.9789 54.3848H54.1033L54.4741 77.0042L61.8898 54.3848H74.0035L67.9469 90.8501Z" fill="white"/>
<path fill-rule="evenodd" clip-rule="evenodd" d="M87.1054 77.6239C86.3638 77.6239 85.993 77.4981 85.3755 77.4981C81.0488 77.4981 78.8239 79.1066 78.8239 82.0731C78.8239 83.9283 79.8128 85.0396 81.5432 85.0396C84.7575 85.0402 86.9823 82.0737 87.1054 77.6239ZM92.7912 90.8501H86.3638L86.4874 87.7578C84.5097 90.2298 81.9135 91.3439 78.3295 91.3439C74.1276 91.3439 71.2847 88.1308 71.2847 83.308C71.2847 76.0143 76.2283 71.8129 84.88 71.8129C85.7452 71.8129 86.8587 71.9376 88.0942 72.0595C88.3414 71.0713 88.3414 70.7021 88.3414 70.2071C88.3414 68.23 86.9823 67.4884 83.3973 67.4884C81.1724 67.4884 78.7003 67.7356 76.9704 68.23L75.858 68.5992L75.1164 68.7239L76.2288 62.0493C80.06 60.9363 82.6568 60.5649 85.4991 60.5649C92.1731 60.5649 95.7582 63.532 95.7582 69.2183C95.7582 70.7016 95.6346 71.8123 95.1407 75.1507L93.4092 85.6582L93.162 87.5105L93.0384 88.9938L92.9153 90.1068L92.7912 90.8501Z" fill="white"/>
<path fill-rule="evenodd" clip-rule="evenodd" d="M209.474 77.6239C208.608 77.6239 208.238 77.4981 207.743 77.4981C203.294 77.4981 201.069 79.1066 201.069 82.0731C201.069 83.9283 202.182 85.0396 203.912 85.0396C207.002 85.0402 209.35 82.0737 209.474 77.6239ZM215.158 90.8501H208.732L208.855 87.7578C206.878 90.2298 204.282 91.3439 200.698 91.3439C196.496 91.3439 193.654 88.1308 193.654 83.308C193.654 76.0143 198.597 71.8129 207.249 71.8129C208.114 71.8129 209.227 71.9376 210.34 72.0595C210.586 71.0713 210.71 70.7021 210.71 70.2071C210.71 68.23 209.351 67.4884 205.766 67.4884C203.541 67.4884 200.946 67.7356 199.215 68.23L198.226 68.5992L197.485 68.7239L198.597 62.0493C202.429 60.9363 205.024 60.5649 207.866 60.5649C214.541 60.5649 218.003 63.532 218.003 69.2183C218.003 70.7016 218.003 71.8123 217.383 75.1507L215.778 85.6582L215.53 87.5105L215.283 88.9938L215.159 90.1068V90.8501H215.158Z" fill="white"/>
<path fill-rule="evenodd" clip-rule="evenodd" d="M235.924 60.937C235.677 60.937 235.429 60.937 235.183 60.937C232.587 60.937 231.104 62.1731 228.755 65.7587L229.496 61.1842H222.453L217.755 90.8502H225.419C228.262 72.6799 229.003 69.5887 232.711 69.5887H233.206C233.947 66.0053 234.936 63.4085 236.172 61.0601L235.924 60.937Z" fill="white"/>
</svg>
