<svg width="300" height="144" viewBox="0 0 300 144" fill="none" xmlns="http://www.w3.org/2000/svg">
<path fill-rule="evenodd" clip-rule="evenodd" d="M121.237 24.6795L105.968 118.515H130.397L145.667 24.6795H121.237ZM85.4147 24.6795L62.1237 89.2187L59.3687 75.3212L59.3706 75.3257L58.7635 72.2108C55.9447 66.1359 49.4163 54.59 37.0889 44.7365C33.4443 41.824 29.7705 39.3383 26.219 37.2151L47.3868 118.515H72.8394L111.707 24.6795H85.4147ZM180.755 50.7301C180.755 40.1211 204.547 41.4843 215.001 47.2449L218.487 27.0916C218.487 27.0916 207.728 23 196.514 23C184.39 23 155.601 28.3019 155.601 54.0636C155.601 78.3085 189.391 78.6098 189.391 91.3387C189.391 104.068 159.085 101.793 149.084 93.7632L145.449 114.828C145.449 114.828 156.357 120.13 173.027 120.13C189.695 120.13 214.849 111.495 214.849 88.0052C214.849 63.6086 180.755 61.3364 180.755 50.7301ZM280.442 24.6795H260.801C251.731 24.6795 249.523 31.6725 249.523 31.6725L213.092 118.515H238.554L243.648 104.578H274.704L277.569 118.515H300L280.442 24.6795ZM250.688 85.3217L263.524 50.2062L270.746 85.3217H250.688Z" fill="#005BAC"/>
<path fill-rule="evenodd" clip-rule="evenodd" d="M51.485 33.5142C51.485 33.5142 50.4738 25.0454 39.6788 25.0454H0.459391L0 26.637C0 26.637 18.852 30.48 36.938 44.878C54.2218 58.6389 59.8601 75.7925 59.8601 75.7925L51.485 33.5142Z" fill="#F6AC1D"/>
</svg>
