<svg width="12" height="12" viewBox="0 0 12 12" fill="none" xmlns="http://www.w3.org/2000/svg">
<g id="pencil (1) 1" clip-path="url(#clip0_564_9597)">
<path id="Vector" d="M0.586 9.55944C0.210901 9.93443 0.000113275 10.4431 0 10.9734L0 11.9999H1.0265C1.55689 11.9998 2.06551 11.789 2.4405 11.4139L9.112 4.74244L7.2575 2.88794L0.586 9.55944Z" fill="#344251"/>
<path id="Vector_2" d="M11.5728 0.427435C11.4511 0.305553 11.3065 0.208863 11.1474 0.142893C10.9882 0.0769241 10.8176 0.0429688 10.6453 0.0429688C10.4731 0.0429687 10.3025 0.0769241 10.1433 0.142893C9.98418 0.208863 9.8396 0.305553 9.71784 0.427435L7.96484 2.18093L9.81934 4.03543L11.5728 2.28243C11.6947 2.16068 11.7914 2.0161 11.8574 1.85695C11.9234 1.6978 11.9573 1.52721 11.9573 1.35493C11.9573 1.18266 11.9234 1.01207 11.8574 0.852921C11.7914 0.693775 11.6947 0.54919 11.5728 0.427435Z" fill="#344251"/>
</g>
<defs>
<clipPath id="clip0_564_9597">
<rect width="12" height="12" fill="white"/>
</clipPath>
</defs>
</svg>
