<svg width="81" height="80" viewBox="0 0 81 80" fill="none" xmlns="http://www.w3.org/2000/svg">
<g clip-path="url(#clip0_267_6939)">
<path d="M40.5 80C62.5914 80 80.5 62.0914 80.5 40C80.5 17.9086 62.5914 0 40.5 0C18.4086 0 0.5 17.9086 0.5 40C0.5 62.0914 18.4086 80 40.5 80Z" fill="#4A6EA9"/>
<path d="M35.4685 42.721H30.2369C29.4158 42.721 29.1211 42.421 29.1211 41.5947C29.1211 39.4649 29.1211 37.3368 29.1211 35.2105C29.1211 34.3894 29.4316 34.0789 30.2421 34.0789H35.4685V29.4736C35.4064 27.405 35.9028 25.3579 36.9053 23.5473C37.9475 21.7195 39.6175 20.3318 41.6053 19.6421C42.8954 19.1727 44.2589 18.9374 45.6316 18.9473H50.8053C51.5474 18.9473 51.8579 19.2736 51.8579 20V26.0052C51.8579 26.7578 51.5421 27.0578 50.8053 27.0578C49.3895 27.0578 47.9737 27.0578 46.5632 27.1157C45.1527 27.1736 44.3843 27.8157 44.3843 29.2894C44.3527 30.8684 44.3843 32.4157 44.3843 34.0263H50.4632C51.3264 34.0263 51.6211 34.321 51.6211 35.1894C51.6211 37.2947 51.6211 39.4105 51.6211 41.5368C51.6211 42.3947 51.3474 42.6631 50.479 42.6684H44.3527V59.7947C44.3527 60.7105 44.0685 61 43.1632 61H36.5737C35.779 61 35.4685 60.6894 35.4685 59.8947V42.721Z" fill="white"/>
</g>
<defs>
<clipPath id="clip0_267_6939">
<rect width="80" height="80" fill="white" transform="translate(0.5)"/>
</clipPath>
</defs>
</svg>
