<svg width="80" height="80" viewBox="0 0 80 80" fill="none" xmlns="http://www.w3.org/2000/svg">
<circle cx="40" cy="40" r="40" fill="#FFE2D2"/>
<g clip-path="url(#clip0_267_10496)">
<path d="M59.9233 29.2367L45.8933 43.2667C44.329 44.8271 42.2096 45.7034 40 45.7034C37.7904 45.7034 35.671 44.8271 34.1067 43.2667L20.0767 29.2367C20.0533 29.5 20 29.7384 20 30V50C20.0026 52.2094 20.8815 54.3274 22.4437 55.8897C24.0059 57.4519 26.124 58.3307 28.3333 58.3334H51.6667C53.876 58.3307 55.9941 57.4519 57.5563 55.8897C59.1185 54.3274 59.9974 52.2094 60 50V30C60 29.7384 59.9467 29.5 59.9233 29.2367Z" fill="#E75204"/>
<path d="M43.5367 40.91L58.76 25.685C58.0226 24.4622 56.9824 23.45 55.74 22.7462C54.4975 22.0423 53.0946 21.6705 51.6667 21.6666H28.3333C26.9054 21.6705 25.5025 22.0423 24.2601 22.7462C23.0176 23.45 21.9775 24.4622 21.24 25.685L36.4633 40.91C37.4026 41.8455 38.6743 42.3707 40 42.3707C41.3257 42.3707 42.5974 41.8455 43.5367 40.91Z" fill="#E75204"/>
</g>
<defs>
<clipPath id="clip0_267_10496">
<rect width="40" height="40" fill="white" transform="translate(20 20)"/>
</clipPath>
</defs>
</svg>
