<svg width="24" height="24" viewBox="0 0 24 24" fill="none" xmlns="http://www.w3.org/2000/svg">
<g clip-path="url(#clip0_267_10491)">
<path d="M19.3331 14.667C18.577 14.6676 17.8324 14.8522 17.1636 15.2048C16.4947 15.5574 15.9217 16.0675 15.4941 16.691L8.98505 13.752C9.44737 12.6356 9.44916 11.3817 8.99005 10.264L15.4901 7.31C16.1239 8.22676 17.0654 8.88597 18.1436 9.16805C19.2219 9.45013 20.3656 9.33641 21.3672 8.8475C22.3688 8.3586 23.162 7.5269 23.6029 6.50327C24.0438 5.47964 24.1032 4.33187 23.7704 3.26818C23.4376 2.20448 22.7345 1.2953 21.7888 0.705558C20.843 0.115817 19.7172 -0.115424 18.6156 0.0537794C17.514 0.222983 16.5095 0.781424 15.7843 1.62781C15.0591 2.47419 14.6613 3.55245 14.6631 4.667C14.6673 4.9308 14.6941 5.19376 14.7431 5.453L7.83306 8.593C7.16939 7.97122 6.33856 7.55684 5.44263 7.40076C4.5467 7.24469 3.62468 7.35372 2.78986 7.71446C1.95504 8.0752 1.24378 8.67194 0.743451 9.43137C0.243122 10.1908 -0.0244798 11.0798 -0.026478 11.9893C-0.0284761 12.8987 0.235216 13.7889 0.732203 14.5505C1.22919 15.3121 1.93783 15.912 2.77105 16.2764C3.60428 16.6408 4.5258 16.7539 5.42241 16.6017C6.31902 16.4496 7.15167 16.0389 7.81805 15.42L14.7461 18.548C14.6979 18.807 14.6715 19.0696 14.6671 19.333C14.6669 20.2561 14.9404 21.1586 15.4532 21.9262C15.9659 22.6939 16.6948 23.2922 17.5476 23.6456C18.4004 23.9989 19.3389 24.0914 20.2443 23.9114C21.1497 23.7313 21.9814 23.2868 22.6341 22.6341C23.2869 21.9813 23.7314 21.1496 23.9114 20.2442C24.0915 19.3388 23.999 18.4004 23.6456 17.5476C23.2923 16.6947 22.6939 15.9659 21.9263 15.4531C21.1586 14.9404 20.2562 14.6668 19.3331 14.667ZM19.3331 2C19.8606 1.99981 20.3763 2.15605 20.815 2.44899C21.2538 2.74192 21.5957 3.15838 21.7978 3.64569C21.9998 4.13301 22.0527 4.66928 21.9499 5.1867C21.8471 5.70411 21.5932 6.17942 21.2203 6.5525C20.8473 6.92559 20.3721 7.1797 19.8547 7.28268C19.3374 7.38567 18.8011 7.33291 18.3137 7.13109C17.8263 6.92926 17.4097 6.58742 17.1166 6.14881C16.8235 5.71021 16.6671 5.19453 16.6671 4.667C16.6676 3.96001 16.9486 3.2821 17.4484 2.78209C17.9483 2.28207 18.6261 2.0008 19.3331 2ZM4.66705 14.667C4.13953 14.6672 3.62379 14.511 3.18508 14.218C2.74636 13.9251 2.40437 13.5086 2.20236 13.0213C2.00034 12.534 1.94738 11.9977 2.05018 11.4803C2.15297 10.9629 2.4069 10.4876 2.77985 10.1145C3.15279 9.74142 3.62801 9.48731 4.14538 9.38432C4.66276 9.28133 5.19905 9.33409 5.68644 9.53592C6.17383 9.73775 6.59042 10.0796 6.88351 10.5182C7.17661 10.9568 7.33305 11.4725 7.33306 12C7.33226 12.7069 7.05116 13.3847 6.55139 13.8846C6.05161 14.3846 5.37397 14.6659 4.66705 14.667ZM19.3331 22C18.8056 22 18.2899 21.8436 17.8513 21.5505C17.4128 21.2575 17.0709 20.841 16.8691 20.3536C16.6672 19.8663 16.6144 19.33 16.7173 18.8127C16.8202 18.2954 17.0742 17.8201 17.4472 17.4471C17.8202 17.0742 18.2954 16.8202 18.8127 16.7172C19.3301 16.6143 19.8663 16.6672 20.3537 16.869C20.841 17.0709 21.2575 17.4127 21.5506 17.8513C21.8436 18.2899 22.0001 18.8055 22.0001 19.333C21.9995 20.0402 21.7184 20.7182 21.2183 21.2183C20.7183 21.7183 20.0402 21.9995 19.3331 22Z" fill="#627284"/>
</g>
<defs>
<clipPath id="clip0_267_10491">
<rect width="24" height="24" fill="white"/>
</clipPath>
</defs>
</svg>
