<svg width="20" height="20" viewBox="0 0 20 20" fill="none" xmlns="http://www.w3.org/2000/svg">
<g id="return 1" clip-path="url(#clip0_658_6739)">
<path id="Return" d="M15.2806 7.44228V12.5689C15.2823 12.6546 15.2555 12.7384 15.2044 12.8072C15.1534 12.8759 15.0809 12.9258 14.9984 12.9489L10.1537 14.6489C10.1059 14.672 10.0535 14.6839 10.0004 14.6839C9.94731 14.6839 9.8949 14.672 9.84707 14.6489L4.98021 12.9489C4.90166 12.9221 4.83388 12.8707 4.78702 12.8022C4.74015 12.7337 4.71671 12.6519 4.7202 12.5689L4.69575 7.44228C4.69931 7.35467 4.73109 7.27055 4.78635 7.20247C4.84162 7.13439 4.91741 7.08599 5.00243 7.0645L9.87151 5.3645C9.91055 5.34144 9.95506 5.32927 10.0004 5.32927C10.0457 5.32927 10.0903 5.34144 10.1293 5.3645L15.0184 7.0645C15.0966 7.09119 15.1641 7.14234 15.2109 7.21038C15.2577 7.27842 15.2814 7.35974 15.2784 7.44228H15.2806ZM5.38022 18.8778C5.2882 18.8264 5.22007 18.7408 5.19049 18.6396C5.16091 18.5384 5.17225 18.4297 5.22206 18.3367C5.27187 18.2438 5.35618 18.1742 5.45683 18.1428C5.55748 18.1114 5.66644 18.1208 5.76024 18.1689C7.63571 19.1468 9.79079 19.4487 11.8628 19.024C13.9348 18.5993 15.7973 17.4739 17.1368 15.8371C18.4763 14.2003 19.2111 12.152 19.2174 10.037C19.2238 7.92201 18.5014 5.86936 17.1718 4.22451C17.1608 4.20486 17.143 4.18997 17.1217 4.18269C17.1004 4.17542 17.0772 4.17628 17.0565 4.18511C17.0358 4.19394 17.0191 4.21011 17.0096 4.23052C17.0001 4.25092 16.9985 4.27411 17.0051 4.29562L17.0762 4.58006C17.2185 5.10006 16.4384 5.28895 16.2962 4.80228L15.7295 2.62673C15.7097 2.55898 15.7087 2.48708 15.7268 2.41884C15.745 2.3506 15.7814 2.28862 15.8322 2.23962C15.8831 2.19062 15.9463 2.15647 16.0152 2.14088C16.0841 2.12529 16.1559 2.12885 16.2229 2.15118L18.3741 2.71784C18.4253 2.73243 18.4731 2.75697 18.5149 2.79005C18.5566 2.82313 18.5914 2.8641 18.6173 2.91064C18.6432 2.95717 18.6597 3.00835 18.6658 3.06125C18.6719 3.11415 18.6676 3.16774 18.653 3.21895C18.6384 3.27017 18.6138 3.31801 18.5808 3.35974C18.5477 3.40147 18.5067 3.43628 18.4602 3.46218C18.4136 3.48808 18.3625 3.50456 18.3095 3.51067C18.2566 3.51679 18.2031 3.51243 18.1518 3.49784L17.7274 3.38006C17.6318 3.35562 17.5607 3.45117 17.6318 3.52006C19.129 5.2901 19.9657 7.52479 19.999 9.84285C20.0323 12.1609 19.2602 14.4187 17.8144 16.231C16.3686 18.0433 14.3388 19.2978 12.0712 19.7805C9.80363 20.2632 7.4388 19.9442 5.38022 18.8778ZM14.8562 1.2534C15.3273 1.5134 14.9273 2.22229 14.4784 1.96229C12.6119 0.923626 10.4424 0.566212 8.34136 0.951263C6.24035 1.33631 4.33859 2.43987 2.96182 4.07291C1.58505 5.70595 0.818937 7.76687 0.794708 9.90265C0.77048 12.0384 1.48964 14.1162 2.82901 15.78C2.84382 15.7967 2.86388 15.8078 2.88586 15.8115C2.90785 15.8152 2.93044 15.8113 2.94989 15.8004C2.96935 15.7895 2.98449 15.7723 2.99282 15.7516C3.00115 15.731 3.00216 15.708 2.99568 15.6867L2.92457 15.4267C2.78234 14.9067 3.56237 14.7178 3.7046 15.2045L4.27129 17.3778C4.29244 17.446 4.29439 17.5188 4.27693 17.588C4.25947 17.6573 4.22327 17.7204 4.17231 17.7704C4.12135 17.8205 4.05758 17.8555 3.98802 17.8717C3.91845 17.8879 3.84577 17.8847 3.77794 17.8623L1.62674 17.2956C1.10672 17.1534 1.32006 16.3734 1.81564 16.5156L2.2601 16.6334C2.35566 16.6578 2.42677 16.5623 2.35566 16.4689C-0.997808 12.5467 -0.737798 6.59339 2.92457 2.93117C4.462 1.39482 6.45749 0.400252 8.60985 0.0975947C10.7622 -0.205062 12.9546 0.200617 14.8562 1.2534ZM10.3893 9.49783V13.5867C10.3899 13.6033 10.3946 13.6196 10.4027 13.6341C10.4109 13.6486 10.4225 13.6609 10.4364 13.67C10.4503 13.6792 10.4662 13.6848 10.4827 13.6866C10.4993 13.6883 10.516 13.6861 10.5315 13.6801L14.4295 12.3089C14.4539 12.2867 14.5006 12.2623 14.5006 12.2156V8.12895C14.5006 8.08006 14.4295 8.03339 14.3606 8.05783L10.4604 9.4045C10.4138 9.42672 10.3893 9.45117 10.3893 9.49783ZM9.58706 13.5867V9.49783C9.58665 9.4798 9.58225 9.46207 9.57418 9.44594C9.56611 9.4298 9.55457 9.41565 9.54039 9.4045L7.95588 8.86006C7.94031 8.85441 7.92363 8.85255 7.9072 8.85463C7.89078 8.8567 7.87508 8.86265 7.86141 8.87198C7.84773 8.88132 7.83647 8.89377 7.82856 8.90831C7.82064 8.92285 7.81629 8.93906 7.81587 8.95561V10.4667C7.81617 10.5196 7.80597 10.5721 7.78586 10.621C7.76575 10.6699 7.73613 10.7144 7.69872 10.7518C7.66131 10.7892 7.61685 10.8188 7.56791 10.8389C7.51898 10.859 7.46654 10.8692 7.41364 10.8689C7.30784 10.8661 7.20715 10.8229 7.13232 10.748C7.05749 10.6732 7.0142 10.5725 7.0114 10.4667V8.60006C7.01099 8.58202 7.00659 8.5643 6.99853 8.54816C6.99046 8.53202 6.97891 8.51787 6.96473 8.50672L5.63134 8.06228C5.56245 8.03784 5.49134 8.0845 5.49134 8.13339V12.2245C5.49134 12.2712 5.51356 12.2956 5.56245 12.3178L9.46038 13.6889C9.5315 13.7134 9.57817 13.6645 9.57817 13.5956L9.58706 13.5867ZM6.58694 7.53784L7.62698 7.89117C7.63088 7.89667 7.63604 7.90116 7.64204 7.90426C7.64803 7.90736 7.65468 7.90897 7.66142 7.90897C7.66817 7.90897 7.67482 7.90736 7.68081 7.90426C7.6868 7.90116 7.69197 7.89667 7.69587 7.89117L11.076 6.71117C11.1227 6.71117 11.1471 6.6645 11.1471 6.61561C11.1456 6.59726 11.1376 6.58004 11.1246 6.56702C11.1116 6.554 11.0944 6.54602 11.076 6.5445L10.036 6.16673H9.96485L6.58694 7.34895C6.56615 7.35452 6.54778 7.36679 6.53467 7.38387C6.52157 7.40095 6.51447 7.42187 6.51447 7.44339C6.51447 7.46491 6.52157 7.48584 6.53467 7.50291C6.54778 7.51999 6.56615 7.53226 6.58694 7.53784ZM9.13815 8.42672L9.96485 8.70895H10.036L13.4139 7.52895C13.4347 7.52337 13.453 7.5111 13.4661 7.49402C13.4792 7.47695 13.4863 7.45603 13.4863 7.4345C13.4863 7.41298 13.4792 7.39206 13.4661 7.37498C13.453 7.35791 13.4347 7.34563 13.4139 7.34006L12.565 7.03339H12.4938L9.13815 8.24672C9.04259 8.26895 9.04259 8.38895 9.13815 8.43561V8.42672ZM13.485 11.1534C13.5836 11.1248 13.6895 11.1352 13.7806 11.1825C13.8718 11.2297 13.9413 11.3103 13.9747 11.4074C14.0081 11.5045 14.0029 11.6107 13.9602 11.7041C13.9174 11.7975 13.8404 11.8708 13.745 11.9089L12.4227 12.3801C12.3241 12.4087 12.2182 12.3983 12.1271 12.351C12.0359 12.3037 11.9664 12.2232 11.933 12.1261C11.8996 12.0289 11.9048 11.9227 11.9476 11.8293C11.9903 11.736 12.0674 11.6626 12.1627 11.6245L13.485 11.1534Z" fill="#004A98"/>
</g>
<defs>
<clipPath id="clip0_658_6739">
<rect width="20" height="20" fill="white"/>
</clipPath>
</defs>
</svg>
