<svg width="10" height="10" viewBox="0 0 10 10" fill="none" xmlns="http://www.w3.org/2000/svg">
<g id="eye (2) 2" clip-path="url(#clip0_820_300)">
<path id="Vector" d="M9.75874 6.90958L8.38749 5.53833C8.34927 5.49763 8.30326 5.46503 8.2522 5.44246C8.20113 5.41989 8.14605 5.40781 8.09023 5.40694C8.0344 5.40607 7.97897 5.41644 7.92723 5.43741C7.87549 5.45838 7.82849 5.48954 7.78902 5.52903C7.74956 5.56853 7.71843 5.61555 7.6975 5.6673C7.67656 5.71906 7.66624 5.7745 7.66714 5.83032C7.66805 5.88615 7.68017 5.94122 7.70277 5.99227C7.72538 6.04332 7.75802 6.0893 7.79874 6.1275L8.75291 7.08333C8.23421 7.08451 7.72053 6.98189 7.24209 6.78153C6.76365 6.58117 6.33014 6.28711 5.96708 5.91666C5.92676 5.87953 5.87939 5.85088 5.82779 5.83241C5.77619 5.81394 5.72141 5.80603 5.66669 5.80913C5.61197 5.81224 5.55843 5.82631 5.50925 5.85051C5.46007 5.87471 5.41626 5.90854 5.38041 5.95L5.37499 5.95833C5.30494 6.03982 5.26908 6.14522 5.2749 6.25252C5.28073 6.35983 5.32778 6.46073 5.40624 6.53416C5.84366 6.97654 6.36527 7.32679 6.94029 7.56423C7.5153 7.80168 8.13206 7.92152 8.75416 7.91666L7.79874 8.87208C7.75521 8.90952 7.71988 8.95557 7.69498 9.00731C7.67008 9.05906 7.65615 9.11539 7.65406 9.17278C7.65197 9.23017 7.66176 9.28737 7.68282 9.34079C7.70388 9.39421 7.73576 9.4427 7.77645 9.48322C7.81714 9.52374 7.86577 9.55541 7.91928 9.57625C7.97279 9.59708 8.03003 9.60663 8.08741 9.60429C8.14479 9.60195 8.20106 9.58778 8.2527 9.56266C8.30434 9.53754 8.35023 9.50202 8.38749 9.45833L9.75874 8.08708C9.91471 7.93084 10.0023 7.71909 10.0023 7.49833C10.0023 7.27756 9.91471 7.06582 9.75874 6.90958Z" fill="#627284"/>
<path id="Vector_2" d="M8.75292 2.91666L7.79875 3.87083C7.79063 3.88179 7.78312 3.8932 7.77625 3.90499C7.70901 3.98697 7.67585 4.09166 7.68362 4.1974C7.69139 4.30314 7.73949 4.40185 7.81799 4.47313C7.89649 4.5444 7.99937 4.58278 8.10537 4.58034C8.21137 4.57789 8.31237 4.53481 8.3875 4.45999L9.09834 3.74999L9.75917 3.08958C9.8709 2.97698 9.94816 2.83482 9.98189 2.67983C10.0156 2.52483 10.0044 2.36342 9.94958 2.21458C9.9091 2.10064 9.84394 1.99706 9.75875 1.91124L8.3875 0.54166C8.34946 0.500331 8.30346 0.467119 8.25226 0.444022C8.20106 0.420925 8.14571 0.408418 8.08955 0.407255C8.0334 0.406091 7.97758 0.416295 7.92547 0.437252C7.87335 0.458208 7.82601 0.489486 7.7863 0.529204C7.74658 0.568923 7.7153 0.616262 7.69434 0.668376C7.67339 0.720491 7.66318 0.776305 7.66435 0.832463C7.66551 0.888621 7.67802 0.943965 7.70111 0.995166C7.72421 1.04637 7.75742 1.09237 7.79875 1.13041L8.75417 2.08541C6.69875 2.09041 5.57209 3.19958 4.55042 4.36624C3.61209 3.30708 2.5 2.24999 0.619586 2.10249L0.419169 2.08333C0.308662 2.08333 0.202681 2.12723 0.124541 2.20537C0.0464011 2.28351 0.00250244 2.38949 0.00250244 2.49999C0.00463584 2.60983 0.0492194 2.71458 0.126902 2.79226C0.204584 2.86994 0.30933 2.91453 0.419169 2.91666C0.449169 2.91666 0.538752 2.93041 0.538752 2.93041C2.16209 3.05333 3.09375 3.96749 4 4.99999C3.09917 6.02749 2.17375 6.95833 0.563752 7.06666L0.397086 7.07541C0.287408 7.08226 0.184943 7.1324 0.112234 7.2148C0.0395246 7.2972 0.00252602 7.40511 0.00937744 7.51479C0.0162289 7.62446 0.0663691 7.72693 0.148768 7.79964C0.231167 7.87235 0.339074 7.90935 0.448752 7.90249C0.513752 7.89958 0.619586 7.89708 0.671669 7.89291C2.76334 7.73166 3.89792 6.39291 4.90959 5.22249C5.93125 4.04166 6.89625 2.92416 8.75292 2.91666Z" fill="#627284"/>
</g>
<defs>
<clipPath id="clip0_820_300">
<rect width="10" height="10" fill="white"/>
</clipPath>
</defs>
</svg>
