<svg width="26" height="23" viewBox="0 0 26 23" fill="none" xmlns="http://www.w3.org/2000/svg">
<g id="Group">
<path id="Vector" d="M13.2222 0.00193585C6.04375 -0.120706 0.124579 5.59929 0.00193713 12.7777C-0.0677232 16.848 1.74639 20.5061 4.63484 22.9388C4.82371 22.774 5.02631 22.6229 5.25148 22.5003L9.13039 20.3845C9.63911 20.1068 9.95601 19.5736 9.95601 18.9937V17.4043C9.95601 17.4043 8.81741 16.0425 8.38326 14.1504C8.02318 13.9173 7.78182 13.5146 7.78182 13.0559V11.3164C7.78182 10.9337 7.95205 10.5918 8.21647 10.3524V7.83775C8.21647 7.83775 7.6999 3.9245 12.9995 3.9245C18.2991 3.9245 17.7825 7.83775 17.7825 7.83775V10.3524C18.0474 10.5918 18.2171 10.9337 18.2171 11.3164V13.0559C18.2171 13.6407 17.8247 14.1327 17.2919 14.297C16.9951 15.2198 16.5669 16.0994 16.0008 16.899C15.858 17.1006 15.7246 17.2713 15.6078 17.4043V19.0339C15.6078 19.6339 15.9468 20.1828 16.4835 20.4507L20.6371 22.5273C20.8863 22.6519 21.1115 22.8093 21.319 22.9845C24.1201 20.6484 25.9298 17.1556 25.997 13.2222C26.1207 6.04375 20.4011 0.124577 13.2222 0.00193585Z" fill="#BCC9D7"/>
</g>
</svg>
