<svg width="14" height="14" viewBox="0 0 14 14" fill="none" xmlns="http://www.w3.org/2000/svg">
<g id="wallet (2)" clip-path="url(#clip0_1293_4999)">
<path id="Vector" d="M12.25 3.50008H2.91667C2.41558 3.50008 1.94133 3.28308 1.61292 2.91733C1.93375 2.55916 2.39983 2.33341 2.91667 2.33341H13.4167C13.7392 2.33341 14 2.07208 14 1.75008C14 1.42808 13.7392 1.16675 13.4167 1.16675H2.91667C1.30608 1.16675 0 2.47283 0 4.08342V9.91675C0 11.5273 1.30608 12.8334 2.91667 12.8334H12.25C13.2166 12.8334 14 12.05 14 11.0834V5.25008C14 4.2835 13.2166 3.50008 12.25 3.50008ZM12.8333 11.0834C12.8333 11.4048 12.572 11.6667 12.25 11.6667H2.91667C1.95183 11.6667 1.16667 10.8816 1.16667 9.91675V4.08225C1.66483 4.455 2.27733 4.66675 2.91667 4.66675H12.25C12.572 4.66675 12.8333 4.92866 12.8333 5.25008V11.0834ZM11.6667 8.16675C11.6667 8.48875 11.4053 8.75008 11.0833 8.75008C10.7613 8.75008 10.5 8.48875 10.5 8.16675C10.5 7.84475 10.7613 7.58342 11.0833 7.58342C11.4053 7.58342 11.6667 7.84475 11.6667 8.16675Z" fill="#284A70"/>
</g>
<defs>
<clipPath id="clip0_1293_4999">
<rect width="14" height="14" fill="white"/>
</clipPath>
</defs>
</svg>
