<svg width="20" height="20" viewBox="0 0 20 20" fill="none" xmlns="http://www.w3.org/2000/svg">
<g clip-path="url(#clip0_3887_10165)">
<path d="M20 9.37248C19.8795 7.4225 19.191 5.55041 18.0194 3.987C16.8477 2.4236 15.2442 1.23723 13.4065 0.574144C11.5687 -0.0889375 9.57711 -0.199741 7.67716 0.255394C5.77721 0.710529 4.05198 1.71171 2.71415 3.1355C1.37633 4.55929 0.484392 6.34345 0.14831 8.26803C-0.187772 10.1926 0.0466888 12.1735 0.822789 13.9664C1.59889 15.7593 2.8827 17.286 4.51595 18.3581C6.1492 19.4302 8.06049 20.001 10.0142 20H15.8334C16.9381 19.9989 17.9973 19.5595 18.7784 18.7784C19.5596 17.9972 19.9989 16.938 20 15.8333V9.37248ZM18.3334 15.8333C18.3334 16.4964 18.07 17.1322 17.6011 17.6011C17.1323 18.0699 16.4964 18.3333 15.8334 18.3333H10.0142C8.8383 18.3328 7.67573 18.0844 6.60227 17.6044C5.52882 17.1244 4.56859 16.4235 3.78419 15.5475C2.996 14.6719 2.40413 13.6379 2.04827 12.5148C1.69241 11.3917 1.58077 10.2056 1.72086 9.03582C1.94206 7.19077 2.77102 5.47181 4.07706 4.14992C5.3831 2.82803 7.09194 1.97841 8.93419 1.73498C9.29355 1.68994 9.65535 1.66712 10.0175 1.66665C11.9596 1.66135 13.8415 2.3399 15.3334 3.58331C16.2046 4.30744 16.9198 5.20094 17.4355 6.20967C17.9511 7.2184 18.2566 8.32135 18.3334 9.45165V15.8333Z" fill="#5C5C7C"/>
<path d="M6.66665 7.50004H9.99998C10.221 7.50004 10.433 7.41224 10.5892 7.25596C10.7455 7.09968 10.8333 6.88772 10.8333 6.66671C10.8333 6.44569 10.7455 6.23373 10.5892 6.07745C10.433 5.92117 10.221 5.83337 9.99998 5.83337H6.66665C6.44563 5.83337 6.23367 5.92117 6.07739 6.07745C5.92111 6.23373 5.83331 6.44569 5.83331 6.66671C5.83331 6.88772 5.92111 7.09968 6.07739 7.25596C6.23367 7.41224 6.44563 7.50004 6.66665 7.50004Z" fill="#5C5C7C"/>
<path d="M13.3333 9.16663H6.66665C6.44563 9.16663 6.23367 9.25442 6.07739 9.4107C5.92111 9.56698 5.83331 9.77895 5.83331 9.99996C5.83331 10.221 5.92111 10.4329 6.07739 10.5892C6.23367 10.7455 6.44563 10.8333 6.66665 10.8333H13.3333C13.5543 10.8333 13.7663 10.7455 13.9226 10.5892C14.0788 10.4329 14.1666 10.221 14.1666 9.99996C14.1666 9.77895 14.0788 9.56698 13.9226 9.4107C13.7663 9.25442 13.5543 9.16663 13.3333 9.16663Z" fill="#5C5C7C"/>
<path d="M13.3333 12.5H6.66665C6.44563 12.5 6.23367 12.5878 6.07739 12.7441C5.92111 12.9004 5.83331 13.1123 5.83331 13.3333C5.83331 13.5543 5.92111 13.7663 6.07739 13.9226C6.23367 14.0789 6.44563 14.1667 6.66665 14.1667H13.3333C13.5543 14.1667 13.7663 14.0789 13.9226 13.9226C14.0788 13.7663 14.1666 13.5543 14.1666 13.3333C14.1666 13.1123 14.0788 12.9004 13.9226 12.7441C13.7663 12.5878 13.5543 12.5 13.3333 12.5Z" fill="#5C5C7C"/>
</g>
<defs>
<clipPath id="clip0_3887_10165">
<rect width="20" height="20" fill="white"/>
</clipPath>
</defs>
</svg>
