<svg width="16" height="20" viewBox="0 0 16 20" fill="none" xmlns="http://www.w3.org/2000/svg">
<path d="M5.08331 7.91671C5.08331 8.37588 5.18998 8.81088 5.37998 9.19755C4.97165 9.72088 4.71748 10.37 4.68331 11.0775C3.89915 10.2542 3.41665 9.14088 3.41665 7.91755C3.41665 5.07505 6.01832 2.82838 8.96581 3.43338C10.7008 3.79005 12.1066 5.18755 12.4766 6.92005C12.5883 7.44338 12.6091 7.95588 12.5525 8.44588C12.5041 8.86088 12.14 9.16755 11.7216 9.16755H11.6841C11.1908 9.16755 10.8441 8.72838 10.8983 8.23838C10.935 7.90921 10.9158 7.56338 10.8316 7.21088C10.5833 6.16671 9.73165 5.32088 8.68581 5.08005C6.78081 4.64255 5.08248 6.08588 5.08248 7.91755L5.08331 7.91671ZM1.84165 6.83755C2.06998 5.51005 2.71915 4.30005 3.72581 3.35588C4.99998 2.16171 6.66831 1.57171 8.41748 1.68005C11.7116 1.89338 14.2875 4.77921 14.2491 8.23421C14.2333 9.68088 13.0216 10.8325 11.5758 10.8325H9.57082C9.36748 10.1417 8.73582 9.63338 7.97915 9.63338C7.05831 9.63338 6.31248 10.3792 6.31248 11.3C6.31248 12.2209 7.05831 12.9667 7.97915 12.9667C8.42748 12.9667 8.83331 12.7875 9.13248 12.4992H11.5758C13.925 12.4992 15.8825 10.6284 15.9158 8.28005C15.9775 3.92921 12.7091 0.287547 8.52498 0.0175468C6.30498 -0.12662 4.19915 0.627547 2.58665 2.14088C1.33748 3.31171 0.506648 4.86171 0.207481 6.52921C0.116648 7.03588 0.517481 7.50088 1.03165 7.50088C1.42498 7.50088 1.77581 7.22671 1.84165 6.83838V6.83755ZM7.99998 14.1667C4.92081 14.1667 2.25665 16.0767 1.37081 18.9184C1.23331 19.3575 1.47915 19.825 1.91831 19.9625C2.35665 20.095 2.82415 19.8534 2.96165 19.415C3.61915 17.3067 5.68998 15.8334 7.99915 15.8334C10.3083 15.8334 12.38 17.3067 13.0366 19.415C13.1483 19.7717 13.4766 20 13.8325 20C13.915 20 13.9975 19.9875 14.0808 19.9625C14.52 19.825 14.765 19.3575 14.6283 18.9184C13.7425 16.0767 11.0783 14.1667 7.99915 14.1667H7.99998Z" fill="#5C5C7C"/>
</svg>
