<svg width="20" height="20" viewBox="0 0 20 20" fill="none" xmlns="http://www.w3.org/2000/svg">
<g id="angle-small-right 1">
<path id="Vector" d="M7.16659 11.7667L10.9916 15.5917C11.1477 15.7469 11.3589 15.834 11.5791 15.834C11.7992 15.834 12.0105 15.7469 12.1666 15.5917C12.2447 15.5142 12.3067 15.422 12.349 15.3205C12.3913 15.2189 12.4131 15.11 12.4131 15C12.4131 14.89 12.3913 14.7811 12.349 14.6795C12.3067 14.578 12.2447 14.4858 12.1666 14.4083L8.33325 10.5917C8.25515 10.5142 8.19315 10.422 8.15084 10.3205C8.10854 10.2189 8.08675 10.11 8.08675 9.99999C8.08675 9.88998 8.10854 9.78106 8.15084 9.67951C8.19315 9.57796 8.25515 9.48579 8.33325 9.40832L12.1666 5.59166C12.3235 5.43584 12.4121 5.22407 12.4129 5.00294C12.4137 4.7818 12.3266 4.56941 12.1708 4.41249C12.0149 4.25557 11.8032 4.16697 11.582 4.16619C11.3609 4.16541 11.1485 4.25251 10.9916 4.40832L7.16659 8.23332C6.69842 8.70208 6.43545 9.33749 6.43545 9.99999C6.43545 10.6625 6.69842 11.2979 7.16659 11.7667Z" fill="black"/>
</g>
</svg>
