<svg width="14" height="14" viewBox="0 0 14 14" fill="none" xmlns="http://www.w3.org/2000/svg">
<g id="box-open" clip-path="url(#clip0_1293_4995)">
<path id="Vector" d="M13.7525 3.75025L12.6383 1.9005L6.99984 0.0209961L1.36134 1.9005L0.257675 3.73158C-0.0194081 4.19358 -0.0707415 4.74775 0.115925 5.25233C0.296759 5.74175 0.678258 6.12033 1.16593 6.29825L1.16126 12.0406L6.99459 13.9848L12.8279 12.0406L12.8326 6.29825C13.3261 6.12558 13.7117 5.74641 13.8937 5.25525C14.0786 4.75533 14.0273 4.207 13.7525 3.74908V3.75025ZM10.4059 2.38641L7.00451 3.52158L3.60193 2.3835L6.99984 1.25066L10.4059 2.38641ZM1.25751 4.333L2.01118 3.08175L6.12251 4.45666L5.23059 5.94358C5.09118 6.17575 4.80184 6.2825 4.54634 6.19675L1.58243 5.20916C1.40918 5.15141 1.27326 5.02016 1.20968 4.84866C1.14668 4.67775 1.16359 4.48875 1.25751 4.333ZM2.33259 6.6885L4.17768 7.30333C4.96109 7.56466 5.80634 7.252 6.23159 6.54383L6.41593 6.237L6.41301 12.5621L2.32968 11.2012L2.33318 6.68908L2.33259 6.6885ZM7.57909 12.5615L7.58201 6.23291L7.76809 6.54325C8.09243 7.08458 8.66176 7.39433 9.26201 7.39433C9.44809 7.39433 9.63709 7.36458 9.82201 7.30275L11.6659 6.6885L11.6624 11.2L7.57909 12.5615ZM12.7999 4.85216C12.7387 5.01841 12.6068 5.14558 12.4388 5.20158L9.45334 6.19675C9.19784 6.2825 8.90851 6.17633 8.76909 5.94358L7.87892 4.46016L11.992 3.08758L12.7533 4.35166C12.8443 4.50333 12.8618 4.68591 12.7999 4.85216Z" fill="#004A98"/>
</g>
<defs>
<clipPath id="clip0_1293_4995">
<rect width="14" height="14" fill="white"/>
</clipPath>
</defs>
</svg>
