<svg width="16" height="16" viewBox="0 0 16 16" fill="none" xmlns="http://www.w3.org/2000/svg">
<g id="caret-down (3) 4">
<path id="Vector" d="M6 11.7267L6 4.27333C6.00055 4.14149 6.04019 4.01276 6.1139 3.90344C6.18761 3.79412 6.29208 3.70911 6.4141 3.65915C6.53612 3.6092 6.67021 3.59656 6.79942 3.62281C6.92863 3.64907 7.04715 3.71305 7.14 3.80667L10.86 7.52667C10.9225 7.58864 10.9721 7.66238 11.0059 7.74362C11.0398 7.82486 11.0572 7.91199 11.0572 8C11.0572 8.08801 11.0398 8.17515 11.0059 8.25638C10.9721 8.33762 10.9225 8.41136 10.86 8.47333L7.14 12.1933C7.04715 12.2869 6.92863 12.3509 6.79942 12.3772C6.67021 12.4034 6.53612 12.3908 6.4141 12.3408C6.29208 12.2909 6.18761 12.2059 6.1139 12.0966C6.04019 11.9872 6.00055 11.8585 6 11.7267Z" fill="black"/>
</g>
</svg>
