<svg width="80" height="80" viewBox="0 0 80 80" fill="none" xmlns="http://www.w3.org/2000/svg">
<circle cx="40" cy="40" r="40" fill="#F1F1F1"/>
<g clip-path="url(#clip0_267_10504)">
<path d="M41.6667 26.6667C41.6667 27.1087 41.8423 27.5326 42.1549 27.8452C42.4674 28.1577 42.8913 28.3333 43.3334 28.3333H49.9434C49.8207 27.2511 49.3458 26.2392 48.5917 25.4533L44.785 21.5217C43.9523 20.6776 42.8476 20.1556 41.6667 20.0483V26.6667ZM38.3334 26.6667V20H31.6667C29.4574 20.0026 27.3393 20.8815 25.7771 22.4437C24.2148 24.0059 23.336 26.124 23.3334 28.3333V45C23.336 47.2093 24.2148 49.3274 25.7771 50.8896C27.3393 52.4519 29.4574 53.3307 31.6667 53.3333H41.6667C43.876 53.3307 45.9941 52.4519 47.5563 50.8896C49.1186 49.3274 49.9974 47.2093 50 45V31.6667H43.3334C42.0073 31.6667 40.7355 31.1399 39.7978 30.2022C38.8602 29.2645 38.3334 27.9927 38.3334 26.6667ZM48.3334 60H33.3334C32.8913 60 32.4674 59.8244 32.1549 59.5118C31.8423 59.1993 31.6667 58.7754 31.6667 58.3333C31.6667 57.8913 31.8423 57.4674 32.1549 57.1548C32.4674 56.8423 32.8913 56.6667 33.3334 56.6667H48.3334C49.6595 56.6667 50.9312 56.1399 51.8689 55.2022C52.8066 54.2645 53.3334 52.9927 53.3334 51.6667V33.3333C53.3334 32.8913 53.509 32.4674 53.8215 32.1548C54.1341 31.8423 54.558 31.6667 55 31.6667C55.4421 31.6667 55.866 31.8423 56.1786 32.1548C56.4911 32.4674 56.6667 32.8913 56.6667 33.3333V51.6667C56.6641 53.876 55.7852 55.9941 54.223 57.5563C52.6608 59.1185 50.5427 59.9974 48.3334 60Z" fill="black"/>
</g>
<defs>
<clipPath id="clip0_267_10504">
<rect width="40" height="40" fill="white" transform="translate(20 20)"/>
</clipPath>
</defs>
</svg>
