<svg width="14" height="14" viewBox="0 0 14 14" fill="none" xmlns="http://www.w3.org/2000/svg">
<g id="heart (1) 1" clip-path="url(#clip0_1293_5004)">
<path id="Vector" d="M10.2082 1.11816C9.55136 1.12838 8.90883 1.31175 8.34551 1.64974C7.78218 1.98773 7.31802 2.46839 6.99989 3.04316C6.68177 2.46839 6.21761 1.98773 5.65428 1.64974C5.09096 1.31175 4.44842 1.12838 3.79156 1.11816C2.74444 1.16366 1.75789 1.62173 1.04743 2.3923C0.336979 3.16287 -0.0396269 4.1833 -0.000105711 5.23066C-0.000105711 7.88308 2.79173 10.7799 5.13323 12.744C5.65602 13.1833 6.31702 13.4242 6.99989 13.4242C7.68277 13.4242 8.34377 13.1833 8.86656 12.744C11.2081 10.7799 13.9999 7.88308 13.9999 5.23066C14.0394 4.1833 13.6628 3.16287 12.9524 2.3923C12.2419 1.62173 11.2553 1.16366 10.2082 1.11816ZM8.11698 11.8515C7.8043 12.1148 7.40867 12.2592 6.99989 12.2592C6.59112 12.2592 6.19549 12.1148 5.88281 11.8515C2.88564 9.33675 1.16656 6.92408 1.16656 5.23066C1.12668 4.49258 1.38027 3.76867 1.87202 3.21682C2.36377 2.66497 3.05378 2.32995 3.79156 2.28483C4.52934 2.32995 5.21935 2.66497 5.7111 3.21682C6.20285 3.76867 6.45644 4.49258 6.41656 5.23066C6.41656 5.38537 6.47802 5.53375 6.58742 5.64314C6.69681 5.75254 6.84518 5.814 6.99989 5.814C7.1546 5.814 7.30298 5.75254 7.41237 5.64314C7.52177 5.53375 7.58323 5.38537 7.58323 5.23066C7.54335 4.49258 7.79694 3.76867 8.28869 3.21682C8.78044 2.66497 9.47045 2.32995 10.2082 2.28483C10.946 2.32995 11.636 2.66497 12.1278 3.21682C12.6195 3.76867 12.8731 4.49258 12.8332 5.23066C12.8332 6.92408 11.1141 9.33675 8.11698 11.8492V11.8515Z" fill="#284A70"/>
</g>
<defs>
<clipPath id="clip0_1293_5004">
<rect width="14" height="14" fill="white"/>
</clipPath>
</defs>
</svg>
