<svg width="113" height="48" viewBox="0 0 113 48" fill="none" xmlns="http://www.w3.org/2000/svg">
<g id="Logo">
<path id="path2" fill-rule="evenodd" clip-rule="evenodd" d="M68.6551 35.1975H73.5768C73.8161 35.1975 73.7263 34.729 73.726 34.5016L73.7259 28.5856L75.9984 31.5331C76.1579 31.7468 76.2949 31.9116 76.453 32.1225L76.9146 32.7049C77.1003 32.9349 77.2332 33.0622 77.4421 33.2712C78.6591 34.4881 79.8298 35.1098 81.6509 35.376L83.619 35.5456L84.0455 32.6908C84.0982 32.3494 84.1659 32.0156 84.1659 31.6679C83.2781 31.6481 81.9028 30.7515 81.2038 30.2054C80.864 29.9398 79.3019 28.2255 79.0454 27.8896L78.0014 26.6965C77.8836 26.5423 77.7548 26.4502 77.6533 26.2987L81.3933 21.5874C81.6287 21.2996 83.5616 18.9388 83.619 18.6925L78.6461 18.691C78.1429 18.6848 78.2092 18.7431 77.9941 19.0333L74.5995 23.593C74.435 23.8124 73.8772 24.6067 73.7259 24.708L73.726 13.0748C73.7269 12.8254 73.8069 12.4286 73.5768 12.4286H68.6551V35.1975Z" fill="#004A98"/>
<path id="path4" fill-rule="evenodd" clip-rule="evenodd" d="M0 24.6085C0 25.4826 0.0800389 26.4507 0.219777 27.2224C0.5459 29.0232 1.04588 30.2843 2.10203 31.7035C2.24224 31.8919 2.30267 31.9399 2.44794 32.1033C2.96475 32.6849 2.78262 32.4387 3.16951 32.8234C5.1925 34.8355 9.06737 35.4958 11.8817 35.4958C13.0995 35.4958 14.3307 35.3912 15.4091 35.245C16.9688 35.0336 17.4893 34.6743 18.4439 34.4519L17.3502 30.5742L15.3548 30.965C14.9795 31.029 14.6836 31.0363 14.2759 31.0792C13.8989 31.1189 12.3485 31.2007 11.9601 31.142C11.5725 31.0835 11.2048 31.105 10.8153 31.044C7.11618 30.4636 5.2697 27.9491 5.2697 24.2605C5.2697 22.2072 5.88294 20.5865 6.92265 19.55C8.22652 18.2503 9.76198 17.7976 11.7325 17.7976C13.1527 17.7976 14.4732 17.9338 15.7895 18.2647L17.0022 18.5931L17.6791 16.7345C17.7983 16.3906 18.3389 15.0626 18.3445 14.8148C18.1942 14.7798 18.1702 14.7484 18.025 14.6868C16.0263 13.8385 13.974 13.5222 11.7325 13.5222C9.35196 13.5222 6.96857 13.9043 4.99679 14.8899C3.69327 15.5415 3.21801 16.0325 2.37376 16.9399C1.72329 17.6391 1.11898 18.7626 0.789043 19.6804C0.302281 21.0346 0 22.7605 0 24.6085Z" fill="#004A98"/>
<path id="path6" fill-rule="evenodd" clip-rule="evenodd" d="M103.007 2.46225H106.961L106.961 5.81407L110.266 5.81631C110.267 6.4791 110.309 9.34217 110.244 9.77074H106.985L106.997 13.075H103.007V9.79392C102.41 9.79475 100.116 9.83885 99.701 9.76973L99.6766 5.79311H103.005L103.007 2.46225ZM96.9423 2.23713V13.3731C96.9423 14.5793 97.9297 15.6102 99.1298 15.6102H102.212V21.5759C102.381 21.5307 102.401 21.4189 102.5 21.2674L103.839 19.3745C104.035 19.1124 104.176 18.8813 104.371 18.614L106.487 15.6102C107.896 15.6102 109.306 15.6048 110.714 15.6115C112.022 15.6176 113 14.5655 113 13.6714V2.03825C113 1.73862 112.879 1.38273 112.762 1.18222C112.343 0.46176 111.635 0 110.663 0H99.3286C97.9472 0 96.9423 0.972881 96.9423 2.23713Z" fill="#E75204"/>
<path id="path8" fill-rule="evenodd" clip-rule="evenodd" d="M90.6287 30.2417C90.6287 29.6554 90.626 29.2782 91.2238 28.8482C92.0375 28.2628 93.7513 28.3494 94.8058 28.3537C95.1437 28.355 95.2595 28.3028 95.6001 28.3028V30.888C95.3905 30.8927 95.1002 31.0008 94.8744 31.0571C93.818 31.3203 92.223 31.7105 91.2264 31.1354C90.948 30.9747 90.6287 30.678 90.6287 30.2417ZM86.7013 19.5532C86.7683 19.8408 86.8745 20.1596 86.9502 20.4478C87.0329 20.7632 87.1106 21.0705 87.2044 21.3866C87.289 21.672 87.3683 21.989 87.4467 22.2877C87.4902 22.4536 87.5281 22.5643 87.576 22.755C87.6242 22.9464 87.6808 23.0552 87.6956 23.232C88.8862 22.9546 89.7625 22.7755 90.9974 22.6064C91.4125 22.5495 91.8431 22.5764 92.2483 22.5151C92.758 22.4379 94.0753 22.5484 94.5858 22.7549C95.7529 23.2269 95.6001 24.1627 95.6001 25.3697C92.9742 25.3697 90.0083 25.0847 87.6976 26.4655C86.4522 27.2097 85.82 28.4406 85.7033 29.9396C85.6368 30.7929 85.729 31.5982 85.9736 32.3116C86.2327 33.0674 86.5331 33.4779 87.0361 33.9834C88.0494 35.0016 89.7112 35.3622 91.5235 35.3622C93.0116 35.3622 94.4157 34.6405 95.5902 33.861C95.7733 33.7395 95.9134 33.6202 96.0973 33.5229C96.488 35.2001 100.095 35.3487 101.477 35.2233C102.008 35.1751 101.833 35.3445 101.862 34.3663C101.87 34.1117 101.915 34.0607 101.915 33.7731C101.916 32.9543 102.013 32.1965 102.013 31.3851C101.747 31.3851 101.04 31.2938 100.852 31.2037C100.503 31.0358 100.521 30.6853 100.522 30.1921C100.525 28.8495 100.586 23.0819 100.458 22.2024C100.229 20.6372 99.4822 19.6521 98.2518 19.0392C96.0004 17.918 92.2166 18.0864 89.6962 18.6206C89.1751 18.7311 87.9537 19.0796 87.426 19.2836C87.1658 19.3843 86.9295 19.4437 86.7013 19.5532Z" fill="#004A98"/>
<path id="path10" fill-rule="evenodd" clip-rule="evenodd" d="M61.4963 24.9068V25.205H56.1769C56.1769 23.696 57.046 22.0244 58.7123 21.9232C59.1538 21.8964 59.5254 21.8803 59.9357 22.0428C61.0143 22.4699 61.4963 23.6582 61.4963 24.9068ZM51.0066 26.3982C51.0066 28.3371 50.9627 29.5248 51.6598 31.3626C52.9855 34.8582 56.5607 35.5456 59.9551 35.5456C61.1528 35.5456 64.987 35.2439 66.1197 34.7004C65.9762 34.0847 65.8717 33.4358 65.7427 32.7905L65.374 30.8724C65.0142 30.8724 64.5297 31.0034 64.217 31.0577C63.8092 31.1286 63.477 31.1797 63.0658 31.2489C61.3562 31.5362 58.8677 31.7791 57.3363 30.9558C56.4585 30.4839 56.0277 29.7126 56.0277 28.4862H66.5671C66.7923 28.4862 66.7162 28.2311 66.7162 27.6907C66.7162 24.2543 66.3555 20.6788 63.0871 19.0405C60.6821 17.8349 56.6129 18.1363 54.3711 19.4718C53.1026 20.2276 52.1232 21.4935 51.6336 22.8989C51.3023 23.8501 51.0066 25.1471 51.0066 26.3982Z" fill="#004A98"/>
<path id="path12" fill-rule="evenodd" clip-rule="evenodd" d="M20.2832 30.0273C20.2832 32.3512 20.8905 34.522 23.2936 35.2197C25.9221 35.9828 28.3682 35.3507 30.5448 33.9255L31.1209 33.557C31.1209 33.8553 31.1211 34.1536 31.1209 34.4518C31.1207 34.6841 31.0274 35.1976 31.27 35.1976H36.1917V18.6925H31.27C31.0209 18.6925 31.1209 19.5135 31.1209 19.9851V30.3256C30.1899 30.8182 26.4146 31.7783 25.6406 30.4865C25.3839 30.058 25.3044 29.2624 25.3044 28.5856V18.6925H20.2832V30.0273Z" fill="#004A98"/>
<path id="path14" fill-rule="evenodd" clip-rule="evenodd" d="M44.7427 20.8302V18.6925H39.6719V35.1976H44.5936C44.8308 35.1976 44.7428 34.7946 44.7427 34.3524V25.1553C44.7427 24.8402 44.723 24.4636 44.7388 24.1571C44.7538 23.8664 44.8372 23.8861 45.2248 23.5991C46.557 22.6126 48.5117 22.4604 50.1984 22.7341C50.7404 22.8221 50.5171 23.0791 50.9073 20.7308C50.9641 20.3888 51.0097 20.0622 51.0704 19.7008C51.097 19.5433 51.2053 18.747 51.2553 18.6428C49.4778 18.2287 48.1568 18.0774 46.4825 19.1895C45.6847 19.7193 45.3158 20.1708 44.7427 20.8302Z" fill="#004A98"/>
<path id="path16" fill-rule="evenodd" clip-rule="evenodd" d="M103.005 5.79311H99.6766L99.701 9.76973C100.116 9.83885 102.41 9.79481 103.007 9.79392V13.075H106.997L106.985 9.77074H110.244C110.309 9.34217 110.267 6.4791 110.266 5.81631L106.961 5.81407L106.961 2.46225H103.007L103.005 5.79311Z" fill="#FEFEFE"/>
<path id="path18" fill-rule="evenodd" clip-rule="evenodd" d="M97.3898 44.8421C97.3898 44.268 97.39 43.649 98.1852 43.649C99.0326 43.649 98.9739 45.5878 98.235 45.5878C97.8054 45.5878 97.3898 45.4591 97.3898 44.8421ZM98.2085 47.6261H97.6525C97.3232 47.5901 97.0165 47.4956 96.7932 47.3775C96.8147 47.1192 96.9227 46.9672 96.9424 46.7312C97.1344 46.7759 98.0954 47.3142 98.6216 46.6704C98.8038 46.4475 98.7818 46.2184 98.7818 45.8363C98.4147 46.2586 98.1664 46.234 97.7378 46.234C96.9943 46.234 96.4949 45.4536 96.4949 44.6432C96.4949 43.8096 97.0556 43.0027 97.8869 43.0027C98.6279 43.0027 98.4046 43.0812 98.8812 43.4003C98.8812 42.9881 98.8002 43.0524 99.6269 43.0524V45.8861C99.6269 47.0819 98.9431 47.54 98.2085 47.6261Z" fill="#231F20"/>
<path id="path20" fill-rule="evenodd" clip-rule="evenodd" d="M34.8992 44.8421C34.8992 44.268 34.8995 43.649 35.6947 43.649C36.542 43.649 36.4833 45.5878 35.7444 45.5878C35.3149 45.5878 34.8992 45.4591 34.8992 44.8421ZM35.7078 47.6261H35.1639C34.8363 47.591 34.5299 47.4977 34.3027 47.3775C34.3242 47.1192 34.4321 46.9672 34.4518 46.7312C34.648 46.7769 34.6978 46.8516 34.9196 46.9097C35.1072 46.9589 35.2356 46.9797 35.4461 46.9797C36.2651 46.9797 36.2913 46.3242 36.2913 45.8363C35.7536 46.4549 34.795 46.3389 34.3219 45.7176C34.1354 45.4727 34.0044 45.0556 34.0044 44.6432C34.0044 43.8096 34.565 43.0027 35.3964 43.0027C36.1373 43.0027 35.9141 43.0812 36.3907 43.4003C36.3907 43.217 36.3467 43.0524 36.5398 43.0524C37.3592 43.0524 37.1347 42.9356 37.1361 43.6485L37.1367 46.0356C37.083 47.1177 36.419 47.5445 35.7078 47.6261Z" fill="#231F20"/>
<path id="path22" fill-rule="evenodd" clip-rule="evenodd" d="M43.9968 44.693C43.9968 43.2303 45.4385 43.5121 45.4385 44.2455C45.4385 45.0266 45.5807 45.6375 44.6432 45.6375C44.235 45.6375 43.9968 45.1252 43.9968 44.693ZM45.4385 43.301C44.978 42.9926 45.0648 43.0027 44.4443 43.0027C43.7449 43.0027 43.1517 43.7744 43.1517 44.4941V44.8918C43.1517 45.5873 43.7249 46.3335 44.3945 46.3335C44.937 46.3335 45.1528 46.2796 45.538 45.8364C45.543 46.0612 45.5877 46.0339 45.5877 46.2838H46.3334V41.6107H45.4385V43.301Z" fill="#231F20"/>
<path id="path24" fill-rule="evenodd" clip-rule="evenodd" d="M66.7163 44.9912C66.7163 44.5634 66.6395 43.649 67.4123 43.649C68.4321 43.649 68.4904 45.4471 67.5733 45.6533C67.1264 45.7537 66.7163 45.3775 66.7163 44.9912ZM65.8712 46.2838H66.5671L66.6254 45.8875C67.0135 46.1527 66.909 46.3335 67.6609 46.3335C68.1508 46.3335 68.4274 46.1186 68.6677 45.8489C69.4463 44.975 69.0798 43.0027 67.8597 43.0027C67.3532 43.0027 67.097 43.0121 66.7163 43.4501V41.6107H65.8712V46.2838Z" fill="#231F20"/>
<path id="path26" fill-rule="evenodd" clip-rule="evenodd" d="M54.5365 44.7426C54.5365 43.0731 56.0279 43.4529 56.0279 44.4443C56.0279 44.9032 55.9955 45.7956 55.2419 45.7252C54.798 45.6838 54.5365 45.2553 54.5365 44.7426ZM53.6416 44.693C53.6416 46.8606 56.9227 46.9869 56.9227 44.5438C56.9227 43.7478 56.2733 43.0027 55.5307 43.0027C54.9917 43.0027 54.4828 43 54.0527 43.5131C53.8228 43.7874 53.6416 44.2076 53.6416 44.693Z" fill="#231F20"/>
<path id="path28" fill-rule="evenodd" clip-rule="evenodd" d="M24.6086 45.7369C23.5623 45.7369 23.5591 43.5992 24.5589 43.5992C25.3923 43.5992 25.5098 44.7535 25.1739 45.3577C25.0768 45.5324 24.8422 45.7369 24.6086 45.7369ZM22.968 44.4941C22.968 45.0203 22.9578 45.4838 23.426 45.9253C24.2973 46.7469 26.1994 46.326 26.1994 44.7924V44.4941C26.1994 43.694 25.555 43.0027 24.7577 43.0027C24.2635 43.0027 23.782 43.019 23.3789 43.4633C23.184 43.6782 22.968 44.0982 22.968 44.4941Z" fill="#231F20"/>
<path id="path30" fill-rule="evenodd" clip-rule="evenodd" d="M37.9318 44.9415C37.9318 46.4377 39.1423 46.5153 39.7134 46.1762C39.9079 46.0607 39.9213 45.939 40.1192 45.8861V46.2838H40.8649V43.2016C40.8649 42.9807 40.6329 43.0524 40.1192 43.0524C39.8892 43.0524 39.9692 43.4492 39.97 43.6986C39.971 43.9951 40.0053 45.0941 39.9246 45.2938C39.7588 45.7044 39.0633 45.7996 38.8732 45.3423C38.7167 44.9657 38.7769 43.55 38.7769 43.0524H37.9318V44.9415Z" fill="#231F20"/>
<path id="path32" fill-rule="evenodd" clip-rule="evenodd" d="M93.7109 43.4998C93.7109 42.9826 93.8383 43.0524 92.9652 43.0524V46.2838H93.8103V44.3947C93.8103 43.5124 95.0532 43.3977 95.0532 44.3947V46.2838H95.8983V44.3449C95.8983 43.6481 95.5288 43.0027 94.8543 43.0027C94.5062 43.0027 94.3912 42.9838 94.0778 43.1707C93.8289 43.3191 93.8665 43.3858 93.7109 43.4998Z" fill="#231F20"/>
<path id="path34" fill-rule="evenodd" clip-rule="evenodd" d="M26.7959 43.2015C26.7959 44.649 26.5284 46.3335 27.989 46.3335C28.6341 46.3335 28.64 46.0663 28.9833 45.8364C28.9833 46.3535 28.8559 46.2838 29.729 46.2838V43.0524H28.8839V44.9415C28.8839 45.385 28.6229 45.6375 28.1879 45.6375C27.4402 45.6375 27.641 43.9514 27.641 43.0524C27.0753 43.0524 26.7959 42.9722 26.7959 43.2015Z" fill="#231F20"/>
<path id="path36" fill-rule="evenodd" clip-rule="evenodd" d="M62.2916 45.737C61.6325 45.737 61.6643 44.7426 62.5402 44.7426H62.8882C62.8882 45.0192 62.9538 45.737 62.2916 45.737ZM61.2476 43.2512C61.2528 43.482 61.3292 43.5836 61.347 43.7981C61.5554 43.7807 62.8075 43.1762 62.8882 44.1461C60.2511 44.1461 60.8092 46.3335 61.8939 46.3335C62.4615 46.3335 62.465 46.3022 62.9379 45.9855C63.0061 46.1069 62.9876 46.0775 62.9876 46.2838H63.7831C63.5826 45.4236 64.0145 44.109 63.4164 43.3693C62.9651 42.8111 61.7942 42.962 61.2476 43.2512Z" fill="#231F20"/>
<path id="path38" fill-rule="evenodd" clip-rule="evenodd" d="M48.3221 43.5992C48.7785 43.5992 49.0678 43.6592 49.0678 44.2952H47.7255C47.811 44.117 47.7771 44.0222 47.914 43.8374C48.0043 43.7158 48.1252 43.5992 48.3221 43.5992ZM46.9301 44.5935V44.8421C46.9301 45.6984 47.6147 46.3335 48.4712 46.3335C49.3667 46.3335 49.0472 46.29 49.7141 46.1346C49.6964 45.9224 49.6197 45.7652 49.6147 45.5381C49.1519 45.6459 48.4899 45.8403 48.0203 45.4919C47.8158 45.3402 47.7901 45.1691 47.7255 44.8918H49.8632C49.8797 44.6943 49.913 44.772 49.913 44.6432C49.913 43.7908 49.4682 43.0027 48.6203 43.0027H48.3718C47.5627 43.0027 46.9301 43.7834 46.9301 44.5935Z" fill="#231F20"/>
<path id="path40" fill-rule="evenodd" clip-rule="evenodd" d="M78.7967 43.5992C79.2532 43.5992 79.5424 43.6592 79.5424 44.2952H78.2002C78.2857 44.117 78.2517 44.0222 78.3886 43.8374C78.4789 43.7158 78.5998 43.5992 78.7967 43.5992ZM77.4047 44.5935V44.8421C77.4047 46.1258 78.6514 46.5055 79.7301 46.2726C79.9006 46.2358 80.0359 46.1702 80.1887 46.1346C80.1773 45.9974 80.0865 45.6358 80.0395 45.5381C79.6211 45.7388 78.2859 45.9227 78.2002 44.8918H80.3378C80.346 44.526 80.4252 44.1065 80.1303 43.6079C79.4681 42.4879 77.4047 42.9487 77.4047 44.5935Z" fill="#231F20"/>
<path id="path42" fill-rule="evenodd" clip-rule="evenodd" d="M70.8921 43.5992H71.1407C71.4158 43.5992 71.6378 43.8859 71.6378 44.1461V44.2952H70.2956C70.3657 43.9943 70.5333 43.5992 70.8921 43.5992ZM69.5002 44.5935V44.8421C69.5002 45.9149 70.3126 46.3335 71.3396 46.3335C71.7727 46.3335 71.9531 46.2118 72.2841 46.1346C72.2425 45.9558 72.2045 45.6827 72.135 45.5381C71.7347 45.7301 70.3827 45.9387 70.2956 44.8918H72.4333L72.4531 44.4697C72.4043 43.7357 72.0216 43.0027 71.2402 43.0027H70.8425C70.1205 43.0027 69.5002 43.8445 69.5002 44.5935Z" fill="#231F20"/>
<path id="path44" fill-rule="evenodd" clip-rule="evenodd" d="M21.029 44.4941V46.2838H21.8742V44.5438C21.8742 44.2013 23.2835 42.1986 23.3158 41.8095H22.421L21.5591 43.6819C21.5021 43.7839 21.5233 43.7442 21.4765 43.7981L20.8309 42.3059C20.75 42.1417 20.6668 41.9705 20.5816 41.8095H19.6867C19.7081 42.0657 19.8888 42.2891 20.001 42.4896C20.1305 42.7211 20.2207 42.9064 20.3489 43.1359C20.4174 43.2584 20.4475 43.3435 20.516 43.466C20.6354 43.6797 21.029 44.3115 21.029 44.4941Z" fill="#231F20"/>
<path id="path46" fill-rule="evenodd" clip-rule="evenodd" d="M51.9511 42.8038V43.0524H51.5037V43.6987H51.9511V46.2838H52.7962V43.6987C53.6025 43.6987 53.4922 43.7989 53.4922 43.2016C53.4922 42.985 53.2816 43.0524 52.7962 43.0524C52.7962 42.0287 53.0988 42.2118 53.6414 42.257C53.6867 41.7117 53.8774 41.5113 53.194 41.5113C52.4841 41.5113 51.9511 42.045 51.9511 42.8038Z" fill="#231F20"/>
<path id="path48" fill-rule="evenodd" clip-rule="evenodd" d="M88.839 46.2838H89.6344L90.2367 44.6987C90.3492 44.3881 90.8071 43.2979 90.8275 43.0524H89.9824L89.429 44.7858C89.4019 44.8738 89.369 45.0161 89.3477 45.1022L89.2367 45.3889C89.2 44.9482 88.6717 43.6147 88.5407 43.0524H87.6458C87.663 43.258 87.8506 43.6431 87.9258 43.8661L88.839 46.2838Z" fill="#231F20"/>
<path id="path50" fill-rule="evenodd" clip-rule="evenodd" d="M73.1791 42.4558V43.0524H72.7316V43.6986H73.1791C73.1791 44.8072 72.9408 46.3335 74.0739 46.3335C74.8739 46.3335 74.7699 46.346 74.7699 45.6375C73.8966 45.6375 74.0242 45.7163 74.0242 43.6986H74.7699V43.0524H74.0242V42.257C73.7146 42.2638 73.4718 42.4315 73.1791 42.4558Z" fill="#231F20"/>
<path id="path52" fill-rule="evenodd" clip-rule="evenodd" d="M75.466 42.4558V43.0524H75.0186V43.6986H75.466C75.466 44.7963 75.2333 46.3335 76.3608 46.3335C77.1609 46.3335 77.0568 46.346 77.0568 45.6375C76.1835 45.6375 76.3111 45.7163 76.3111 43.6986H77.0568V43.0524H76.3111V42.257C76.0014 42.2638 75.7587 42.4315 75.466 42.4558Z" fill="#231F20"/>
<path id="path54" fill-rule="evenodd" clip-rule="evenodd" d="M84.6133 46.1346C84.6133 46.3555 84.8453 46.2838 85.359 46.2838C85.4735 46.2838 85.5081 46.2492 85.5081 46.1346V41.6107H84.6133V46.1346Z" fill="#231F20"/>
<path id="path56" fill-rule="evenodd" clip-rule="evenodd" d="M31.27 43.5992C31.27 42.9724 31.409 43.0524 30.5243 43.0524V46.1346C30.5243 46.3639 30.8037 46.2838 31.3694 46.2838C31.3694 45.5023 31.1735 43.7981 31.966 43.7981H32.3637V43.0027C31.8948 43.0027 31.6959 42.9744 31.3517 43.482C31.3435 43.4941 31.319 43.5313 31.3119 43.5416C31.3067 43.5491 31.2952 43.5646 31.291 43.5705C31.2869 43.5765 31.2777 43.5903 31.27 43.5992Z" fill="#231F20"/>
<path id="path58" fill-rule="evenodd" clip-rule="evenodd" d="M58.2649 43.5992C58.2649 42.9724 58.4039 43.0524 57.5192 43.0524V46.1346C57.5192 46.3639 57.7987 46.2838 58.3643 46.2838C58.3643 45.4626 58.1649 43.7981 58.9609 43.7981H59.3586V43.0027C58.9872 43.0027 58.8444 42.959 58.5736 43.2119L58.2649 43.5992Z" fill="#231F20"/>
<path id="path60" fill-rule="evenodd" clip-rule="evenodd" d="M81.6802 43.5495V43.0524H80.9344C80.9344 43.4638 80.9842 43.6754 80.9842 44.0964V46.2838C82.0309 46.2838 81.8359 46.5396 81.8292 44.8419C81.8281 44.5604 81.8123 44.3285 81.911 44.1283C82.0964 43.7522 82.4612 43.7981 82.7739 43.7981V43.0027C81.8153 43.0027 82.0776 43.2834 81.6802 43.5495Z" fill="#231F20"/>
<path id="path62" fill-rule="evenodd" clip-rule="evenodd" d="M91.3246 46.2838C91.8903 46.2838 92.1698 46.3639 92.1698 46.1346V43.2015C92.1698 42.9722 91.8903 43.0524 91.3246 43.0524V46.2838Z" fill="#231F20"/>
<path id="path64" fill-rule="evenodd" clip-rule="evenodd" d="M86.3035 46.2838H87.1487V43.0524H86.3035V46.2838Z" fill="#231F20"/>
<path id="path66" fill-rule="evenodd" clip-rule="evenodd" d="M41.6603 46.2838H42.5055V43.0524H41.6603V46.2838Z" fill="#231F20"/>
<path id="path68" fill-rule="evenodd" clip-rule="evenodd" d="M100.671 44.9415H101.168C101.168 44.648 101.22 44.4927 101.218 44.1464C101.217 43.8603 101.206 43.5948 101.246 43.3296C101.308 42.9222 101.231 42.5303 101.294 42.0735C101.341 41.7366 101.333 41.8095 100.422 41.8095C100.422 42.0906 100.417 42.3763 100.42 42.6566L100.514 44.2528C100.544 44.5182 100.423 44.9415 100.671 44.9415Z" fill="#231F20"/>
<path id="path70" fill-rule="evenodd" clip-rule="evenodd" d="M100.323 45.7866C100.323 46.4722 101.367 46.5715 101.367 45.7866C101.367 45.0896 100.323 45.1659 100.323 45.7866Z" fill="#231F20"/>
<path id="path72" fill-rule="evenodd" clip-rule="evenodd" d="M41.6107 42.1575C41.6107 42.7549 42.5552 42.8661 42.5552 42.1575C42.5552 41.5013 41.6107 41.6657 41.6107 42.1575Z" fill="#231F20"/>
<path id="path74" fill-rule="evenodd" clip-rule="evenodd" d="M86.751 42.6547C87.3444 42.6547 87.3444 41.7101 86.751 41.7101C86.1274 41.7101 86.1254 42.6547 86.751 42.6547Z" fill="#231F20"/>
<path id="path76" fill-rule="evenodd" clip-rule="evenodd" d="M91.275 42.1576C91.275 42.8733 92.1795 42.7287 92.2064 42.2015C92.2358 41.6262 91.275 41.5173 91.275 42.1576Z" fill="#231F20"/>
</g>
</svg>
