<svg width="300" height="144" viewBox="0 0 300 144" fill="none" xmlns="http://www.w3.org/2000/svg">
<path d="M140.019 70.2466V104.95H129.006V19.2524H158.203C165.602 19.2524 171.912 21.7192 177.074 26.6522C182.352 31.5853 184.99 37.6081 184.99 44.7208C184.99 52.0058 182.352 58.0286 177.074 62.9042C171.969 67.7798 165.66 70.1892 158.203 70.1892H140.019V70.2466ZM140.019 29.8069V59.6921H158.432C162.792 59.6921 166.463 58.2009 169.331 55.2753C172.256 52.3497 173.747 48.7936 173.747 44.7782C173.747 40.8202 172.256 37.321 169.331 34.396C166.462 31.3556 162.849 29.8644 158.432 29.8644H140.019V29.8069Z" fill="#383E41"/>
<path d="M213.786 44.377C221.931 44.377 228.356 46.5566 233.059 50.916C237.763 55.2754 240.114 61.2408 240.114 68.8129V104.951H229.617V96.8055H229.158C224.627 103.517 218.547 106.844 210.975 106.844C204.493 106.844 199.101 104.951 194.742 101.107C190.382 97.2643 188.203 92.5029 188.203 86.7672C188.203 80.6869 190.497 75.8687 195.086 72.3121C199.675 68.6986 205.813 66.9203 213.442 66.9203C219.981 66.9203 225.373 68.125 229.56 70.5338V68.0102C229.56 64.167 228.069 60.9549 225.029 58.259C221.988 55.5631 218.432 54.2436 214.359 54.2436C208.222 54.2436 203.346 56.8246 199.79 62.0447L190.095 55.9645C195.43 48.2201 203.346 44.377 213.786 44.377ZM199.56 86.9389C199.56 89.807 200.765 92.2164 203.231 94.109C205.641 96.0022 208.509 96.9771 211.778 96.9771C216.425 96.9771 220.555 95.2562 224.169 91.8144C227.783 88.3727 229.618 84.3572 229.618 79.7113C226.176 77.0154 221.415 75.6385 215.278 75.6385C210.803 75.6385 207.075 76.7283 204.092 78.8506C201.052 81.0877 199.56 83.7842 199.56 86.9389Z" fill="#383E41"/>
<path d="M300 46.2695L263.289 130.705H251.931L265.583 101.164L241.376 46.2695H253.365L270.803 88.3727H271.033L288.011 46.2695H300Z" fill="#383E41"/>
<path d="M95.2946 52.9175H49.1304V71.8468L75.7173 71.8526C74.6392 78.1509 71.1687 83.5198 65.8513 87.0993V87.1028C65.853 87.1017 65.8554 87.1005 65.8571 87.0993L65.3784 98.4132L81.6833 99.3747C81.681 99.3765 81.6786 99.3788 81.6769 99.3806C90.9177 90.8282 96.2128 78.1854 96.2128 63.2487C96.2122 59.6575 95.8911 56.2216 95.2946 52.9175Z" fill="#0085F7"/>
<path d="M65.8564 87.0994C65.8546 87.1006 65.8523 87.1018 65.8505 87.1029C61.446 90.0719 55.7748 91.8086 49.1414 91.8086C36.321 91.8086 25.4455 83.1701 21.5507 71.5258H21.549C21.5496 71.5275 21.5501 71.5299 21.5507 71.5316L7.93882 69.376L5.22827 84.1949C13.3171 100.243 29.939 111.254 49.1419 111.254C62.4117 111.254 73.5603 106.891 81.6767 99.3801C81.6791 99.3783 81.6814 99.3766 81.6832 99.3742L65.8564 87.0994Z" fill="#00A94B"/>
<path d="M20.0133 62.1295C20.0133 58.86 20.5582 55.6994 21.5508 52.7281L17.3004 40.0625H5.22539C1.88145 46.6994 0 54.1906 0 62.1295C0 70.0684 1.8873 77.5596 5.22539 84.1965L5.22773 84.1947L21.5508 71.5309C21.5502 71.5291 21.5496 71.5273 21.549 71.525C20.5576 68.5561 20.0133 65.3973 20.0133 62.1295Z" fill="#FFBB00"/>
<path d="M49.1414 13C29.9425 13 13.3136 24.0133 5.22534 40.0633L21.5501 52.7289C25.4449 41.0846 36.3205 32.4461 49.1408 32.4461C56.3853 32.4461 62.8734 34.9416 67.9957 39.8172L82.0207 25.8039C73.5029 17.8697 62.3976 13 49.1414 13Z" fill="#FF4031"/>
</svg>
