<svg width="300" height="144" viewBox="0 0 300 144" fill="none" xmlns="http://www.w3.org/2000/svg">
<path d="M150.306 125.385C164.833 112.265 174.001 93.225 174.001 72.0709C174.001 50.9152 164.833 31.8747 150.306 18.6172C137.613 7.0524 120.689 0.000488281 102.071 0.000488281C62.298 0.000488281 30 32.2984 30 72.0715C30 111.843 62.298 144 102.071 144C120.688 143.999 137.612 136.949 150.306 125.385Z" fill="#0097D9"/>
<path d="M150.306 125.384C164.833 112.264 174.001 93.2245 174.001 72.0704C174.001 50.9147 164.833 31.8742 150.306 18.6167V125.384Z" fill="#0097D9"/>
<path d="M198.682 0C180.065 0 163.14 7.05192 150.306 18.6167C147.768 21.0143 145.37 23.5528 143.113 26.2327H157.64C159.616 28.6303 161.448 31.3102 163.141 33.8492H137.614C136.062 36.3877 134.651 38.9256 133.382 41.4652H167.231C168.36 44.0031 169.488 46.5427 170.334 49.0806H130.421C129.575 51.6202 128.87 54.1581 128.305 56.838H172.45C173.437 61.6331 174.002 66.8515 174.002 72.0704C174.002 79.9681 172.732 87.7261 170.334 94.9194H130.421C131.267 97.4568 132.255 99.9953 133.383 102.535H167.231C165.963 105.074 164.694 107.753 163.142 110.149H137.613C139.305 112.828 141.138 115.369 143.113 117.765H157.64C155.384 120.444 152.985 122.983 150.307 125.383C163.141 136.947 180.066 143.998 198.682 143.998C238.455 143.998 270.612 111.841 270.612 72.0693C270.611 32.2979 238.454 0 198.682 0Z" fill="#E40520"/>
<path d="M90.7868 92.0984H81.761L87.1208 64.0316L74.85 92.0984H67.2346L65.6822 64.1719L59.7589 92.0984H51.5784L58.49 55.5693H72.7347L72.8756 78.1343L82.7494 55.5693H97.8393L90.7868 92.0984Z" fill="#06326E"/>
<path d="M190.925 91.676C188.386 92.3809 186.553 92.6638 184.436 92.6638C179.924 92.6638 177.385 90.4071 177.385 86.1748C177.385 85.3273 177.527 84.3396 177.668 83.4971L178.231 80.5355L178.656 78.2788L182.746 55.5718H191.63L190.362 62.3414H194.875L193.745 69.5336H189.092L186.694 81.9453C186.694 82.5111 186.553 82.9331 186.553 83.216C186.553 84.7683 187.54 85.3302 189.655 85.3302C190.643 85.3302 191.489 85.3301 192.054 85.0512L190.925 91.676Z" fill="#06326E"/>
<path d="M155.383 71.7877C155.383 75.4537 157.499 78.1342 162.152 79.9683C165.962 81.5207 166.525 81.9427 166.525 83.3514C166.525 85.1867 164.833 86.0336 161.307 86.0336C158.487 86.0336 156.089 85.6081 153.126 84.7635L151.857 91.674H152.28L153.974 91.9557C154.538 92.096 155.242 92.2363 156.371 92.2363C158.487 92.3789 160.18 92.5181 161.308 92.5181C170.899 92.5181 175.27 89.4178 175.27 82.6459C175.27 78.5573 173.437 76.1569 168.924 74.3251C165.116 72.913 164.693 72.4909 164.693 71.0822C164.693 69.5293 166.245 68.6835 169.066 68.6835C170.899 68.6835 173.295 68.825 175.694 69.1078L176.964 62.3376C174.566 61.915 171.04 61.6333 168.925 61.6333C158.769 61.6339 155.241 66.2876 155.383 71.7877Z" fill="#06326E"/>
<path d="M119.841 92.098H112.367L112.508 88.9967C110.251 91.3937 107.148 92.5201 103.058 92.5201C98.2626 92.5201 94.8772 89.2767 94.8772 84.4832C94.8772 77.2899 100.66 73.0587 110.674 73.0587C111.661 73.0587 112.931 73.0587 114.341 73.1984C114.623 72.2129 114.623 71.7886 114.623 71.3666C114.623 69.3922 113.072 68.5453 108.841 68.5453C106.302 68.5453 103.481 68.9695 101.507 69.3927L100.238 69.8148L99.3906 69.9562L100.661 63.3269C105.174 62.0579 108.135 61.6348 111.38 61.6348C119.137 61.6348 123.227 64.7373 123.227 70.3799C123.227 71.9312 123.085 72.9173 122.381 76.3038L120.546 86.741L120.266 88.716L119.983 90.2667L119.841 91.2528V92.098ZM113.777 78.8405C112.79 78.698 112.366 78.698 111.661 78.698C106.583 78.698 104.045 80.2509 104.045 83.212C104.045 85.0472 105.314 86.1725 107.289 86.1725C110.955 86.1736 113.635 83.2126 113.777 78.8405Z" fill="#06326E"/>
<path d="M149.179 91.3938C146.215 92.239 143.255 92.6644 140.01 92.6644C129.996 92.6644 124.777 88.0101 124.777 79.2649C124.777 69.1099 131.406 61.6343 140.433 61.6343C147.908 61.6343 152.562 65.8654 152.562 72.3533C152.562 74.61 152.279 76.7242 151.433 79.6864H133.663C133.522 80.2516 133.522 80.3913 133.522 80.6736C133.522 84.0601 136.201 85.8925 141.42 85.8925C144.664 85.8925 147.485 85.3268 150.727 83.9176L149.179 91.3938ZM144.947 73.7631C144.947 73.0582 144.947 72.6362 144.947 72.2124C144.947 69.8148 143.394 68.4039 140.715 68.4039C137.893 68.4039 135.779 70.2369 134.931 73.7631H144.947Z" fill="#06326E"/>
<path d="M244.801 78.5598C243.532 88.4319 236.622 92.8033 227.454 92.8033C217.3 92.8033 213.209 86.7392 213.209 79.1255C213.209 68.6854 220.119 61.4932 230.838 61.4932C240.147 61.4932 245.084 67.4164 245.084 74.8926C245.084 76.724 245.084 76.8671 244.801 78.5598ZM235.775 75.0318C235.775 71.9293 234.506 68.9677 230.838 68.9677C226.326 68.9677 223.365 74.4672 223.365 79.1238C223.365 83.2124 225.339 85.8923 228.582 85.8923C230.558 85.8923 234.646 83.213 235.493 78.5598C235.635 77.572 235.775 76.3019 235.775 75.0318Z" fill="#06326E"/>
<path d="M245.789 87.5848C245.789 86.3148 246.916 85.3281 248.186 85.3281C249.457 85.3281 250.443 86.3159 250.443 87.5848C250.443 88.8538 249.456 89.9841 248.186 89.9841C246.917 89.9841 245.789 88.8538 245.789 87.5848ZM248.186 89.4195C249.174 89.4195 249.879 88.5709 249.879 87.5837C249.879 86.5965 249.174 85.8922 248.186 85.8922C247.199 85.8922 246.353 86.5965 246.353 87.5837C246.353 88.5709 247.199 89.4195 248.186 89.4195ZM247.903 88.5709H247.341V86.596H248.186C248.469 86.596 248.611 86.596 248.75 86.7385C248.892 86.8788 249.033 87.0186 249.033 87.1611C249.033 87.444 248.892 87.7257 248.611 87.7257L249.033 88.5709H248.469L248.186 87.866H247.903V88.5709ZM247.903 87.4445H248.186H248.469C248.469 87.4445 248.469 87.302 248.469 87.1628V87.0202C248.328 87.0202 248.186 87.0202 248.045 87.0202H247.903V87.4445Z" fill="white"/>
<path d="M93.0435 89.9843H84.0172L89.3775 61.9164L77.1067 89.9843H68.9267L67.5163 62.0578L62.1576 89.9843H53.9771L60.8875 53.4541H74.9908L75.6963 76.0197L85.569 53.4541H100.096L93.0435 89.9843Z" fill="white"/>
<path d="M193.182 89.5577C190.643 90.2638 188.809 90.5455 186.693 90.5455C182.181 90.5455 179.642 88.2888 179.642 84.0599C179.642 83.2124 179.784 82.3644 179.924 81.3783L180.488 78.4172L180.913 76.1599L185.002 53.4546H193.887L192.618 60.2242H197.273L196.003 67.417H191.348L189.092 79.8298C188.951 80.3922 188.809 80.8171 188.809 81.0971C188.809 82.65 189.797 83.3538 191.912 83.3538C192.9 83.3538 193.745 83.2146 194.309 83.0721L193.182 89.5577Z" fill="white"/>
<path d="M216.171 68.8267L216.029 67.8395L217.722 63.1852C217.3 63.1852 217.159 63.1852 217.018 63.0449C216.595 63.0449 216.312 62.9035 216.312 62.9035C216.029 62.9035 215.747 62.9035 215.466 62.9035C212.505 62.9035 210.388 64.1724 207.567 67.6992L208.555 62.3389H199.247L193.745 92.0978H202.63C203.901 85.1873 204.464 81.3776 205.17 78.1337C206.298 72.7745 210.247 70.3786 213.208 70.9426C213.49 70.9426 213.772 70.9426 214.196 71.084L214.759 71.3663L216.171 68.8267Z" fill="#06326E"/>
<path d="M219.274 60.5064C218.568 60.2241 218.427 60.2241 218.287 60.2241C217.863 60.0827 217.581 60.0827 217.581 59.9424C217.299 59.9424 217.017 59.9424 216.594 59.9424C213.631 59.9424 211.516 61.2113 208.837 64.737L209.682 60.2236H201.503L196.002 89.9842H205.029C208.272 71.7884 209.541 68.545 213.913 68.545C214.196 68.545 214.618 68.6853 215.042 68.6853L216.029 68.9687L219.274 60.5064Z" fill="white"/>
<path d="M157.64 69.6732C157.64 73.3408 159.756 76.0196 164.55 77.8548C168.216 79.4038 168.782 79.8298 168.782 81.2385C168.782 83.0704 167.089 83.9173 163.563 83.9173C160.884 83.9173 158.344 83.4952 155.382 82.6478L154.253 89.5577H154.678L156.229 89.9837C156.794 89.9837 157.64 90.1234 158.627 90.1234C160.743 90.4063 162.433 90.4063 163.704 90.4063C173.152 90.4063 177.666 87.3015 177.666 80.5336C177.666 76.4416 175.832 74.0446 171.179 72.2122C167.371 70.8007 166.947 70.3786 166.947 68.9682C166.947 67.4164 168.5 66.5712 171.46 66.5712C173.152 66.5712 175.691 66.7121 177.949 66.9938L179.217 60.2242C176.821 59.801 173.294 59.6602 171.32 59.6602C161.166 59.659 157.64 64.1719 157.64 69.6732Z" fill="white"/>
<path d="M122.097 89.9839H114.764L114.905 86.8797C112.648 89.2767 109.545 90.4065 105.455 90.4065C100.66 90.4065 97.2751 87.1626 97.2751 82.3657C97.2751 75.1729 103.058 70.9423 113.072 70.9423C114.058 70.9423 115.328 70.9423 116.739 71.0838C117.021 70.096 117.021 69.6728 117.021 69.2485C117.021 67.2752 115.468 66.5703 111.238 66.5703C108.699 66.5703 105.878 66.852 103.904 67.2758L102.634 67.6989L101.789 67.8393L103.058 61.2099C107.572 60.0813 110.391 59.6587 113.777 59.6587C121.532 59.6587 125.481 62.6209 125.481 68.2619C125.481 69.8137 125.341 70.9418 124.776 74.1851L122.944 84.7655L122.662 86.5974L122.38 88.1498L122.239 89.1376L122.097 89.9839ZM115.609 76.7242C114.623 76.5844 114.2 76.5844 113.635 76.5844C108.558 76.5844 106.019 78.1346 106.019 81.0962C106.019 82.9314 107.148 84.1993 109.122 84.1993C112.789 84.1993 115.468 81.0962 115.609 76.7242Z" fill="white"/>
<path d="M151.575 89.276C148.472 90.1234 145.51 90.5455 142.408 90.5455C132.394 90.5455 127.175 85.8923 127.175 77.146C127.175 66.9932 133.804 59.5176 142.831 59.5176C150.165 59.5176 154.819 63.7493 154.819 70.2366C154.819 72.4933 154.536 74.6103 153.831 77.572H135.919V78.5597C135.919 81.9428 138.458 83.7786 143.676 83.7786C146.92 83.7786 149.882 83.2129 152.983 81.9428L151.575 89.276ZM146.78 71.6481C146.78 71.0835 146.78 70.5178 146.78 70.0957C146.78 67.6987 145.228 66.2872 142.549 66.2872C139.728 66.2872 137.754 68.2616 136.906 71.6476L146.78 71.6481Z" fill="white"/>
<path d="M247.199 76.4418C245.789 86.3145 238.877 90.6893 229.71 90.6893C219.696 90.6893 215.605 84.6223 215.605 77.0069C215.605 66.5702 222.518 59.3774 233.236 59.3774C242.545 59.3774 247.481 65.3007 247.481 72.7752C247.481 74.6099 247.481 74.7491 247.199 76.4418ZM237.89 72.6361C237.89 69.5319 236.621 66.7117 232.954 66.7117C228.441 66.7117 225.621 72.0709 225.621 76.8672C225.621 80.8161 227.596 83.496 230.699 83.496C232.674 83.496 236.904 80.8172 237.609 76.3032C237.89 75.1711 237.89 73.9056 237.89 72.6361Z" fill="white"/>
</svg>
