<svg width="20" height="20" viewBox="0 0 20 20" fill="none" xmlns="http://www.w3.org/2000/svg">
<g clip-path="url(#clip0_306_10434)">
<path d="M10.8334 0.833321C10.8334 0.612308 10.9212 0.400346 11.0774 0.244066C11.2337 0.0877854 11.4457 -1.1967e-05 11.6667 -1.1967e-05C13.8761 0.00241436 15.9943 0.881167 17.5566 2.44344C19.1188 4.00572 19.9976 6.12393 20 8.33332C20 8.55434 19.9122 8.7663 19.756 8.92258C19.5997 9.07886 19.3877 9.16666 19.1667 9.16666C18.9457 9.16666 18.7337 9.07886 18.5774 8.92258C18.4212 8.7663 18.3334 8.55434 18.3334 8.33332C18.3314 6.56582 17.6284 4.87128 16.3785 3.62147C15.1287 2.37166 13.4342 1.66864 11.6667 1.66665C11.4457 1.66665 11.2337 1.57886 11.0774 1.42258C10.9212 1.2663 10.8334 1.05434 10.8334 0.833321ZM11.6667 4.99999C12.5508 4.99999 13.3986 5.35118 14.0237 5.9763C14.6488 6.60142 15 7.44927 15 8.33332C15 8.55434 15.0878 8.7663 15.2441 8.92258C15.4004 9.07886 15.6123 9.16666 15.8334 9.16666C16.0544 9.16666 16.2663 9.07886 16.4226 8.92258C16.5789 8.7663 16.6667 8.55434 16.6667 8.33332C16.6654 7.00765 16.1382 5.73664 15.2008 4.79925C14.2634 3.86185 12.9924 3.33465 11.6667 3.33332C11.4457 3.33332 11.2337 3.42112 11.0774 3.5774C10.9212 3.73368 10.8334 3.94564 10.8334 4.16665C10.8334 4.38767 10.9212 4.59963 11.0774 4.75591C11.2337 4.91219 11.4457 4.99999 11.6667 4.99999ZM19.2442 13.9492C19.7271 14.4334 19.9983 15.0894 19.9983 15.7733C19.9983 16.4572 19.7271 17.1132 19.2442 17.5975L18.4859 18.4717C11.6609 25.0058 -4.94747 8.40165 1.48586 1.55499L2.4442 0.721655C2.929 0.252219 3.57914 -0.00747107 4.25395 -0.00123293C4.92876 0.0050052 5.57398 0.27667 6.05003 0.754988C6.07586 0.780821 7.62003 2.78665 7.62003 2.78665C8.07822 3.26801 8.33328 3.90743 8.3322 4.57199C8.33111 5.23655 8.07396 5.87513 7.6142 6.35499L6.6492 7.56832C7.18324 8.86591 7.96842 10.0452 8.95962 11.0384C9.95082 12.0316 11.1285 12.8192 12.425 13.3558L13.6459 12.385C14.1258 11.9256 14.7642 11.6687 15.4286 11.6678C16.093 11.6669 16.7322 11.9219 17.2134 12.38C17.2134 12.38 19.2184 13.9233 19.2442 13.9492ZM18.0975 15.1608C18.0975 15.1608 16.1034 13.6267 16.0775 13.6008C15.9058 13.4306 15.6739 13.3351 15.4321 13.3351C15.1903 13.3351 14.9584 13.4306 14.7867 13.6008C14.7642 13.6242 13.0834 14.9633 13.0834 14.9633C12.9701 15.0535 12.8353 15.1126 12.6922 15.1348C12.5492 15.157 12.4028 15.1416 12.2675 15.09C10.5879 14.4646 9.06231 13.4856 7.79406 12.2192C6.52581 10.9528 5.54453 9.42868 4.9167 7.74999C4.86103 7.61287 4.84288 7.4634 4.86412 7.31694C4.88535 7.17048 4.94521 7.03232 5.03753 6.91666C5.03753 6.91666 6.3767 5.23499 6.3992 5.21332C6.56942 5.04164 6.66493 4.80967 6.66493 4.56791C6.66493 4.32614 6.56942 4.09417 6.3992 3.92249C6.37336 3.89749 4.8392 1.90165 4.8392 1.90165C4.66495 1.74541 4.43753 1.66173 4.20357 1.66778C3.96961 1.67382 3.74681 1.76912 3.58086 1.93415L2.62253 2.76749C-2.07914 8.42082 12.3134 22.015 17.2675 17.3333L18.0267 16.4583C18.2046 16.2935 18.3114 16.066 18.3247 15.8239C18.3379 15.5818 18.2564 15.344 18.0975 15.1608Z" fill="#5C5C7C"/>
</g>
<defs>
<clipPath id="clip0_306_10434">
<rect width="20" height="20" fill="white"/>
</clipPath>
</defs>
</svg>
