<svg width="14" height="14" viewBox="0 0 14 14" fill="none" xmlns="http://www.w3.org/2000/svg">
<path d="M7.19026 0C3.35321 0 1.31262 2.45886 1.31262 5.13998C1.31262 6.38341 2.0074 7.93398 3.11958 8.42575C3.28846 8.50188 3.38034 8.46951 3.41797 8.31287C3.45122 8.19387 3.59735 7.62072 3.66823 7.35033C3.6901 7.2637 3.67873 7.18845 3.60873 7.10707C3.23946 6.68005 2.94632 5.90214 2.94632 5.17236C2.94632 3.3024 4.43301 1.48669 6.96275 1.48669C9.15035 1.48669 10.6808 2.90776 10.6808 4.94047C10.6808 7.23745 9.46536 8.82652 7.88592 8.82652C7.01175 8.82652 6.36072 8.14049 6.56723 7.2917C6.81662 6.28103 7.30577 5.19423 7.30577 4.46533C7.30577 3.81167 6.9365 3.2709 6.18222 3.2709C5.2923 3.2709 4.57039 4.15206 4.57039 5.33511C4.57039 6.08677 4.83641 6.5943 4.83641 6.5943C4.83641 6.5943 3.95612 10.1505 3.79248 10.8146C3.51597 11.939 3.83011 13.76 3.85724 13.9166C3.87386 14.0033 3.97099 14.0304 4.02524 13.9595C4.11187 13.8457 5.17592 12.3276 5.47431 11.2303C5.58281 10.8304 6.02821 9.20891 6.02821 9.20891C6.32135 9.73831 7.16751 10.182 8.0688 10.182C10.7499 10.182 12.6873 7.82548 12.6873 4.90109C12.6776 2.09747 10.2783 0 7.19026 0Z" fill="white"/>
</svg>
