<svg width="80" height="80" viewBox="0 0 80 80" fill="none" xmlns="http://www.w3.org/2000/svg">
<circle cx="40" cy="40" r="40" fill="#CFE6FF"/>
<g clip-path="url(#clip0_267_10504)">
<path d="M41.6667 26.6667C41.6667 27.1087 41.8423 27.5326 42.1548 27.8452C42.4674 28.1577 42.8913 28.3333 43.3333 28.3333H49.9433C49.8206 27.2511 49.3457 26.2392 48.5917 25.4533L44.785 21.5217C43.9523 20.6776 42.8475 20.1556 41.6667 20.0483V26.6667ZM38.3333 26.6667V20H31.6667C29.4573 20.0026 27.3393 20.8815 25.777 22.4437C24.2148 24.0059 23.336 26.124 23.3333 28.3333V45C23.336 47.2093 24.2148 49.3274 25.777 50.8896C27.3393 52.4519 29.4573 53.3307 31.6667 53.3333H41.6667C43.876 53.3307 45.9941 52.4519 47.5563 50.8896C49.1185 49.3274 49.9974 47.2093 50 45V31.6667H43.3333C42.0073 31.6667 40.7355 31.1399 39.7978 30.2022C38.8601 29.2645 38.3333 27.9927 38.3333 26.6667ZM48.3333 60H33.3333C32.8913 60 32.4674 59.8244 32.1548 59.5118C31.8423 59.1993 31.6667 58.7754 31.6667 58.3333C31.6667 57.8913 31.8423 57.4674 32.1548 57.1548C32.4674 56.8423 32.8913 56.6667 33.3333 56.6667H48.3333C49.6594 56.6667 50.9312 56.1399 51.8689 55.2022C52.8065 54.2645 53.3333 52.9927 53.3333 51.6667V33.3333C53.3333 32.8913 53.5089 32.4674 53.8215 32.1548C54.134 31.8423 54.558 31.6667 55 31.6667C55.442 31.6667 55.866 31.8423 56.1785 32.1548C56.4911 32.4674 56.6667 32.8913 56.6667 33.3333V51.6667C56.664 53.876 55.7852 55.9941 54.223 57.5563C52.6607 59.1185 50.5427 59.9974 48.3333 60Z" fill="#004A98"/>
</g>
<defs>
<clipPath id="clip0_267_10504">
<rect width="40" height="40" fill="white" transform="translate(20 20)"/>
</clipPath>
</defs>
</svg>
