<svg width="80" height="80" viewBox="0 0 80 80" fill="none" xmlns="http://www.w3.org/2000/svg">
<g clip-path="url(#clip0_269_10505)">
<path d="M40 80C62.0914 80 80 62.0914 80 40C80 17.9086 62.0914 0 40 0C17.9086 0 0 17.9086 0 40C0 62.0914 17.9086 80 40 80Z" fill="#0077B5"/>
<path d="M18.0267 32.4978H28.6578V62.2222H18.0267V32.4978Z" fill="white"/>
<path d="M51.2178 32.4623C43.6267 32.4623 42.3645 36.6223 42.3645 36.6223V32.4978H34.1511V62.2223H42.4533C42.4533 62.2223 42.4533 47.5023 42.4533 45.0845C42.4533 42.6489 43.8578 39.4489 48.3378 39.4489C52.8 39.4489 53.3333 43.8223 53.2978 44.3556C53.2445 44.8889 53.2089 62.2223 53.2089 62.2223H61.9733C61.9733 62.2223 61.9733 45.3156 61.9733 41.6001C61.9733 34.8978 57.4933 32.4623 51.2178 32.4623Z" fill="white"/>
<path d="M23.36 28.4089C26.2957 28.4089 28.6755 26.0291 28.6755 23.0934C28.6755 20.1577 26.2957 17.7778 23.36 17.7778C20.4243 17.7778 18.0444 20.1577 18.0444 23.0934C18.0444 26.0291 20.4243 28.4089 23.36 28.4089Z" fill="white"/>
</g>
<defs>
<clipPath id="clip0_269_10505">
<rect width="80" height="80" fill="white"/>
</clipPath>
</defs>
</svg>
