<svg width="81" height="80" viewBox="0 0 81 80" fill="none" xmlns="http://www.w3.org/2000/svg">
<path d="M40.5 75.1562C59.9163 75.1562 75.6562 59.4163 75.6562 40C75.6562 20.5837 59.9163 4.84375 40.5 4.84375C21.0837 4.84375 5.34375 20.5837 5.34375 40C5.34375 59.4163 21.0837 75.1562 40.5 75.1562Z" fill="url(#paint0_linear_267_6913)"/>
<path d="M47.9687 20.4688H33.0469C26.3906 20.4688 20.9844 25.875 20.9844 32.5312V47.4531C20.9844 54.1094 26.3906 59.5156 33.0469 59.5156H47.9687C54.625 59.5156 60.0312 54.1094 60.0312 47.4531V32.5312C60.0312 25.875 54.625 20.4688 47.9687 20.4688ZM55.6719 47.4687C55.6719 51.7187 52.2188 55.1875 47.9531 55.1875H33.0312C28.7812 55.1875 25.3125 51.7344 25.3125 47.4687V32.5469C25.3125 28.2969 28.7656 24.8281 33.0312 24.8281H47.9531C52.2031 24.8281 55.6719 28.2813 55.6719 32.5469V47.4687Z" fill="white"/>
<path d="M40.5 30.0156C35 30.0156 30.5156 34.5 30.5156 40C30.5156 45.5 35 49.9844 40.5 49.9844C46 49.9844 50.4844 45.5 50.4844 40C50.4844 34.5 46 30.0156 40.5 30.0156ZM40.5 46.0625C37.1562 46.0625 34.4375 43.3437 34.4375 40C34.4375 36.6562 37.1562 33.9375 40.5 33.9375C43.8437 33.9375 46.5625 36.6562 46.5625 40C46.5625 43.3437 43.8437 46.0625 40.5 46.0625Z" fill="white"/>
<path d="M51.2446 31.1102C52.1645 30.9611 52.7893 30.0945 52.6402 29.1746C52.4911 28.2548 51.6245 27.63 50.7046 27.7791C49.7848 27.9282 49.1599 28.7948 49.3091 29.7146C49.4582 30.6345 50.3248 31.2593 51.2446 31.1102Z" fill="white"/>
<defs>
<linearGradient id="paint0_linear_267_6913" x1="13.7311" y1="66.7689" x2="63.692" y2="16.808" gradientUnits="userSpaceOnUse">
<stop stop-color="#FEE411"/>
<stop offset="0.0518459" stop-color="#FEDB16"/>
<stop offset="0.1381" stop-color="#FEC125"/>
<stop offset="0.2481" stop-color="#FE983D"/>
<stop offset="0.3762" stop-color="#FE5F5E"/>
<stop offset="0.5" stop-color="#FE2181"/>
<stop offset="1" stop-color="#9000DC"/>
</linearGradient>
</defs>
</svg>
