<svg width="20" height="20" viewBox="0 0 20 20" fill="none" xmlns="http://www.w3.org/2000/svg">
<g id="Group">
<g id="Group_2">
<path id="Vector" d="M18.6703 10.2591C18.5898 10.0944 18.5898 9.90558 18.6703 9.74097L19.4162 8.215C19.8315 7.36536 19.5024 6.35267 18.6671 5.90943L17.1667 5.11334C17.0048 5.02748 16.8938 4.87467 16.8622 4.69424L16.5687 3.02124C16.4053 2.08977 15.5437 1.46383 14.6075 1.59629L12.9257 1.83418C12.7442 1.85981 12.5647 1.80145 12.433 1.67406L11.2123 0.493134C10.5326 -0.16444 9.46774 -0.164479 8.78806 0.493134L7.56728 1.67418C7.43556 1.8016 7.25607 1.85985 7.07459 1.8343L5.39284 1.59641C4.45632 1.46387 3.595 2.08988 3.4316 3.02136L3.13817 4.69428C3.10649 4.87475 2.99551 5.02752 2.83368 5.11342L1.3333 5.90951C0.49791 6.35271 0.168849 7.36548 0.584159 8.21512L1.33005 9.74105C1.41052 9.9057 1.41052 10.0945 1.33005 10.2591L0.58412 11.7851C0.16881 12.6347 0.497871 13.6474 1.33326 14.0906L2.83364 14.8867C2.99551 14.9726 3.10649 15.1254 3.13817 15.3058L3.4316 16.9788C3.58035 17.8268 4.30746 18.4215 5.14312 18.4214C5.22542 18.4214 5.30894 18.4156 5.39288 18.4037L7.07463 18.1658C7.256 18.1401 7.4356 18.1986 7.56732 18.326L8.78806 19.5069C9.12798 19.8357 9.56399 20.0001 10.0002 20.0001C10.4362 20 10.8725 19.8356 11.2123 19.5069L12.433 18.326C12.5648 18.1986 12.7443 18.1404 12.9257 18.1658L14.6075 18.4037C15.5441 18.5362 16.4053 17.9103 16.5687 16.9788L16.8622 15.3059C16.8939 15.1254 17.0048 14.9726 17.1667 14.8867L18.6671 14.0906C19.5024 13.6474 19.8315 12.6347 19.4162 11.785L18.6703 10.2591ZM7.6931 4.8092C8.85919 4.8092 9.80789 5.75791 9.80789 6.924C9.80789 8.09008 8.85919 9.03879 7.6931 9.03879C6.52702 9.03879 5.57831 8.09008 5.57831 6.924C5.57831 5.75791 6.52702 4.8092 7.6931 4.8092ZM6.60155 14.2142C6.48893 14.3268 6.34131 14.3832 6.19374 14.3832C6.04616 14.3832 5.8985 14.3269 5.78593 14.2142C5.56069 13.989 5.56069 13.6238 5.78593 13.3986L13.3987 5.78576C13.6239 5.56053 13.9892 5.56053 14.2144 5.78576C14.4396 6.01099 14.4396 6.37619 14.2144 6.60142L6.60155 14.2142ZM12.3071 15.1909C11.1411 15.1909 10.1923 14.2422 10.1923 13.0761C10.1923 11.91 11.1411 10.9613 12.3071 10.9613C13.4732 10.9613 14.4219 11.91 14.4219 13.0761C14.4219 14.2422 13.4732 15.1909 12.3071 15.1909Z" fill="#00AC40"/>
</g>
</g>
</svg>
