<svg width="81" height="80" viewBox="0 0 81 80" fill="none" xmlns="http://www.w3.org/2000/svg">
<g clip-path="url(#clip0_267_6920)">
<path d="M40.5 0C18.4094 0 0.5 17.9094 0.5 40C0.5 62.0906 18.4094 80 40.5 80C62.5906 80 80.5 62.0906 80.5 40C80.5 17.9094 62.5906 0 40.5 0Z" fill="black"/>
<path d="M44.8761 36.3801L61.9996 16.4755H57.9419L43.0735 33.7585L31.1982 16.4755H17.5015L35.4592 42.6104L17.5015 63.4835H21.5594L37.2608 45.2321L49.802 63.4835H63.4987L44.875 36.3801H44.8761ZM23.0215 19.5303H29.2543L57.9437 60.5677H51.711L23.0215 19.5303Z" fill="white"/>
</g>
<defs>
<clipPath id="clip0_267_6920">
<rect width="80" height="80" fill="white" transform="translate(0.5)"/>
</clipPath>
</defs>
</svg>
