<svg width="81" height="80" viewBox="0 0 81 80" fill="none" xmlns="http://www.w3.org/2000/svg">
<g clip-path="url(#clip0_267_6945)">
<path d="M40.5 80C62.5914 80 80.5 62.0914 80.5 40C80.5 17.9086 62.5914 0 40.5 0C18.4086 0 0.5 17.9086 0.5 40C0.5 62.0914 18.4086 80 40.5 80Z" fill="#29A71A"/>
<path d="M58.1365 22.3636C53.9748 18.1605 48.4481 15.5828 42.5533 15.0956C36.6585 14.6083 30.7836 16.2437 25.9883 19.7066C21.1931 23.1694 17.7931 28.2319 16.4017 33.9809C15.0103 39.7298 15.719 45.7867 18.4001 51.0591L15.7683 63.8364C15.741 63.9635 15.7402 64.095 15.766 64.2225C15.7918 64.35 15.8437 64.4707 15.9183 64.5773C16.0276 64.739 16.1836 64.8634 16.3656 64.9341C16.5475 65.0048 16.7467 65.0182 16.9365 64.9727L29.4592 62.0046C34.7167 64.6178 40.7309 65.2809 46.4315 63.8761C52.1322 62.4713 57.1495 59.0895 60.5908 54.3326C64.0321 49.5756 65.6741 43.7521 65.2247 37.8981C64.7753 32.0442 62.2635 26.5395 58.1365 22.3636ZM54.2319 53.5273C51.3525 56.3986 47.6446 58.294 43.6308 58.9464C39.6171 59.5988 35.4998 58.9753 31.8592 57.1636L30.1137 56.3L22.4365 58.1182L22.4592 58.0227L24.0501 50.2955L23.1956 48.6091C21.3354 44.9558 20.6792 40.8075 21.3209 36.7584C21.9627 32.7093 23.8696 28.9672 26.7683 26.0682C30.4106 22.427 35.3499 20.3815 40.5001 20.3815C45.6503 20.3815 50.5896 22.427 54.2319 26.0682C54.2629 26.1038 54.2963 26.1372 54.3319 26.1682C57.9291 29.8187 59.9372 34.7433 59.9184 39.8683C59.8997 44.9933 57.8557 49.9031 54.2319 53.5273Z" fill="white"/>
<path d="M53.5499 47.8591C52.609 49.3409 51.1226 51.1545 49.2544 51.6045C45.9817 52.3954 40.959 51.6318 34.709 45.8045L34.6317 45.7363C29.1362 40.6409 27.7089 36.4 28.0544 33.0363C28.2453 31.1272 29.8362 29.4 31.1771 28.2727C31.3891 28.0918 31.6405 27.9629 31.9112 27.8965C32.1819 27.8301 32.4643 27.828 32.736 27.8903C33.0077 27.9526 33.261 28.0775 33.4757 28.2552C33.6904 28.4329 33.8606 28.6584 33.9726 28.9136L35.9953 33.4591C36.1268 33.7538 36.1755 34.0787 36.1362 34.399C36.097 34.7194 35.9713 35.0229 35.7726 35.2772L34.7499 36.6045C34.5304 36.8786 34.398 37.212 34.3696 37.562C34.3413 37.9119 34.4183 38.2623 34.5908 38.5681C35.1635 39.5727 36.5362 41.05 38.0589 42.4181C39.768 43.9636 41.6635 45.3772 42.8635 45.8591C43.1846 45.9902 43.5376 46.0222 43.8771 45.9509C44.2165 45.8797 44.5268 45.7083 44.768 45.4591L45.9544 44.2636C46.1833 44.0379 46.468 43.8769 46.7794 43.797C47.0908 43.7172 47.4178 43.7213 47.7271 43.8091L52.5317 45.1727C52.7967 45.254 53.0396 45.3948 53.2419 45.5844C53.4441 45.774 53.6004 46.0073 53.6986 46.2665C53.7969 46.5258 53.8345 46.804 53.8088 47.08C53.783 47.356 53.6944 47.6225 53.5499 47.8591Z" fill="white"/>
</g>
<defs>
<clipPath id="clip0_267_6945">
<rect width="80" height="80" fill="white" transform="translate(0.5)"/>
</clipPath>
</defs>
</svg>
