<svg width="14" height="14" viewBox="0 0 14 14" fill="none" xmlns="http://www.w3.org/2000/svg">
<path d="M13.2852 3.71969C13.134 3.15741 12.6906 2.71416 12.1284 2.56276C11.1014 2.28174 6.993 2.28174 6.993 2.28174C6.993 2.28174 2.88479 2.28174 1.85772 2.5521C1.30633 2.70335 0.852196 3.15749 0.700951 3.71969C0.430664 4.74668 0.430664 6.87653 0.430664 6.87653C0.430664 6.87653 0.430664 9.01711 0.700951 10.0334C0.852356 10.5956 1.29552 11.0388 1.8578 11.1902C2.89561 11.4713 6.99316 11.4713 6.99316 11.4713C6.99316 11.4713 11.1014 11.4713 12.1284 11.201C12.6907 11.0496 13.134 10.6064 13.2854 10.0442C13.5556 9.01711 13.5556 6.88734 13.5556 6.88734C13.5556 6.88734 13.5664 4.74668 13.2852 3.71969ZM5.68499 8.84416V4.9089L9.1013 6.87653L5.68499 8.84416Z" fill="white"/>
</svg>
